<svg width="626" height="396" viewBox="0 0 626 396" fill="none" xmlns="http://www.w3.org/2000/svg">
<path d="M339.655 53.478C334.776 67.6206 325.425 76.9734 311.602 81.5365" stroke="#5692D4" stroke-width="2"/>
<path d="M304.762 83.4522L290.527 81.8762" stroke="#518BC8" stroke-width="2"/>
<path d="M290.527 81.8764C328.446 70.9064 334.205 18.2659 296.039 2.90786C294.789 2.41344 294.511 1.62546 294.526 0.389404" stroke="#6CBAFA" stroke-width="2"/>
<path d="M290.527 81.8767L281.604 78.6938" stroke="#5BA0C7" stroke-width="2"/>
<path d="M281.603 78.6938C268.192 72.0191 260.282 60.3384 257.873 43.6516" stroke="#5FA8D3" stroke-width="2"/>
<path d="M224.092 180.112C222.024 172.51 218.766 165.691 214.319 159.655" stroke="#A08D7A" stroke-width="2"/>
<path d="M366.566 80.2849L338.328 108.359" stroke="#A4A18B" stroke-width="2"/>
<path d="M281.604 78.6938L214.319 159.656" stroke="#4579A0" stroke-width="2"/>
<path d="M214.319 159.655C204.88 148.263 192.411 141.928 176.91 140.651" stroke="#A49586" stroke-width="2"/>
<path d="M220.418 211.369C217.062 217.992 212.791 223.528 207.603 227.978" stroke="#A08D7A" stroke-width="2"/>
<path d="M207.603 227.978C196.672 237.403 183.868 241.214 169.19 239.412" stroke="#A49586" stroke-width="2"/>
<path d="M169.19 239.412C178.423 234.88 184.562 231.29 187.609 228.643C216.635 203.412 209.548 159.223 174.177 144.375C172.787 143.788 171.326 143.535 169.792 143.618C169.267 143.648 168.917 143.417 168.742 142.922C168.557 142.397 168.67 141.882 169.082 141.377" stroke="#FFB664" stroke-width="2"/>
<path d="M389.292 107.339L365.207 131.319" stroke="#A4A18B" stroke-width="2"/>
<path d="M271.83 313.142C264.42 310.887 257.251 310.65 250.323 312.432" stroke="#A08D7A" stroke-width="2"/>
<path d="M250.324 312.431C250.241 312.473 250.077 312.431 249.83 312.308" stroke="#A09A7F" stroke-width="2"/>
<path d="M249.83 312.308L207.603 227.978" stroke="#4579A0" stroke-width="2"/>
<path d="M169.19 239.412L165.407 238.979" stroke="#A4A18B" stroke-width="2"/>
<path d="M249.83 312.308C233.948 316.407 222.96 325.956 216.867 340.953" stroke="#A4A18B" stroke-width="2"/>
<path d="M412.93 123.485C413.403 127.585 416.177 130.629 421.252 132.617" stroke="#8BB1D6" stroke-width="2"/>
<path d="M391.902 157.585L385.618 151.683" stroke="#8BB1D6" stroke-width="2"/>
<path d="M385.618 151.682C385.443 150.601 384.82 150.107 383.75 150.199" stroke="#5FA8D3" stroke-width="2"/>
<path d="M304.299 355.879C303.733 356.178 303.275 356.261 302.925 356.127" stroke="#A08D7A" stroke-width="2"/>
<path d="M302.925 356.126L285.263 356.451" stroke="#A49586" stroke-width="2"/>
<path d="M285.263 356.451C283.585 333.903 271.938 319.23 250.323 312.432" stroke="#FFB664" stroke-width="2"/>
<path d="M285.263 356.451L214.18 356.405" stroke="#A4A18B" stroke-width="2"/>
<path d="M385.618 151.683H383.086" stroke="#A1D9FC" stroke-width="2"/>
<path d="M413.501 217.966C411.576 222.467 409.317 225.624 406.723 227.437" stroke="#8BB1D6" stroke-width="2"/>
<path d="M485.356 148.33C482.669 153.161 479.34 155.123 475.367 154.216" stroke="#8BB1D6" stroke-width="2"/>
<path d="M310.398 395.479C310.815 392.281 312.189 389.855 311.664 386.672C310.46 379.4 308.983 372.19 307.233 365.042C306.43 361.797 304.485 359.201 302.925 356.126" stroke="#4579A0" stroke-width="2"/>
<path d="M487.826 152.903L477.837 157.662" stroke="#5FA8D3" stroke-width="2"/>
<path d="M410.583 230.203L415.972 219.743" stroke="#5FA8D3" stroke-width="2"/>
<path d="M313.996 41.5038C313.996 37.7297 312.497 34.1102 309.831 31.4416C307.164 28.7729 303.547 27.2737 299.776 27.2737C296.005 27.2737 292.388 28.7729 289.721 31.4416C287.055 34.1102 285.556 37.7297 285.556 41.5038C285.556 45.2778 287.055 48.8973 289.721 51.566C292.388 54.2346 296.005 55.7339 299.776 55.7339C303.547 55.7339 307.164 54.2346 309.831 51.566C312.497 48.8973 313.996 45.2778 313.996 41.5038Z" stroke="#5FA8D3" stroke-width="2"/>
<path d="M192.38 190.526C192.38 186.014 190.589 181.687 187.401 178.497C184.213 175.307 179.89 173.515 175.381 173.515C173.149 173.515 170.938 173.955 168.876 174.81C166.814 175.664 164.94 176.917 163.361 178.497C161.783 180.077 160.531 181.952 159.677 184.016C158.822 186.08 158.383 188.292 158.383 190.526C158.383 192.76 158.822 194.972 159.677 197.036C160.531 199.1 161.783 200.975 163.361 202.555C164.94 204.134 166.814 205.387 168.876 206.242C170.938 207.097 173.149 207.537 175.381 207.537C179.89 207.537 184.213 205.745 187.401 202.555C190.589 199.364 192.38 195.038 192.38 190.526Z" stroke="#A4A18B" stroke-width="2"/>
<path d="M339.655 53.4782C334.776 67.6207 325.425 76.9735 311.602 81.5366C308.843 81.7633 306.564 82.4019 304.762 83.4525L290.527 81.8766C328.446 70.9066 334.205 18.266 296.039 2.90801C294.789 2.41359 294.511 1.62561 294.526 0.389551C325.42 -3.62763 346.417 24.0755 339.655 53.4782Z" fill="#6E61B6"/>
<path d="M294.526 0.389404C294.511 1.62546 294.789 2.41344 296.039 2.90786C334.205 18.2659 328.446 70.9064 290.528 81.8764L281.604 78.6936C268.192 72.0189 260.282 60.3381 257.874 43.6514C259.896 20.2745 270.503 4.45294 294.526 0.389404ZM313.995 41.5037C313.995 37.7297 312.497 34.1102 309.83 31.4415C307.164 28.7729 303.547 27.2736 299.776 27.2736C296.004 27.2736 292.388 28.7729 289.721 31.4415C287.054 34.1102 285.556 37.7297 285.556 41.5037C285.556 45.2778 287.054 48.8973 289.721 51.5659C292.388 54.2346 296.004 55.7338 299.776 55.7338C303.547 55.7338 307.164 54.2346 309.83 51.5659C312.497 48.8973 313.995 45.2778 313.995 41.5037Z" fill="#8379C1"/>
<path d="M299.775 55.7339C307.629 55.7339 313.995 49.3628 313.995 41.5038C313.995 33.6447 307.629 27.2737 299.775 27.2737C291.922 27.2737 285.556 33.6447 285.556 41.5038C285.556 49.3628 291.922 55.7339 299.775 55.7339Z" fill="#4980AC"/>
<path d="M257.873 43.6516C260.282 60.3384 268.192 72.0191 281.603 78.6938L214.319 159.656C204.88 148.263 192.411 141.928 176.91 140.651L257.873 43.6516Z" fill="#5FA7E1"/>
<path d="M339.655 53.478L366.566 80.285L338.327 108.359L311.602 81.5365C325.425 76.9734 334.776 67.6206 339.655 53.478Z" fill="#5FA7E1"/>
<path d="M389.292 107.339L365.207 131.319C359.325 137.576 354.847 142.134 346.001 138.658C334.709 134.218 327.582 131.252 324.617 129.758C321.437 128.151 321.262 125.901 324.092 123.006C328.611 118.423 333.356 113.54 338.327 108.359L366.566 80.2852C371.836 74.9599 376.931 69.8405 381.851 64.9272C384.028 62.7641 387.1 64.4019 388.258 67.0285C391.191 73.662 393.965 80.3522 396.58 87.099C400.656 97.59 395.391 100.587 389.292 107.339Z" fill="#8379C1"/>
<path d="M281.603 78.6938L290.527 81.8767L304.762 83.4527L224.092 180.112C222.023 172.511 218.766 165.692 214.319 159.656L281.603 78.6938Z" fill="#407194"/>
<path d="M389.292 107.339L407.495 125.401C408.617 126.503 409.626 126.405 410.521 125.107C410.892 124.572 411.695 124.031 412.93 123.485C413.403 127.585 416.177 130.628 421.252 132.616L417.469 133.451C417.263 133.495 417.074 133.599 416.927 133.75C416.779 133.9 416.678 134.091 416.637 134.297C416.596 134.504 416.617 134.719 416.696 134.914C416.775 135.11 416.91 135.278 417.083 135.398C430.284 144.575 418.689 155.87 410.984 162.05C404.623 167.159 398.263 165.671 391.902 157.585L385.618 151.683C385.443 150.601 384.82 150.107 383.75 150.199C378.284 143.401 372.103 137.107 365.207 131.319L389.292 107.339Z" fill="#5FA7E1"/>
<path d="M485.355 148.33C482.669 153.161 479.339 155.123 475.366 154.217C468.768 144.627 462.32 134.893 456.021 125.015C454.708 122.975 452.315 121.6 450.092 122.404C440.18 126.019 430.566 129.423 421.251 132.617C416.177 130.629 413.403 127.585 412.93 123.485C422.862 119.53 432.862 115.791 442.928 112.268C451.929 109.116 459.263 109.348 464.852 117.243C469.144 123.31 475.979 133.672 485.355 148.33Z" fill="#CDE2FF"/>
<path d="M176.91 140.651C192.411 141.928 204.88 148.263 214.319 159.655C218.765 165.691 222.023 172.51 224.092 180.112C225.986 190.948 224.761 201.367 220.417 211.369C217.062 217.992 212.79 223.528 207.603 227.978C196.672 237.403 183.868 241.214 169.19 239.412C178.423 234.88 184.562 231.29 187.609 228.643C216.635 203.412 209.548 159.223 174.177 144.374C172.787 143.787 171.326 143.535 169.792 143.617C169.267 143.648 168.917 143.417 168.742 142.922C168.557 142.397 168.67 141.882 169.082 141.377L176.91 140.651Z" fill="#6E61B6"/>
<path d="M169.082 141.377C168.67 141.882 168.557 142.397 168.742 142.922C168.917 143.417 169.267 143.648 169.792 143.618C171.326 143.535 172.787 143.788 174.177 144.375C209.548 159.223 216.635 203.412 187.609 228.643C184.562 231.29 178.423 234.88 169.19 239.412L165.408 238.979C111 223.436 113.593 151.776 169.082 141.377ZM192.38 190.526C192.38 186.014 190.589 181.687 187.401 178.497C184.213 175.307 179.89 173.515 175.381 173.515C173.149 173.515 170.939 173.955 168.876 174.81C166.814 175.664 164.94 176.918 163.361 178.497C161.783 180.077 160.531 181.952 159.677 184.016C158.822 186.08 158.383 188.292 158.383 190.526C158.383 192.76 158.822 194.972 159.677 197.036C160.531 199.1 161.783 200.975 163.361 202.555C164.94 204.134 166.814 205.387 168.876 206.242C170.939 207.097 173.149 207.537 175.381 207.537C179.89 207.537 184.213 205.745 187.401 202.555C190.589 199.364 192.38 195.038 192.38 190.526Z" fill="#8379C1"/>
<path d="M485.355 148.33L487.826 152.903L477.837 157.662L475.366 154.217C479.339 155.123 482.669 153.161 485.355 148.33Z" fill="#4980AC"/>
<path d="M383.75 150.199C384.82 150.107 385.443 150.601 385.618 151.682H383.086C383.59 151.507 383.812 151.013 383.75 150.199Z" fill="#75CFF9"/>
<path d="M383.086 151.683H385.618L391.902 157.585C388.968 168.411 385.469 179.185 381.403 189.908C380.122 193.307 380.477 195.98 383.487 197.958C393.832 204.725 403.836 211.395 413.501 217.967C411.576 222.468 409.317 225.625 406.723 227.438C396.338 220.743 386.302 214.099 376.617 207.506C367.168 201.064 367.369 193.848 370.966 183.295C374.62 172.572 378.66 162.035 383.086 151.683Z" fill="#CDE2FF"/>
<path d="M477.837 157.662L487.826 152.903C497.985 149.133 500.255 156.287 500.285 164.599C500.357 181.111 500.172 193.018 499.73 200.321C499.436 205.42 492.056 206.965 488.582 204.802C487.203 203.947 485.736 202.088 484.182 199.224C476.915 185.782 472.078 176.687 469.669 171.939C465.501 163.688 473.128 161.741 477.837 157.662Z" fill="#2BBBFF"/>
<path d="M175.381 207.537C184.769 207.537 192.38 199.921 192.38 190.526C192.38 181.131 184.769 173.515 175.381 173.515C165.993 173.515 158.383 181.131 158.383 190.526C158.383 199.921 165.993 207.537 175.381 207.537Z" fill="#4980AC"/>
<path d="M410.583 230.203L415.972 219.743C420.279 214.258 421.808 207.352 430.793 211.956C446.253 219.898 456.397 225.326 461.224 228.241C465.562 230.852 464.528 238.377 460.591 240.787C455.434 243.939 429.99 242.147 422.688 242.162C414.227 242.178 408.267 240.107 410.583 230.203Z" fill="#2BBBFF"/>
<path d="M220.418 211.369L271.831 313.143C264.42 310.887 257.251 310.65 250.324 312.432C250.241 312.473 250.077 312.432 249.83 312.308L207.603 227.978C212.791 223.529 217.062 217.992 220.418 211.369Z" fill="#376284"/>
<path d="M413.501 217.966L415.971 219.743L410.583 230.203L406.723 227.437C409.317 225.624 411.576 222.467 413.501 217.966Z" fill="#4980AC"/>
<path d="M207.603 227.978L249.829 312.308C233.948 316.408 222.96 325.956 216.867 340.954L165.407 238.979L169.19 239.412C183.868 241.214 196.672 237.403 207.603 227.978Z" fill="#5FA7E1"/>
<path d="M271.83 313.143C291.685 319.992 302.508 334.238 304.299 355.879C303.733 356.178 303.275 356.26 302.925 356.126L285.263 356.451C283.585 333.903 271.938 319.23 250.323 312.432C257.251 310.65 264.42 310.887 271.83 313.143Z" fill="#6E61B6"/>
<path d="M249.83 312.309C250.077 312.432 250.241 312.473 250.324 312.432C271.939 319.23 283.585 333.903 285.263 356.451L214.18 356.405C214.242 350.915 215.138 345.764 216.867 340.954C222.96 325.957 233.948 316.408 249.83 312.309Z" fill="#8379C1"/>
<path d="M304.299 355.879C313.069 356.049 326.918 353.5 329.234 365.428C330.51 371.979 331.797 378.52 333.094 385.05C335.981 399.527 318.395 395.479 310.398 395.479C310.815 392.281 312.189 389.855 311.664 386.672C310.46 379.4 308.983 372.19 307.233 365.041C306.43 361.797 304.485 359.201 302.925 356.126C303.275 356.26 303.733 356.178 304.299 355.879Z" fill="#407194"/>
<path d="M214.18 356.405L285.263 356.451L302.925 356.126C304.484 359.201 306.43 361.797 307.233 365.041C308.982 372.19 310.459 379.4 311.664 386.672C312.189 389.855 310.815 392.281 310.398 395.479C271.758 395.49 233.15 395.485 194.572 395.464C188.644 395.464 183.904 393.888 184.923 386.966C185.386 383.793 186.837 376.676 189.277 365.613C192.056 352.99 204.947 356.59 214.18 356.405Z" fill="#4980AC"/>
</svg>
