<?xml version="1.0" encoding="UTF-8" standalone="no"?>
<!DOCTYPE svg PUBLIC "-//W3C//DTD SVG 1.1//EN" "http://www.w3.org/Graphics/SVG/1.1/DTD/svg11.dtd">
<svg xmlns="http://www.w3.org/2000/svg" version="1.1" viewBox="0.00 0.00 626.00 395.00">
<g stroke-width="2.00" fill="none" stroke-linecap="butt">
<path stroke="#ccdaf0" vector-effect="non-scaling-stroke" d="
  M 226.05 74.23
  L 226.03 144.16"
/>
<path stroke="#829bce" vector-effect="non-scaling-stroke" d="
  M 226.03 144.16
  L 225.94 161.01
  Q 225.94 161.46 226.23 161.81
  Q 226.42 162.04 226.47 162.36"
/>
<path stroke="#ccdaf0" vector-effect="non-scaling-stroke" d="
  M 226.47 162.36
  Q 226.63 162.11 226.23 162.25
  Q 226.02 162.32 226.02 162.54
  L 225.99 175.09"
/>
<path stroke="#9db6de" vector-effect="non-scaling-stroke" d="
  M 225.99 175.09
  L 128.99 175.18"
/>
<path stroke="#ccdaf0" vector-effect="non-scaling-stroke" d="
  M 128.99 175.18
  Q 129.12 132.15 128.75 109.00
  Q 128.74 108.16 127.70 108.16"
/>
<path stroke="#728ec7" vector-effect="non-scaling-stroke" d="
  M 288.73 207.81
  L 270.84 207.84"
/>
<path stroke="#a0b2d9" vector-effect="non-scaling-stroke" d="
  M 270.84 207.84
  C 266.15 185.05 247.57 169.86 226.47 162.36"
/>
<path stroke="#868992" vector-effect="non-scaling-stroke" d="
  M 308.03 113.02
  Q 310.05 115.65 315.27 116.24
  C 316.04 116.33 316.47 116.04 317.01 115.56"
/>
<path stroke="#818ba3" vector-effect="non-scaling-stroke" d="
  M 318.49 115.20
  Q 318.64 115.20 318.77 115.26
  Q 319.11 115.40 319.07 115.76
  C 318.42 121.68 319.46 125.45 322.75 130.86
  Q 327.72 139.05 329.74 148.49
  Q 329.90 149.26 330.32 149.88
  Q 330.57 150.26 330.30 150.62
  C 326.69 155.48 327.39 163.48 331.48 167.83
  Q 331.88 168.25 332.46 168.25
  L 345.29 168.25
  A 1.65 1.59 -61.5 0 0 346.21 167.96
  C 350.59 164.87 352.00 154.26 347.73 150.66
  Q 347.32 150.31 347.70 149.93
  L 348.17 149.45
  Q 348.55 149.07 348.62 148.54
  Q 349.19 144.01 351.11 140.58"
/>
<path stroke="#ccdaf0" vector-effect="non-scaling-stroke" d="
  M 425.01 152.07
  Q 424.73 152.32 424.74 152.69
  Q 424.74 153.15 424.35 153.40
  C 419.18 156.80 384.20 181.39 385.25 186.50
  A 1.99 1.99 0.0 0 0 387.77 188.00
  Q 394.68 185.90 400.17 182.89
  Q 422.72 170.52 442.44 154.00
  Q 442.68 153.80 442.99 153.77
  L 443.43 153.73"
/>
<path stroke="#ccdaf0" vector-effect="non-scaling-stroke" d="
  M 456.04 158.07
  L 452.03 253.20"
/>
<path stroke="#8997b8" vector-effect="non-scaling-stroke" d="
  M 452.03 253.20
  L 429.36 253.24"
/>
<path stroke="#bccde9" vector-effect="non-scaling-stroke" d="
  M 429.36 253.24
  L 429.24 208.33
  Q 429.24 207.78 428.70 207.79
  L 288.73 207.81"
/>
<path stroke="#a0b2d9" vector-effect="non-scaling-stroke" d="
  M 288.73 207.81
  C 283.10 175.34 257.56 152.21 226.03 144.16"
/>
<path stroke="#bccde9" vector-effect="non-scaling-stroke" d="
  M 270.84 207.84
  L 226.05 207.78"
/>
<path stroke="#ccdaf0" vector-effect="non-scaling-stroke" d="
  M 226.05 207.78
  L 226.01 180.60"
/>
<path stroke="#bccde9" vector-effect="non-scaling-stroke" d="
  M 226.01 180.60
  L 225.99 175.09"
/>
<path stroke="#bccde9" vector-effect="non-scaling-stroke" d="
  M 128.99 175.18
  L 129.00 180.53"
/>
<path stroke="#ccdaf0" vector-effect="non-scaling-stroke" d="
  M 129.00 180.53
  Q 128.97 219.85 128.96 259.25
  Q 128.96 260.61 128.62 261.65"
/>
<path stroke="#bed6b7" vector-effect="non-scaling-stroke" d="
  M 128.62 261.65
  C 126.27 259.49 104.34 242.89 104.58 248.50
  Q 104.60 249.04 104.12 249.27
  L 102.95 249.83"
/>
<path stroke="#92a5cf" vector-effect="non-scaling-stroke" d="
  M 113.79 122.87
  Q 115.67 127.45 117.59 127.93
  C 126.49 130.13 126.57 116.36 116.84 118.96"
/>
<path stroke="#9db6de" vector-effect="non-scaling-stroke" d="
  M 226.01 180.60
  C 193.67 180.36 161.39 180.17 129.00 180.53"
/>
<path stroke="#5a73a6" vector-effect="non-scaling-stroke" d="
  M 429.36 253.24
  L 397.74 253.49"
/>
<path stroke="#9db6de" vector-effect="non-scaling-stroke" d="
  M 397.74 253.49
  L 400.57 253.25
  Q 401.04 253.21 401.04 252.74
  L 400.95 231.75
  Q 400.94 230.31 399.50 230.32
  L 372.69 230.57
  A 0.76 0.76 0.0 0 0 371.94 231.31
  L 371.56 253.31"
/>
<path stroke="#5a73a6" vector-effect="non-scaling-stroke" d="
  M 371.56 253.31
  L 367.48 253.56
  Q 366.95 253.59 366.68 254.05
  L 360.02 265.30"
/>
<path stroke="#9db6de" vector-effect="non-scaling-stroke" d="
  M 360.02 265.30
  L 331.63 265.09
  Q 331.07 265.09 331.07 265.65
  L 331.07 291.80
  A 1.32 1.32 0.0 0 0 332.53 293.11
  Q 337.44 292.57 342.97 293.75"
/>
<path stroke="#5a73a6" vector-effect="non-scaling-stroke" d="
  M 342.97 293.75
  L 339.24 300.24"
/>
<path stroke="#9db6de" vector-effect="non-scaling-stroke" d="
  M 339.24 300.24
  Q 335.86 299.30 332.82 299.54
  A 1.59 1.59 0.0 0 0 331.36 301.14
  L 331.45 310.43
  Q 331.46 310.94 331.97 310.99
  L 332.80 311.06"
/>
<path stroke="#5a73a6" vector-effect="non-scaling-stroke" d="
  M 332.80 311.06
  L 322.54 328.39
  A 0.57 0.57 0.0 0 0 323.03 329.25
  L 424.00 329.25
  A 0.90 0.86 -19.7 0 1 424.67 329.55
  L 424.87 329.78"
/>
<path stroke="#536791" vector-effect="non-scaling-stroke" d="
  M 424.87 329.78
  L 429.15 345.97"
/>
<path stroke="#5a73a6" vector-effect="non-scaling-stroke" d="
  M 429.15 345.97
  L 418.77 346.12
  Q 418.20 346.13 418.04 346.68
  Q 417.46 348.70 417.76 350.30"
/>
<path stroke="#5a73a6" vector-effect="non-scaling-stroke" d="
  M 279.54 350.23
  L 279.18 346.72
  A 0.72 0.71 87.4 0 0 278.47 346.07
  L 269.06 345.97
  A 1.25 1.24 68.6 0 1 268.18 345.58
  Q 267.75 345.11 267.56 344.50"
/>
<path stroke="#536791" vector-effect="non-scaling-stroke" d="
  M 267.56 344.50
  L 263.49 329.28"
/>
<path stroke="#5a73a6" vector-effect="non-scaling-stroke" d="
  M 263.49 329.28
  L 279.00 329.23
  Q 279.54 329.23 279.81 328.77
  L 290.00 311.40"
/>
<path stroke="#9db6de" vector-effect="non-scaling-stroke" d="
  M 290.00 311.40
  Q 290.85 319.23 290.62 327.12
  Q 290.60 327.75 291.24 327.75
  L 317.88 327.75
  A 2.13 2.12 90.0 0 0 320.00 325.62
  L 320.00 300.00
  Q 320.00 299.48 319.47 299.48
  L 296.89 299.48"
/>
<path stroke="#5a73a6" vector-effect="non-scaling-stroke" d="
  M 296.89 299.48
  L 300.78 292.77"
/>
<path stroke="#9db6de" vector-effect="non-scaling-stroke" d="
  M 300.78 292.77
  L 319.06 292.91
  Q 319.58 292.92 319.57 292.40
  Q 319.48 279.70 319.45 267.21
  Q 319.45 264.47 317.22 264.41"
/>
<path stroke="#5a73a6" vector-effect="non-scaling-stroke" d="
  M 317.22 264.41
  L 323.21 254.10
  A 0.42 0.41 -67.5 0 0 322.96 253.49
  Q 321.00 252.96 319.41 253.46"
/>
<path stroke="#9db6de" vector-effect="non-scaling-stroke" d="
  M 319.41 253.46
  L 319.46 230.98
  Q 319.46 230.50 318.98 230.50
  L 291.03 230.50
  A 0.66 0.66 0.0 0 0 290.37 231.18
  Q 290.77 242.63 290.14 253.19"
/>
<path stroke="#5a73a6" vector-effect="non-scaling-stroke" d="
  M 290.14 253.19
  L 278.93 253.23"
/>
<path stroke="#9db6de" vector-effect="non-scaling-stroke" d="
  M 278.93 253.23
  L 278.74 230.92
  Q 278.73 230.49 278.29 230.48
  L 249.94 230.46
  A 0.25 0.24 -90.0 0 0 249.70 230.71
  L 249.51 253.20"
/>
<path stroke="#5a73a6" vector-effect="non-scaling-stroke" d="
  M 249.51 253.20
  L 225.97 253.44"
/>
<path stroke="#9db6de" vector-effect="non-scaling-stroke" d="
  M 469.36 163.51
  Q 468.15 167.13 468.24 168.49
  C 468.96 179.10 468.63 191.73 468.83 200.25
  C 469.24 217.70 469.68 235.35 469.57 252.79
  Q 469.57 253.23 469.13 253.25
  L 465.72 253.46"
/>
<path stroke="#6a80ad" vector-effect="non-scaling-stroke" d="
  M 465.72 253.46
  L 452.03 253.20"
/>
<path stroke="#5a73a6" vector-effect="non-scaling-stroke" d="
  M 474.66 295.43
  L 470.69 302.29"
/>
<path stroke="#939eba" vector-effect="non-scaling-stroke" d="
  M 448.57 329.26
  L 438.99 329.25"
/>
<path stroke="#203160" vector-effect="non-scaling-stroke" d="
  M 438.99 329.25
  L 426.18 328.94
  Q 425.68 328.93 425.34 329.29
  L 424.87 329.78"
/>
<path stroke="#6a80ad" vector-effect="non-scaling-stroke" d="
  M 332.80 311.06
  L 339.24 300.24"
/>
<path stroke="#6a80ad" vector-effect="non-scaling-stroke" d="
  M 342.97 293.75
  L 360.02 265.30"
/>
<path stroke="#9db6de" vector-effect="non-scaling-stroke" d="
  M 226.05 207.78
  L 225.97 253.44"
/>
<path stroke="#6a80ad" vector-effect="non-scaling-stroke" d="
  M 225.97 253.44
  L 192.74 253.25
  A 1.49 1.49 0.0 0 0 191.44 253.98
  L 147.06 328.32
  A 0.61 0.61 0.0 0 0 147.58 329.25
  L 226.20 329.24"
/>
<path stroke="#9db6de" vector-effect="non-scaling-stroke" d="
  M 226.20 329.24
  L 225.94 349.38
  Q 225.93 349.92 226.48 349.98
  Q 234.33 350.85 242.21 349.75"
/>
<path stroke="#6a80ad" vector-effect="non-scaling-stroke" d="
  M 242.21 349.75
  Q 242.12 351.40 243.50 351.42
  Q 261.21 351.66 278.92 351.19
  Q 279.49 351.18 279.52 350.60
  L 279.54 350.23"
/>
<path stroke="#9db6de" vector-effect="non-scaling-stroke" d="
  M 279.54 350.23
  L 417.76 350.30"
/>
<path stroke="#6a80ad" vector-effect="non-scaling-stroke" d="
  M 417.76 350.30
  Q 418.04 351.48 419.76 351.49
  Q 436.94 351.54 454.19 351.48
  Q 454.82 351.48 454.78 350.85
  L 454.52 346.70
  Q 454.48 346.00 453.77 346.00
  L 444.25 346.00
  A 0.91 0.90 68.8 0 1 443.58 345.70
  L 443.32 345.42"
/>
<path stroke="#637498" vector-effect="non-scaling-stroke" d="
  M 443.32 345.42
  L 442.01 340.86"
/>
<path stroke="#d6e1f2" vector-effect="non-scaling-stroke" d="
  M 442.01 340.86
  Q 443.86 343.34 447.88 342.17
  A 0.67 0.67 0.0 0 0 448.36 341.54
  L 448.57 329.26"
/>
<path stroke="#6a80ad" vector-effect="non-scaling-stroke" d="
  M 448.57 329.26
  L 454.00 329.26
  Q 454.96 329.26 455.44 328.43
  L 470.69 302.29"
/>
<path stroke="#9db6de" vector-effect="non-scaling-stroke" d="
  M 470.69 302.29
  Q 470.80 308.04 471.09 313.31
  C 471.73 325.26 471.59 337.28 471.82 349.26
  Q 471.83 349.78 472.33 349.92
  Q 474.75 350.60 477.16 350.11"
/>
<path stroke="#9fbfac" vector-effect="non-scaling-stroke" d="
  M 477.16 350.11
  C 484.42 350.38 491.58 350.02 498.74 350.12
  Q 502.25 350.17 504.18 347.47
  Q 504.47 347.06 504.98 347.01
  L 506.38 346.87"
/>
<path stroke="#6c86be" vector-effect="non-scaling-stroke" d="
  M 507.28 347.59
  C 505.72 355.82 516.62 351.22 519.54 348.33"
/>
<path stroke="#687287" vector-effect="non-scaling-stroke" d="
  M 519.54 348.33
  Q 523.09 345.33 524.23 345.35"
/>
<path stroke="#637498" vector-effect="non-scaling-stroke" d="
  M 539.29 347.12
  L 539.28 351.51"
/>
<path stroke="#9fbfac" vector-effect="non-scaling-stroke" d="
  M 107.59 345.52
  Q 107.93 344.62 108.48 344.81
  Q 118.22 348.10 128.45 348.90
  Q 128.95 348.94 128.95 348.44
  L 128.62 261.65"
/>
<path stroke="#6a80ad" vector-effect="non-scaling-stroke" d="
  M 278.93 253.23
  L 249.51 253.20"
/>
<path stroke="#6a80ad" vector-effect="non-scaling-stroke" d="
  M 317.22 264.41
  L 300.78 292.77"
/>
<path stroke="#6a80ad" vector-effect="non-scaling-stroke" d="
  M 296.89 299.48
  L 290.00 311.40"
/>
<path stroke="#203160" vector-effect="non-scaling-stroke" d="
  M 263.49 329.28
  L 249.34 329.09"
/>
<path stroke="#5a73a6" vector-effect="non-scaling-stroke" d="
  M 249.34 329.09
  L 226.20 329.24"
/>
<path stroke="#203160" vector-effect="non-scaling-stroke" d="
  M 267.56 344.50
  C 267.07 347.07 255.68 346.10 253.75 345.92"
/>
<path stroke="#536791" vector-effect="non-scaling-stroke" d="
  M 253.75 345.92
  L 249.34 329.09"
/>
<path stroke="#8b92a5" vector-effect="non-scaling-stroke" d="
  M 438.99 329.25
  L 442.01 340.86"
/>
<path stroke="#203160" vector-effect="non-scaling-stroke" d="
  M 443.32 345.42
  C 442.26 346.68 431.29 345.96 429.15 345.97"
/>
<path stroke="#6a80ad" vector-effect="non-scaling-stroke" d="
  M 319.41 253.46
  L 290.14 253.19"
/>
<path stroke="#6a80ad" vector-effect="non-scaling-stroke" d="
  M 397.74 253.49
  L 371.56 253.31"
/>
<path stroke="#bccde9" vector-effect="non-scaling-stroke" d="
  M 470.36 166.62
  Q 469.41 167.20 469.50 169.25
  Q 471.36 211.22 473.35 253.22"
/>
<path stroke="#5a73a6" vector-effect="non-scaling-stroke" d="
  M 473.35 253.22
  L 465.72 253.46"
/>
<path stroke="#8a9dc9" vector-effect="non-scaling-stroke" d="
  M 499.96 195.24
  Q 497.25 198.19 494.20 202.07
  C 491.13 205.97 492.00 209.19 495.26 212.50
  Q 503.30 220.67 511.13 225.21"
/>
<path stroke="#f2ccb3" vector-effect="non-scaling-stroke" d="
  M 511.13 225.21
  Q 512.14 225.08 511.83 225.66
  Q 509.80 229.52 510.70 233.84"
/>
<path stroke="#868992" vector-effect="non-scaling-stroke" d="
  M 491.21 290.27
  Q 486.99 293.36 483.60 297.43
  Q 483.52 297.52 483.40 297.51
  Q 483.24 297.50 483.08 297.50
  Q 482.77 297.49 482.55 297.72
  L 477.33 303.33"
/>
<path stroke="#bccde9" vector-effect="non-scaling-stroke" d="
  M 477.33 303.33
  Q 476.49 303.27 475.79 303.54
  Q 475.29 303.72 475.25 303.19
  L 474.66 295.43"
/>
<path stroke="#8997b8" vector-effect="non-scaling-stroke" d="
  M 474.66 295.43
  L 498.67 253.87
  A 0.37 0.37 0.0 0 0 498.35 253.32
  L 473.35 253.22"
/>
<path stroke="#8fb2a5" vector-effect="non-scaling-stroke" d="
  M 476.24 328.88
  L 477.16 350.11"
/>
<path stroke="#5a73a6" vector-effect="non-scaling-stroke" d="
  M 253.75 345.92
  L 244.22 345.96
  Q 242.72 345.97 242.52 347.45
  L 242.21 349.75"
/>
<path stroke="#374c81" vector-effect="non-scaling-stroke" d="
  M 551.31 349.08
  Q 550.83 349.80 551.17 350.47"
/>
<path stroke="#8e644a" vector-effect="non-scaling-stroke" d="
  M 555.28 224.65
  Q 555.09 224.71 554.92 224.75
  Q 554.56 224.83 554.53 225.20
  Q 554.28 229.14 555.24 233.00"
/>
<path stroke="#868992" vector-effect="non-scaling-stroke" d="
  M 555.24 233.00
  Q 557.03 237.83 554.31 241.49
  A 1.07 1.05 -35.5 0 0 554.15 242.40
  Q 554.90 244.91 554.32 247.43"
/>
<path stroke="#263560" vector-effect="non-scaling-stroke" d="
  M 547.51 339.12
  Q 543.34 337.70 542.55 341.38
  Q 542.44 341.87 542.04 342.17
  L 540.61 343.23"
/>
<path stroke="#263560" vector-effect="non-scaling-stroke" d="
  M 519.54 348.33
  L 522.76 344.65
  A 1.37 1.33 66.5 0 0 523.10 343.75
  Q 523.12 340.96 520.72 338.80"
/>
<path stroke="#868992" vector-effect="non-scaling-stroke" d="
  M 520.72 338.80
  Q 522.01 336.20 514.52 338.21"
/>
<path stroke="#263560" vector-effect="non-scaling-stroke" d="
  M 514.52 338.21
  Q 514.86 338.16 515.20 338.11"
/>
<path stroke="#263560" vector-effect="non-scaling-stroke" d="
  M 559.75 226.05
  Q 557.66 226.33 556.57 224.21"
/>
<path stroke="#294386" vector-effect="non-scaling-stroke" d="
  M 553.09 214.99
  C 552.51 217.72 552.28 219.44 550.97 222.38
  C 549.50 225.68 549.14 228.56 547.10 232.60
  C 544.47 237.81 538.53 241.43 533.62 244.40"
/>
<path stroke="#263560" vector-effect="non-scaling-stroke" d="
  M 533.62 244.40
  C 529.23 244.12 519.99 244.06 515.29 240.59"
/>
<path stroke="#927880" vector-effect="non-scaling-stroke" d="
  M 513.48 231.23
  Q 516.08 227.43 514.65 223.59"
/>
<path stroke="#405ea7" vector-effect="non-scaling-stroke" d="
  M 514.65 223.59
  L 514.75 222.29"
/>
<path stroke="#405ea7" vector-effect="non-scaling-stroke" d="
  M 514.25 221.99
  L 513.74 222.12
  Q 513.20 222.26 513.24 222.82
  L 513.28 223.28"
/>
<path stroke="#927880" vector-effect="non-scaling-stroke" d="
  M 513.28 223.28
  Q 512.68 224.68 511.13 225.21"
/>
<path stroke="#586580" vector-effect="non-scaling-stroke" d="
  M 476.42 304.01
  Q 476.71 303.55 477.33 303.33"
/>
<path stroke="#8a9dc9" vector-effect="non-scaling-stroke" d="
  M 520.72 338.80
  Q 518.47 339.82 514.52 338.21"
/>
<path stroke="#213771" vector-effect="non-scaling-stroke" d="
  M 547.90 341.57
  Q 548.01 345.28 549.56 348.87
  A 0.94 0.93 58.1 0 1 549.31 349.96
  Q 546.11 352.69 541.97 350.94
  Q 540.57 350.34 540.77 348.83
  Q 540.86 348.05 540.19 346.75"
/>
<path stroke="#252f4f" vector-effect="non-scaling-stroke" d="
  M 553.65 223.51
  Q 552.78 228.45 554.31 233.47
  Q 555.64 237.83 553.14 241.33
  Q 552.84 241.74 552.36 241.88
  Q 543.30 244.55 533.62 244.40"
/>
<path stroke="#f2ccb3" vector-effect="non-scaling-stroke" d="
  M 560.44 235.82
  C 557.59 236.24 558.04 232.79 555.24 233.00"
/>
<path stroke="#8e644a" vector-effect="non-scaling-stroke" d="
  M 559.63 227.32
  Q 557.04 227.04 555.77 224.75"
/>
<path stroke="#fcb96b" vector-effect="non-scaling-stroke" d="
  M 538.63 154.74
  Q 533.16 157.24 529.60 161.10
  Q 529.24 161.49 529.70 161.75
  L 535.51 164.99"
/>
<path stroke="#8e644a" vector-effect="non-scaling-stroke" d="
  M 535.51 164.99
  Q 536.39 167.85 538.03 166.65"
/>
<path stroke="#fcb96b" vector-effect="non-scaling-stroke" d="
  M 538.03 166.65
  L 540.23 166.80"
/>
<path stroke="#8e644a" vector-effect="non-scaling-stroke" d="
  M 540.23 166.80
  Q 537.87 170.52 538.25 173.44"
/>
<path stroke="#927880" vector-effect="non-scaling-stroke" d="
  M 539.33 178.99
  C 536.77 184.00 529.95 184.04 528.78 177.81"
/>
<path stroke="#a88d91" vector-effect="non-scaling-stroke" d="
  M 529.19 176.34
  Q 526.45 173.23 526.19 171.55"
/>
<path stroke="#829bce" vector-effect="non-scaling-stroke" d="
  M 520.44 168.31
  Q 520.77 169.64 522.33 170.36
  Q 522.78 170.57 523.10 170.96
  Q 525.58 173.93 529.19 176.34"
/>
<path stroke="#d3b5a8" vector-effect="non-scaling-stroke" d="
  M 529.19 176.34
  Q 529.42 177.10 528.78 177.81"
/>
<path stroke="#6c86be" vector-effect="non-scaling-stroke" d="
  M 528.78 177.81
  Q 523.24 179.45 519.84 179.12"
/>
<path stroke="#a88d91" vector-effect="non-scaling-stroke" d="
  M 514.65 223.59
  Q 514.54 222.63 513.28 223.28"
/>
<path stroke="#90774b" vector-effect="non-scaling-stroke" d="
  M 542.83 167.10
  Q 541.07 166.62 540.23 166.80"
/>
<path stroke="#90774b" vector-effect="non-scaling-stroke" d="
  M 538.03 166.65
  Q 537.91 165.45 535.51 164.99"
/>
<path stroke="#829bce" vector-effect="non-scaling-stroke" d="
  M 465.04 53.25
  Q 464.57 58.35 465.54 63.34
  C 466.99 70.82 465.94 78.84 467.66 86.29"
/>
<path stroke="#293f77" vector-effect="non-scaling-stroke" d="
  M 86.83 127.27
  L 89.68 127.78
  A 1.38 1.36 -55.0 0 0 90.62 127.61
  C 94.52 125.30 91.74 122.22 88.93 121.10"
/>
<path stroke="#d6e1f2" vector-effect="non-scaling-stroke" d="
  M 206.66 117.56
  A 29.20 29.20 0.0 0 0 177.46 88.36
  A 29.20 29.20 0.0 0 0 148.26 117.56
  A 29.20 29.20 0.0 0 0 177.46 146.76
  A 29.20 29.20 0.0 0 0 206.66 117.56"
/>
<path stroke="#8997b8" vector-effect="non-scaling-stroke" d="
  M 434.9693 177.8075
  A 1.99 0.95 92.9 0 0 436.0188 175.8681
  A 1.99 0.95 92.9 0 0 435.1707 173.8325
  A 1.99 0.95 92.9 0 0 434.1212 175.7719
  A 1.99 0.95 92.9 0 0 434.9693 177.8075"
/>
<path stroke="#8997b8" vector-effect="non-scaling-stroke" d="
  M 433.2495 179.8067
  A 2.06 1.00 1.3 0 0 431.2127 178.7603
  A 2.06 1.00 1.3 0 0 429.1305 179.7133
  A 2.06 1.00 1.3 0 0 431.1673 180.7597
  A 2.06 1.00 1.3 0 0 433.2495 179.8067"
/>
<path stroke="#8997b8" vector-effect="non-scaling-stroke" d="
  M 440.8399 179.6837
  A 1.87 0.98 -0.5 0 0 438.9614 178.7200
  A 1.87 0.98 -0.5 0 0 437.1001 179.7163
  A 1.87 0.98 -0.5 0 0 438.9786 180.6800
  A 1.87 0.98 -0.5 0 0 440.8399 179.6837"
/>
<path stroke="#92a5cf" vector-effect="non-scaling-stroke" d="
  M 435.0772 185.7000
  A 2.07 1.04 89.8 0 0 436.1100 183.6264
  A 2.07 1.04 89.8 0 0 435.0628 181.5600
  A 2.07 1.04 89.8 0 0 434.0300 183.6336
  A 2.07 1.04 89.8 0 0 435.0772 185.7000"
/>
<path stroke="#d6e1f2" vector-effect="non-scaling-stroke" d="
  M 204.84 117.57
  A 27.40 27.40 0.0 0 0 177.44 90.17
  A 27.40 27.40 0.0 0 0 150.04 117.57
  A 27.40 27.40 0.0 0 0 177.44 144.97
  A 27.40 27.40 0.0 0 0 204.84 117.57"
/>
<path stroke="#293f77" vector-effect="non-scaling-stroke" d="
  M 338.38 149.69
  Q 338.92 149.21 339.44 149.67"
/>
<path stroke="#8b92a5" vector-effect="non-scaling-stroke" d="
  M 339.44 149.67
  L 346.19 149.82
  Q 346.66 149.83 346.75 149.37
  Q 348.58 139.35 353.72 130.70
  C 358.40 122.84 359.63 114.63 353.58 107.28
  C 339.12 89.72 311.90 107.98 323.06 128.25
  C 327.22 135.80 330.01 141.29 331.32 149.31
  Q 331.40 149.80 331.90 149.79
  L 338.38 149.69"
/>
<path stroke="#9cacd1" vector-effect="non-scaling-stroke" d="
  M 339.44 149.67
  L 339.76 129.12"
/>
<path stroke="#c8ddb9" vector-effect="non-scaling-stroke" d="
  M 339.76 129.12
  C 344.94 128.28 351.14 123.24 350.20 117.15
  A 0.60 0.59 82.6 0 0 349.54 116.64
  Q 341.67 117.65 339.08 125.07
  Q 338.90 125.58 338.51 125.21
  Q 338.15 124.88 338.28 124.28
  Q 338.39 123.83 338.16 123.43
  Q 335.06 118.17 329.05 116.73
  A 1.35 1.35 0.0 0 0 327.41 118.29
  Q 328.97 126.86 337.36 128.96
  Q 337.84 129.08 337.96 129.57
  L 338.25 130.79"
/>
<path stroke="#9cacd1" vector-effect="non-scaling-stroke" d="
  M 338.25 130.79
  L 338.38 149.69"
/>
<path stroke="#668a8a" vector-effect="non-scaling-stroke" d="
  M 339.76 129.12
  Q 339.29 128.80 338.80 128.74
  Q 338.27 128.68 338.26 129.22
  L 338.25 130.79"
/>
<path stroke="#818ba3" vector-effect="non-scaling-stroke" d="
  M 331.01 151.90
  L 329.52 154.93
  Q 329.18 155.62 329.95 155.61
  L 348.30 155.48
  Q 348.75 155.48 348.67 155.04
  C 348.27 152.66 347.16 151.36 344.55 151.21
  Q 338.27 150.86 332.33 151.05
  Q 331.41 151.08 331.01 151.90"
/>
<path stroke="#818ba3" vector-effect="non-scaling-stroke" d="
  M 348.75 157.72
  A 0.47 0.47 0.0 0 0 348.28 157.25
  L 329.80 157.25
  A 0.47 0.47 0.0 0 0 329.33 157.72
  L 329.33 160.02
  A 0.47 0.47 0.0 0 0 329.80 160.49
  L 348.28 160.49
  A 0.47 0.47 0.0 0 0 348.75 160.02
  L 348.75 157.72"
/>
<path stroke="#818ba3" vector-effect="non-scaling-stroke" d="
  M 348.03 162.16
  L 330.17 162.10
  A 0.13 0.13 0.0 0 0 330.04 162.23
  L 330.04 162.24
  A 4.76 4.61 -89.8 0 0 334.63 167.01
  L 343.53 167.05
  A 4.76 4.61 -89.8 0 0 348.16 162.30
  L 348.16 162.29
  A 0.13 0.13 0.0 0 0 348.03 162.16"
/>
<path stroke="#92a5cf" vector-effect="non-scaling-stroke" d="
  M 122.61 123.34
  A 3.31 3.31 0.0 0 0 119.30 120.03
  A 3.31 3.31 0.0 0 0 115.99 123.34
  A 3.31 3.31 0.0 0 0 119.30 126.65
  A 3.31 3.31 0.0 0 0 122.61 123.34"
/>
<path stroke="#9db6de" vector-effect="non-scaling-stroke" d="
  M 360.2573 231.3345
  A 0.96 0.96 0.0 0 0 359.2957 230.3762
  L 331.9957 230.4238
  A 0.96 0.96 0.0 0 0 331.0374 231.3855
  L 331.0827 257.3255
  A 0.96 0.96 0.0 0 0 332.0443 258.2838
  L 359.3443 258.2362
  A 0.96 0.96 0.0 0 0 360.3026 257.2745
  L 360.2573 231.3345"
/>
<path stroke="#5a73a6" vector-effect="non-scaling-stroke" d="
  M 220.22 256.84
  L 194.46 256.77
  A 0.99 0.98 15.5 0 0 193.59 257.26
  L 178.35 283.12"
/>
<path stroke="#314b8c" vector-effect="non-scaling-stroke" d="
  M 178.35 283.12
  L 174.76 288.86
  A 0.56 0.56 0.0 0 0 175.24 289.72
  L 210.41 289.31
  A 0.71 0.70 -75.3 0 0 211.00 288.96
  L 228.95 257.44
  A 0.37 0.36 -70.8 0 0 228.69 256.90
  Q 223.80 256.13 220.22 256.84"
/>
<path stroke="#6481bd" vector-effect="non-scaling-stroke" d="
  M 178.35 283.12
  L 220.22 256.84"
/>
<path stroke="#5a73a6" vector-effect="non-scaling-stroke" d="
  M 259.15 256.88
  L 234.03 256.80
  Q 233.52 256.80 233.26 257.24
  L 218.92 282.16"
/>
<path stroke="#314b8c" vector-effect="non-scaling-stroke" d="
  M 218.92 282.16
  L 215.12 288.84
  A 0.44 0.44 0.0 0 0 215.50 289.50
  L 255.19 289.50
  Q 255.70 289.50 255.95 289.07
  L 274.81 257.48
  Q 275.10 256.99 274.54 256.93
  Q 266.19 256.07 259.15 256.88"
/>
<path stroke="#6481bd" vector-effect="non-scaling-stroke" d="
  M 218.92 282.16
  L 259.15 256.88"
/>
<path stroke="#5a73a6" vector-effect="non-scaling-stroke" d="
  M 305.14 256.99
  Q 291.69 256.40 279.76 256.88
  Q 279.22 256.91 278.95 257.37
  L 263.89 282.75"
/>
<path stroke="#314b8c" vector-effect="non-scaling-stroke" d="
  M 263.89 282.75
  L 260.36 288.70
  Q 259.68 289.84 261.01 289.81
  Q 279.18 289.34 295.51 289.52
  C 296.42 289.53 297.77 290.13 298.65 289.16
  Q 299.72 288.00 301.42 284.95
  Q 309.23 270.98 317.45 257.18
  Q 317.76 256.67 317.16 256.68
  L 305.14 256.99"
/>
<path stroke="#6481bd" vector-effect="non-scaling-stroke" d="
  M 263.89 282.75
  Q 284.74 270.33 305.14 256.99"
/>
<path stroke="#5a73a6" vector-effect="non-scaling-stroke" d="
  M 284.01 292.96
  L 258.48 292.78
  Q 257.93 292.78 257.64 293.24
  Q 249.64 305.69 242.18 319.22"
/>
<path stroke="#314b8c" vector-effect="non-scaling-stroke" d="
  M 242.18 319.22
  L 238.62 325.18
  Q 238.26 325.78 238.95 325.76
  Q 258.05 325.29 277.14 325.85
  Q 277.69 325.86 277.97 325.39
  L 296.19 293.63
  A 0.53 0.53 0.0 0 0 295.73 292.83
  L 284.01 292.96"
/>
<path stroke="#6481bd" vector-effect="non-scaling-stroke" d="
  M 242.18 319.22
  L 284.01 292.96"
/>
<path stroke="#314b8c" vector-effect="non-scaling-stroke" d="
  M 156.87 319.31
  L 153.04 324.96
  A 0.48 0.48 0.0 0 0 153.44 325.71
  L 189.28 325.42
  Q 189.76 325.42 190.01 325.00
  L 208.08 293.76
  Q 208.52 293.00 207.64 293.00
  L 199.00 292.99"
/>
<path stroke="#5a73a6" vector-effect="non-scaling-stroke" d="
  M 199.00 292.99
  L 173.09 292.74
  Q 172.56 292.73 172.29 293.19
  L 156.87 319.31"
/>
<path stroke="#6481bd" vector-effect="non-scaling-stroke" d="
  M 199.00 292.99
  L 156.87 319.31"
/>
<path stroke="#314b8c" vector-effect="non-scaling-stroke" d="
  M 197.93 318.51
  L 194.22 325.04
  Q 193.95 325.50 194.49 325.50
  L 233.63 325.54
  A 0.96 0.96 0.0 0 0 234.45 325.08
  L 253.39 293.39
  Q 253.79 292.73 253.02 292.75
  L 238.47 293.02"
/>
<path stroke="#5a73a6" vector-effect="non-scaling-stroke" d="
  M 238.47 293.02
  L 213.25 292.73
  Q 212.74 292.73 212.49 293.16
  L 197.93 318.51"
/>
<path stroke="#6481bd" vector-effect="non-scaling-stroke" d="
  M 238.47 293.02
  Q 218.09 306.48 197.93 318.51"
/>
<path stroke="#5a73a6" vector-effect="non-scaling-stroke" d="
  M 480.41 256.88
  L 455.18 256.84
  Q 454.63 256.84 454.35 257.32
  L 439.36 282.64"
/>
<path stroke="#314b8c" vector-effect="non-scaling-stroke" d="
  M 439.36 282.64
  L 435.46 288.80
  Q 435.11 289.35 435.76 289.43
  Q 438.32 289.72 442.69 289.58
  Q 451.28 289.30 471.33 289.52
  C 473.06 289.54 473.66 289.87 474.68 288.18
  Q 483.97 272.76 492.68 257.03
  Q 492.95 256.52 492.38 256.49
  Q 485.42 256.11 480.41 256.88"
/>
<path stroke="#6481bd" vector-effect="non-scaling-stroke" d="
  M 439.36 282.64
  Q 460.22 270.46 480.41 256.88"
/>
<path stroke="#5a73a6" vector-effect="non-scaling-stroke" d="
  M 395.46 256.85
  L 369.79 256.79
  Q 369.27 256.79 369.01 257.24
  L 353.85 282.87"
/>
<path stroke="#314b8c" vector-effect="non-scaling-stroke" d="
  M 353.85 282.87
  L 350.26 288.61
  A 0.48 0.47 -69.4 0 0 350.58 289.33
  C 354.28 289.91 358.69 289.45 361.45 289.52
  Q 373.71 289.81 385.97 289.41
  Q 386.48 289.39 386.63 288.92
  Q 387.18 287.29 388.05 285.81
  Q 396.37 271.70 404.53 257.33
  A 0.29 0.29 0.0 0 0 404.33 256.90
  Q 399.66 256.01 395.46 256.85"
/>
<path stroke="#6481bd" vector-effect="non-scaling-stroke" d="
  M 353.85 282.87
  Q 375.08 270.25 395.46 256.85"
/>
<path stroke="#5a73a6" vector-effect="non-scaling-stroke" d="
  M 434.46 256.87
  L 409.50 256.80
  Q 408.98 256.80 408.73 257.24
  L 394.51 281.85"
/>
<path stroke="#314b8c" vector-effect="non-scaling-stroke" d="
  M 394.51 281.85
  L 390.64 288.89
  Q 390.27 289.57 391.04 289.57
  L 429.90 289.49
  A 2.17 2.16 -74.6 0 0 431.76 288.43
  L 450.34 257.31
  Q 450.60 256.88 450.10 256.84
  Q 441.52 256.14 434.46 256.87"
/>
<path stroke="#6481bd" vector-effect="non-scaling-stroke" d="
  M 394.51 281.85
  L 434.46 256.87"
/>
<path stroke="#5a73a6" vector-effect="non-scaling-stroke" d="
  M 414.29 292.85
  Q 401.91 292.97 390.25 292.67
  Q 389.37 292.65 388.23 293.10
  A 1.49 1.44 3.4 0 0 387.51 293.72
  L 373.35 318.43"
/>
<path stroke="#314b8c" vector-effect="non-scaling-stroke" d="
  M 373.35 318.43
  Q 371.22 320.78 369.30 325.18
  A 0.31 0.31 0.0 0 0 369.58 325.61
  L 409.26 325.45
  Q 409.76 325.45 410.01 325.02
  L 428.07 294.57
  Q 429.19 292.68 427.00 292.71
  L 414.29 292.85"
/>
<path stroke="#6481bd" vector-effect="non-scaling-stroke" d="
  M 373.35 318.43
  Q 394.26 305.96 414.29 292.85"
/>
<path stroke="#5a73a6" vector-effect="non-scaling-stroke" d="
  M 459.45 292.90
  L 434.29 292.66
  A 1.85 1.84 15.4 0 0 432.68 293.57
  L 417.46 319.31"
/>
<path stroke="#314b8c" vector-effect="non-scaling-stroke" d="
  M 417.46 319.31
  L 413.45 325.25
  Q 413.33 325.42 413.54 325.43
  L 452.68 325.79
  A 0.75 0.73 -74.4 0 0 453.34 325.41
  L 471.66 293.72
  A 0.70 0.70 0.0 0 0 471.04 292.66
  L 459.45 292.90"
/>
<path stroke="#6481bd" vector-effect="non-scaling-stroke" d="
  M 417.46 319.31
  L 459.45 292.90"
/>
<path stroke="#314b8c" vector-effect="non-scaling-stroke" d="
  M 332.44 319.06
  L 328.72 325.31
  A 0.33 0.32 -75.7 0 0 329.01 325.80
  Q 346.80 325.31 364.61 325.55
  Q 365.22 325.56 365.52 325.03
  L 383.28 294.08
  Q 384.08 292.69 382.47 292.74
  L 374.24 293.02"
/>
<path stroke="#5a73a6" vector-effect="non-scaling-stroke" d="
  M 374.24 293.02
  Q 361.51 292.51 349.76 292.81
  C 347.61 292.87 347.45 293.59 346.46 295.20
  Q 339.42 306.71 332.44 319.06"
/>
<path stroke="#6481bd" vector-effect="non-scaling-stroke" d="
  M 374.24 293.02
  L 332.44 319.06"
/>
</g>
<path fill="#adc3e5" d="
  M 226.05 74.23
  L 226.03 144.16
  L 225.94 161.01
  Q 225.94 161.46 226.23 161.81
  Q 226.42 162.04 226.47 162.36
  Q 226.63 162.11 226.23 162.25
  Q 226.02 162.32 226.02 162.54
  L 225.99 175.09
  L 128.99 175.18
  Q 129.12 132.15 128.75 109.00
  Q 128.74 108.16 127.70 108.16
  Q 128.66 107.30 128.70 105.25
  C 128.97 90.44 128.12 77.38 129.58 66.42
  Q 129.67 65.81 130.28 65.82
  L 141.53 66.04
  Q 142.96 66.06 142.95 64.63
  Q 142.92 53.18 143.17 41.00
  C 143.25 37.13 150.49 37.23 152.66 39.57
  Q 153.01 39.95 153.01 40.47
  Q 152.98 52.56 153.01 64.65
  A 1.31 1.31 0.0 0 0 154.32 65.95
  L 224.80 66.02
  Q 225.38 66.02 225.43 66.60
  L 226.05 74.23
  Z
  M 206.66 117.56
  A 29.20 29.20 0.0 0 0 177.46 88.36
  A 29.20 29.20 0.0 0 0 148.26 117.56
  A 29.20 29.20 0.0 0 0 177.46 146.76
  A 29.20 29.20 0.0 0 0 206.66 117.56
  Z"
/>
<path fill="#adc3e5" d="
  M 465.04 53.25
  Q 464.57 58.35 465.54 63.34
  C 466.99 70.82 465.94 78.84 467.66 86.29
  Q 468.15 104.13 465.80 121.91
  Q 465.27 125.89 463.83 129.95
  A 0.96 0.96 0.0 0 1 462.24 130.30
  C 459.79 127.80 459.29 121.16 458.91 117.67
  C 456.55 96.41 456.63 74.59 460.16 53.44
  Q 460.65 50.48 462.35 48.68
  Q 462.78 48.22 463.17 48.71
  Q 464.81 50.71 465.04 53.25
  Z"
/>
<path fill="#5673b7" d="
  M 465.04 53.25
  Q 468.35 69.49 467.66 86.29
  C 465.94 78.84 466.99 70.82 465.54 63.34
  Q 464.57 58.35 465.04 53.25
  Z"
/>
<path fill="#eaf1fb" d="
  M 304.48 62.47
  C 316.07 49.30 331.12 61.25 342.11 67.69
  Q 344.23 68.93 345.48 71.13
  A 1.69 1.69 0.0 0 1 344.07 73.65
  C 322.95 74.41 301.67 74.02 280.50 74.03
  Q 278.13 74.03 275.93 73.32
  C 271.09 71.73 269.81 66.56 275.28 64.54
  C 281.45 62.25 289.03 65.72 295.02 67.40
  C 299.44 68.64 301.63 65.70 304.48 62.47
  Z"
/>
<path fill="#eaf1fb" d="
  M 226.05 74.23
  Q 241.45 75.13 254.18 78.33
  C 274.16 83.36 294.24 98.10 308.03 113.02
  Q 310.05 115.65 315.27 116.24
  C 316.04 116.33 316.47 116.04 317.01 115.56
  Q 317.74 115.22 318.49 115.20
  Q 318.64 115.20 318.77 115.26
  Q 319.11 115.40 319.07 115.76
  C 318.42 121.68 319.46 125.45 322.75 130.86
  Q 327.72 139.05 329.74 148.49
  Q 329.90 149.26 330.32 149.88
  Q 330.57 150.26 330.30 150.62
  C 326.69 155.48 327.39 163.48 331.48 167.83
  Q 331.88 168.25 332.46 168.25
  L 345.29 168.25
  A 1.65 1.59 -61.5 0 0 346.21 167.96
  C 350.59 164.87 352.00 154.26 347.73 150.66
  Q 347.32 150.31 347.70 149.93
  L 348.17 149.45
  Q 348.55 149.07 348.62 148.54
  Q 349.19 144.01 351.11 140.58
  Q 381.35 149.14 415.25 150.51
  Q 417.25 150.59 425.01 152.07
  Q 424.73 152.32 424.74 152.69
  Q 424.74 153.15 424.35 153.40
  C 419.18 156.80 384.20 181.39 385.25 186.50
  A 1.99 1.99 0.0 0 0 387.77 188.00
  Q 394.68 185.90 400.17 182.89
  Q 422.72 170.52 442.44 154.00
  Q 442.68 153.80 442.99 153.77
  L 443.43 153.73
  C 445.86 156.40 452.12 157.44 456.04 158.07
  L 452.03 253.20
  L 429.36 253.24
  L 429.24 208.33
  Q 429.24 207.78 428.70 207.79
  L 288.73 207.81
  C 283.10 175.34 257.56 152.21 226.03 144.16
  L 226.05 74.23
  Z
  M 434.9693 177.8075
  A 1.99 0.95 92.9 0 0 436.0188 175.8681
  A 1.99 0.95 92.9 0 0 435.1707 173.8325
  A 1.99 0.95 92.9 0 0 434.1212 175.7719
  A 1.99 0.95 92.9 0 0 434.9693 177.8075
  Z
  M 433.2495 179.8067
  A 2.06 1.00 1.3 0 0 431.2127 178.7603
  A 2.06 1.00 1.3 0 0 429.1305 179.7133
  A 2.06 1.00 1.3 0 0 431.1673 180.7597
  A 2.06 1.00 1.3 0 0 433.2495 179.8067
  Z
  M 440.8399 179.6837
  A 1.87 0.98 -0.5 0 0 438.9614 178.7200
  A 1.87 0.98 -0.5 0 0 437.1001 179.7163
  A 1.87 0.98 -0.5 0 0 438.9786 180.6800
  A 1.87 0.98 -0.5 0 0 440.8399 179.6837
  Z
  M 435.0772 185.7000
  A 2.07 1.04 89.8 0 0 436.1100 183.6264
  A 2.07 1.04 89.8 0 0 435.0628 181.5600
  A 2.07 1.04 89.8 0 0 434.0300 183.6336
  A 2.07 1.04 89.8 0 0 435.0772 185.7000
  Z"
/>
<path fill="#eaf1fb" d="
  M 418.43 93.46
  C 421.43 94.29 423.33 90.99 424.81 88.98
  C 431.52 79.89 441.51 90.79 446.57 95.19
  Q 448.58 96.94 447.09 98.59
  A 1.64 1.64 0.0 0 1 445.92 99.13
  C 439.75 99.32 408.85 101.00 405.75 98.02
  C 403.66 96.00 404.38 92.76 406.88 91.40
  C 409.70 89.86 415.40 92.63 418.43 93.46
  Z"
/>
<path fill="#fefeff" d="
  M 206.66 117.56
  A 29.20 29.20 0.0 0 1 177.46 146.76
  A 29.20 29.20 0.0 0 1 148.26 117.56
  A 29.20 29.20 0.0 0 1 177.46 88.36
  A 29.20 29.20 0.0 0 1 206.66 117.56
  Z
  M 204.84 117.57
  A 27.40 27.40 0.0 0 0 177.44 90.17
  A 27.40 27.40 0.0 0 0 150.04 117.57
  A 27.40 27.40 0.0 0 0 177.44 144.97
  A 27.40 27.40 0.0 0 0 204.84 117.57
  Z"
/>
<rect fill="#222129" x="-0.62" y="-3.98" transform="translate(339.13,92.25) rotate(-0.3)" width="1.24" height="7.96" rx="0.59"/>
<path fill="#adc3e5" d="
  M 204.84 117.57
  A 27.40 27.40 0.0 0 1 177.44 144.97
  A 27.40 27.40 0.0 0 1 150.04 117.57
  A 27.40 27.40 0.0 0 1 177.44 90.17
  A 27.40 27.40 0.0 0 1 204.84 117.57
  Z
  M 181.35 114.32
  L 187.76 99.32
  A 0.88 0.87 -76.4 0 0 187.02 98.10
  C 184.14 97.91 173.46 96.40 172.47 99.74
  Q 169.55 109.51 166.68 120.45
  Q 166.27 122.02 167.89 121.99
  L 175.03 121.89
  A 0.78 0.78 0.0 0 1 175.79 122.89
  Q 174.14 128.71 173.97 134.77
  Q 173.95 135.38 174.52 135.19
  C 180.04 133.31 188.39 121.62 191.50 116.89
  A 1.19 1.19 0.0 0 0 190.56 115.05
  L 181.57 114.67
  A 0.25 0.25 0.0 0 1 181.35 114.32
  Z"
/>
<ellipse fill="#222129" cx="0.00" cy="0.00" transform="translate(322.34,97.71) rotate(45.5)" rx="4.33" ry="0.71"/>
<ellipse fill="#222129" cx="0.00" cy="0.00" transform="translate(355.54,97.87) rotate(136.0)" rx="4.16" ry="0.65"/>
<path fill="#18254b" d="
  M 351.11 140.58
  Q 349.19 144.01 348.62 148.54
  Q 348.55 149.07 348.17 149.45
  L 347.70 149.93
  Q 347.32 150.31 347.73 150.66
  C 352.00 154.26 350.59 164.87 346.21 167.96
  A 1.65 1.59 -61.5 0 1 345.29 168.25
  L 332.46 168.25
  Q 331.88 168.25 331.48 167.83
  C 327.39 163.48 326.69 155.48 330.30 150.62
  Q 330.57 150.26 330.32 149.88
  Q 329.90 149.26 329.74 148.49
  Q 327.72 139.05 322.75 130.86
  C 319.46 125.45 318.42 121.68 319.07 115.76
  Q 319.11 115.40 318.77 115.26
  Q 318.64 115.20 318.49 115.20
  Q 319.15 114.79 319.31 114.24
  Q 322.76 102.24 334.07 99.26
  C 348.76 95.38 361.42 108.52 358.43 122.87
  C 357.34 128.13 353.18 134.57 351.11 140.58
  Z
  M 338.38 149.69
  Q 338.92 149.21 339.44 149.67
  L 346.19 149.82
  Q 346.66 149.83 346.75 149.37
  Q 348.58 139.35 353.72 130.70
  C 358.40 122.84 359.63 114.63 353.58 107.28
  C 339.12 89.72 311.90 107.98 323.06 128.25
  C 327.22 135.80 330.01 141.29 331.32 149.31
  Q 331.40 149.80 331.90 149.79
  L 338.38 149.69
  Z
  M 331.01 151.90
  L 329.52 154.93
  Q 329.18 155.62 329.95 155.61
  L 348.30 155.48
  Q 348.75 155.48 348.67 155.04
  C 348.27 152.66 347.16 151.36 344.55 151.21
  Q 338.27 150.86 332.33 151.05
  Q 331.41 151.08 331.01 151.90
  Z
  M 348.75 157.72
  A 0.47 0.47 0.0 0 0 348.28 157.25
  L 329.80 157.25
  A 0.47 0.47 0.0 0 0 329.33 157.72
  L 329.33 160.02
  A 0.47 0.47 0.0 0 0 329.80 160.49
  L 348.28 160.49
  A 0.47 0.47 0.0 0 0 348.75 160.02
  L 348.75 157.72
  Z
  M 348.03 162.16
  L 330.17 162.10
  A 0.13 0.13 0.0 0 0 330.04 162.23
  L 330.04 162.24
  A 4.76 4.61 -89.8 0 0 334.63 167.01
  L 343.53 167.05
  A 4.76 4.61 -89.8 0 0 348.16 162.30
  L 348.16 162.29
  A 0.13 0.13 0.0 0 0 348.03 162.16
  Z"
/>
<path fill="#fefeff" d="
  M 339.44 149.67
  L 339.76 129.12
  C 344.94 128.28 351.14 123.24 350.20 117.15
  A 0.60 0.59 82.6 0 0 349.54 116.64
  Q 341.67 117.65 339.08 125.07
  Q 338.90 125.58 338.51 125.21
  Q 338.15 124.88 338.28 124.28
  Q 338.39 123.83 338.16 123.43
  Q 335.06 118.17 329.05 116.73
  A 1.35 1.35 0.0 0 0 327.41 118.29
  Q 328.97 126.86 337.36 128.96
  Q 337.84 129.08 337.96 129.57
  L 338.25 130.79
  L 338.38 149.69
  L 331.90 149.79
  Q 331.40 149.80 331.32 149.31
  C 330.01 141.29 327.22 135.80 323.06 128.25
  C 311.90 107.98 339.12 89.72 353.58 107.28
  C 359.63 114.63 358.40 122.84 353.72 130.70
  Q 348.58 139.35 346.75 149.37
  Q 346.66 149.83 346.19 149.82
  L 339.44 149.67
  Z"
/>
<path fill="#222129" d="
  M 97.12 106.41
  A 0.28 0.28 0.0 0 1 96.84 106.13
  L 96.85 104.48
  A 1.95 1.24 -89.7 0 1 98.10 102.54
  L 98.30 102.54
  A 1.95 1.24 -89.7 0 1 99.53 104.50
  L 99.52 106.15
  A 0.28 0.28 0.0 0 1 99.24 106.43
  L 97.12 106.41
  Z"
/>
<path fill="#222129" d="
  M 96.17 106.86
  A 0.22 0.22 0.0 0 1 96.41 107.06
  L 96.45 107.54
  A 1.80 1.39 84.6 0 1 95.24 109.46
  L 94.58 109.53
  A 1.80 1.39 84.6 0 1 93.03 107.86
  L 92.98 107.39
  A 0.22 0.22 0.0 0 1 93.18 107.15
  L 96.17 106.86
  Z"
/>
<path fill="#222129" d="
  M 100.86 107.00
  L 102.76 107.00
  A 1.20 1.19 42.9 0 1 102.85 109.39
  L 100.32 109.56
  Q 99.78 109.60 99.57 110.10
  Q 98.99 111.48 99.31 113.01
  A 0.97 0.97 0.0 0 1 97.42 113.46
  Q 96.95 111.73 97.51 110.14
  Q 97.66 109.69 98.13 109.74
  Q 100.32 109.94 100.29 107.58
  Q 100.28 107.00 100.86 107.00
  Z"
/>
<path fill="#eaf1fb" d="
  M 127.70 108.16
  Q 128.74 108.16 128.75 109.00
  Q 129.12 132.15 128.99 175.18
  L 129.00 180.53
  Q 128.97 219.85 128.96 259.25
  Q 128.96 260.61 128.62 261.65
  C 126.27 259.49 104.34 242.89 104.58 248.50
  Q 104.60 249.04 104.12 249.27
  L 102.95 249.83
  C 90.86 242.17 87.06 211.41 86.54 198.24
  C 85.51 172.22 95.50 141.71 113.79 122.87
  Q 115.67 127.45 117.59 127.93
  C 126.49 130.13 126.57 116.36 116.84 118.96
  Q 121.82 112.98 127.70 108.16
  Z"
/>
<path fill="#222129" d="
  M 308.03 113.02
  Q 312.64 113.63 317.01 115.56
  C 316.47 116.04 316.04 116.33 315.27 116.24
  Q 310.05 115.65 308.03 113.02
  Z"
/>
<ellipse fill="#222129" cx="0.00" cy="0.00" transform="translate(365.60,114.59) rotate(-15.2)" rx="3.90" ry="0.71"/>
<path fill="#eaf1fb" d="
  M 519.19 122.31
  C 530.81 108.61 547.96 118.64 559.49 126.07
  C 561.58 127.42 562.80 129.51 561.42 131.71
  A 1.05 1.04 15.4 0 1 560.55 132.20
  Q 527.50 132.38 494.51 132.10
  C 489.33 132.05 484.93 125.29 491.34 123.02
  Q 498.83 120.36 506.28 124.39
  Q 513.91 128.52 519.19 122.31
  Z"
/>
<path fill="#91bb72" d="
  M 339.76 129.12
  Q 339.29 128.80 338.80 128.74
  Q 338.27 128.68 338.26 129.22
  L 338.25 130.79
  L 337.96 129.57
  Q 337.84 129.08 337.36 128.96
  Q 328.97 126.86 327.41 118.29
  A 1.35 1.35 0.0 0 1 329.05 116.73
  Q 335.06 118.17 338.16 123.43
  Q 338.39 123.83 338.28 124.28
  Q 338.15 124.88 338.51 125.21
  Q 338.90 125.58 339.08 125.07
  Q 341.67 117.65 349.54 116.64
  A 0.60 0.59 82.6 0 1 350.20 117.15
  C 351.14 123.24 344.94 128.28 339.76 129.12
  Z"
/>
<path fill="#3a59a2" d="
  M 113.79 122.87
  L 116.84 118.96
  C 126.57 116.36 126.49 130.13 117.59 127.93
  Q 115.67 127.45 113.79 122.87
  Z
  M 122.61 123.34
  A 3.31 3.31 0.0 0 0 119.30 120.03
  A 3.31 3.31 0.0 0 0 115.99 123.34
  A 3.31 3.31 0.0 0 0 119.30 126.65
  A 3.31 3.31 0.0 0 0 122.61 123.34
  Z"
/>
<circle fill="#eaf1fb" cx="119.30" cy="123.34" r="3.31"/>
<path fill="#18254b" d="
  M 86.83 127.27
  L 89.68 127.78
  A 1.38 1.36 -55.0 0 0 90.62 127.61
  C 94.52 125.30 91.74 122.22 88.93 121.10
  C 98.60 121.00 90.45 133.04 86.83 127.27
  Z"
/>
<path fill="#3a59a2" d="
  M 88.93 121.10
  C 91.74 122.22 94.52 125.30 90.62 127.61
  A 1.38 1.36 -55.0 0 1 89.68 127.78
  L 86.83 127.27
  Q 84.37 122.84 88.93 121.10
  Z"
/>
<path fill="#3a59a2" d="
  M 339.76 129.12
  L 339.44 149.67
  Q 338.92 149.21 338.38 149.69
  L 338.25 130.79
  L 338.26 129.22
  Q 338.27 128.68 338.80 128.74
  Q 339.29 128.80 339.76 129.12
  Z"
/>
<circle fill="#f9a66a" cx="462.37" cy="138.92" r="6.46"/>
<path fill="#adc3e5" d="
  M 443.43 153.73
  L 442.99 153.77
  Q 442.68 153.80 442.44 154.00
  Q 422.72 170.52 400.17 182.89
  Q 394.68 185.90 387.77 188.00
  A 1.99 1.99 0.0 0 1 385.25 186.50
  C 384.20 181.39 419.18 156.80 424.35 153.40
  Q 424.74 153.15 424.74 152.69
  Q 424.73 152.32 425.01 152.07
  Q 426.53 151.94 427.97 151.19
  C 435.49 147.28 444.79 140.65 453.18 139.59
  A 0.82 0.82 0.0 0 1 453.97 140.84
  Q 450.03 147.01 444.17 152.15
  Q 443.09 153.10 443.43 153.73
  Z"
/>
<path fill="#adc3e5" d="
  M 520.44 168.31
  Q 520.77 169.64 522.33 170.36
  Q 522.78 170.57 523.10 170.96
  Q 525.58 173.93 529.19 176.34
  Q 529.42 177.10 528.78 177.81
  Q 523.24 179.45 519.84 179.12
  Q 494.43 164.70 474.20 145.09
  C 472.95 143.88 472.19 142.35 471.50 140.80
  A 0.56 0.56 0.0 0 1 472.13 140.02
  C 475.24 140.68 478.09 141.61 481.06 143.12
  Q 502.02 153.74 520.44 168.31
  Z"
/>
<path fill="#5673b7" d="
  M 226.03 144.16
  C 257.56 152.21 283.10 175.34 288.73 207.81
  L 270.84 207.84
  C 266.15 185.05 247.57 169.86 226.47 162.36
  Q 226.42 162.04 226.23 161.81
  Q 225.94 161.46 225.94 161.01
  L 226.03 144.16
  Z"
/>
<path fill="#eaf1fb" d="
  M 331.01 151.90
  Q 331.41 151.08 332.33 151.05
  Q 338.27 150.86 344.55 151.21
  C 347.16 151.36 348.27 152.66 348.67 155.04
  Q 348.75 155.48 348.30 155.48
  L 329.95 155.61
  Q 329.18 155.62 329.52 154.93
  L 331.01 151.90
  Z"
/>
<path fill="#adc3e5" d="
  M 469.36 163.51
  Q 468.15 167.13 468.24 168.49
  C 468.96 179.10 468.63 191.73 468.83 200.25
  C 469.24 217.70 469.68 235.35 469.57 252.79
  Q 469.57 253.23 469.13 253.25
  L 465.72 253.46
  L 452.03 253.20
  L 456.04 158.07
  Q 456.17 155.47 458.49 152.96
  C 461.81 149.38 467.10 150.51 468.11 155.54
  Q 468.90 159.46 469.36 163.51
  Z"
/>
<path fill="#f9a66a" d="
  M 538.63 154.74
  Q 533.16 157.24 529.60 161.10
  Q 529.24 161.49 529.70 161.75
  L 535.51 164.99
  Q 536.39 167.85 538.03 166.65
  L 540.23 166.80
  Q 537.87 170.52 538.25 173.44
  L 539.33 178.99
  C 536.77 184.00 529.95 184.04 528.78 177.81
  Q 529.42 177.10 529.19 176.34
  Q 526.45 173.23 526.19 171.55
  Q 526.10 165.28 525.10 160.28
  A 1.28 1.27 55.5 0 1 525.27 159.35
  Q 529.68 151.99 538.63 154.74
  Z"
/>
<path fill="#fecc6c" d="
  M 538.63 154.74
  C 543.25 156.26 544.94 162.78 542.83 167.10
  Q 541.07 166.62 540.23 166.80
  L 538.03 166.65
  Q 537.91 165.45 535.51 164.99
  L 529.70 161.75
  Q 529.24 161.49 529.60 161.10
  Q 533.16 157.24 538.63 154.74
  Z"
/>
<rect fill="#eaf1fb" x="329.33" y="157.25" width="19.42" height="3.24" rx="0.47"/>
<path fill="#eaf1fb" d="
  M 348.03 162.16
  A 0.13 0.13 0.0 0 1 348.16 162.29
  L 348.16 162.30
  A 4.76 4.61 -89.8 0 1 343.53 167.05
  L 334.63 167.01
  A 4.76 4.61 -89.8 0 1 330.04 162.24
  L 330.04 162.23
  A 0.13 0.13 0.0 0 1 330.17 162.10
  L 348.03 162.16
  Z"
/>
<path fill="#eaf1fb" d="
  M 226.47 162.36
  C 247.57 169.86 266.15 185.05 270.84 207.84
  L 226.05 207.78
  L 226.01 180.60
  L 225.99 175.09
  L 226.02 162.54
  Q 226.02 162.32 226.23 162.25
  Q 226.63 162.11 226.47 162.36
  Z"
/>
<path fill="#8da8d7" d="
  M 469.36 163.51
  Q 469.49 165.27 470.36 166.62
  Q 469.41 167.20 469.50 169.25
  Q 471.36 211.22 473.35 253.22
  L 465.72 253.46
  L 469.13 253.25
  Q 469.57 253.23 469.57 252.79
  C 469.68 235.35 469.24 217.70 468.83 200.25
  C 468.63 191.73 468.96 179.10 468.24 168.49
  Q 468.15 167.13 469.36 163.51
  Z"
/>
<path fill="#222129" d="
  M 535.51 164.99
  Q 537.91 165.45 538.03 166.65
  Q 536.39 167.85 535.51 164.99
  Z"
/>
<path fill="#eaf1fb" d="
  M 470.36 166.62
  Q 487.39 177.97 499.96 195.24
  Q 497.25 198.19 494.20 202.07
  C 491.13 205.97 492.00 209.19 495.26 212.50
  Q 503.30 220.67 511.13 225.21
  Q 512.14 225.08 511.83 225.66
  Q 509.80 229.52 510.70 233.84
  C 510.67 238.37 511.36 243.27 511.05 247.37
  C 510.52 254.38 509.38 260.33 505.98 266.75
  Q 499.43 279.13 491.21 290.27
  Q 486.99 293.36 483.60 297.43
  Q 483.52 297.52 483.40 297.51
  Q 483.24 297.50 483.08 297.50
  Q 482.77 297.49 482.55 297.72
  L 477.33 303.33
  Q 476.49 303.27 475.79 303.54
  Q 475.29 303.72 475.25 303.19
  L 474.66 295.43
  L 498.67 253.87
  A 0.37 0.37 0.0 0 0 498.35 253.32
  L 473.35 253.22
  Q 471.36 211.22 469.50 169.25
  Q 469.41 167.20 470.36 166.62
  Z"
/>
<path fill="#222129" d="
  M 540.23 166.80
  Q 541.07 166.62 542.83 167.10
  L 538.25 173.44
  Q 537.87 170.52 540.23 166.80
  Z"
/>
<path fill="#5673b7" d="
  M 520.44 168.31
  Q 523.66 170.86 526.19 171.55
  Q 526.45 173.23 529.19 176.34
  Q 525.58 173.93 523.10 170.96
  Q 522.78 170.57 522.33 170.36
  Q 520.77 169.64 520.44 168.31
  Z"
/>
<ellipse fill="#273d75" cx="0.00" cy="0.00" transform="translate(435.07,175.82) rotate(92.9)" rx="1.99" ry="0.95"/>
<path fill="#8da8d7" d="
  M 128.99 175.18
  L 225.99 175.09
  L 226.01 180.60
  C 193.67 180.36 161.39 180.17 129.00 180.53
  L 128.99 175.18
  Z"
/>
<path fill="#2a4996" d="
  M 528.78 177.81
  C 529.95 184.04 536.77 184.00 539.33 178.99
  C 553.69 182.63 566.17 192.49 573.49 203.79
  C 578.33 211.27 565.32 221.65 559.75 226.05
  Q 557.66 226.33 556.57 224.21
  C 556.18 223.45 563.78 212.08 564.66 210.72
  A 1.37 1.37 0.0 0 0 564.18 208.77
  L 554.15 203.17
  A 0.97 0.96 -76.5 0 0 552.72 204.05
  L 553.09 214.99
  C 552.51 217.72 552.28 219.44 550.97 222.38
  C 549.50 225.68 549.14 228.56 547.10 232.60
  C 544.47 237.81 538.53 241.43 533.62 244.40
  C 529.23 244.12 519.99 244.06 515.29 240.59
  Q 513.34 237.49 514.22 231.93
  Q 514.29 231.48 513.87 231.31
  Q 513.67 231.22 513.48 231.23
  Q 516.08 227.43 514.65 223.59
  L 514.75 222.29
  C 515.33 221.90 515.94 205.82 516.07 203.82
  A 0.89 0.89 0.0 0 0 514.95 202.90
  Q 509.04 204.47 503.91 207.79
  A 0.65 0.64 -32.7 0 0 503.71 208.67
  Q 508.24 216.01 514.25 221.99
  L 513.74 222.12
  Q 513.20 222.26 513.24 222.82
  L 513.28 223.28
  Q 512.68 224.68 511.13 225.21
  Q 503.30 220.67 495.26 212.50
  C 492.00 209.19 491.13 205.97 494.20 202.07
  Q 497.25 198.19 499.96 195.24
  C 506.65 189.40 512.69 184.17 519.84 179.12
  Q 523.24 179.45 528.78 177.81
  Z"
/>
<ellipse fill="#273d75" cx="0.00" cy="0.00" transform="translate(431.19,179.76) rotate(1.3)" rx="2.06" ry="1.00"/>
<ellipse fill="#273d75" cx="0.00" cy="0.00" transform="translate(438.97,179.70) rotate(-0.5)" rx="1.87" ry="0.98"/>
<path fill="#adc3e5" d="
  M 226.01 180.60
  L 226.05 207.78
  L 225.97 253.44
  L 192.74 253.25
  A 1.49 1.49 0.0 0 0 191.44 253.98
  L 147.06 328.32
  A 0.61 0.61 0.0 0 0 147.58 329.25
  L 226.20 329.24
  L 225.94 349.38
  Q 225.93 349.92 226.48 349.98
  Q 234.33 350.85 242.21 349.75
  Q 242.12 351.40 243.50 351.42
  Q 261.21 351.66 278.92 351.19
  Q 279.49 351.18 279.52 350.60
  L 279.54 350.23
  L 417.76 350.30
  Q 418.04 351.48 419.76 351.49
  Q 436.94 351.54 454.19 351.48
  Q 454.82 351.48 454.78 350.85
  L 454.52 346.70
  Q 454.48 346.00 453.77 346.00
  L 444.25 346.00
  A 0.91 0.90 68.8 0 1 443.58 345.70
  L 443.32 345.42
  L 442.01 340.86
  Q 443.86 343.34 447.88 342.17
  A 0.67 0.67 0.0 0 0 448.36 341.54
  L 448.57 329.26
  L 454.00 329.26
  Q 454.96 329.26 455.44 328.43
  L 470.69 302.29
  Q 470.80 308.04 471.09 313.31
  C 471.73 325.26 471.59 337.28 471.82 349.26
  Q 471.83 349.78 472.33 349.92
  Q 474.75 350.60 477.16 350.11
  C 484.42 350.38 491.58 350.02 498.74 350.12
  Q 502.25 350.17 504.18 347.47
  Q 504.47 347.06 504.98 347.01
  L 506.38 346.87
  Q 506.49 347.17 507.28 347.59
  C 505.72 355.82 516.62 351.22 519.54 348.33
  Q 523.09 345.33 524.23 345.35
  L 539.29 347.12
  L 539.28 351.51
  Q 526.36 353.09 513.76 353.87
  Q 512.51 353.95 508.77 353.61
  C 506.47 353.40 503.80 353.91 501.99 353.99
  C 468.91 355.34 435.94 355.78 402.81 356.11
  C 304.36 357.08 211.76 356.62 120.49 352.90
  C 106.10 352.32 93.90 351.22 80.64 349.30
  A 0.18 0.18 0.0 0 1 80.63 348.94
  Q 93.21 346.12 106.25 346.52
  Q 107.29 346.55 107.59 345.52
  Q 107.93 344.62 108.48 344.81
  Q 118.22 348.10 128.45 348.90
  Q 128.95 348.94 128.95 348.44
  L 128.62 261.65
  Q 128.96 260.61 128.96 259.25
  Q 128.97 219.85 129.00 180.53
  C 161.39 180.17 193.67 180.36 226.01 180.60
  Z"
/>
<ellipse fill="#3a59a2" cx="0.00" cy="0.00" transform="translate(435.07,183.63) rotate(89.8)" rx="2.07" ry="1.04"/>
<path fill="#8da8d7" d="
  M 226.05 207.78
  L 270.84 207.84
  L 288.73 207.81
  L 428.70 207.79
  Q 429.24 207.78 429.24 208.33
  L 429.36 253.24
  L 397.74 253.49
  L 400.57 253.25
  Q 401.04 253.21 401.04 252.74
  L 400.95 231.75
  Q 400.94 230.31 399.50 230.32
  L 372.69 230.57
  A 0.76 0.76 0.0 0 0 371.94 231.31
  L 371.56 253.31
  L 367.48 253.56
  Q 366.95 253.59 366.68 254.05
  L 360.02 265.30
  L 331.63 265.09
  Q 331.07 265.09 331.07 265.65
  L 331.07 291.80
  A 1.32 1.32 0.0 0 0 332.53 293.11
  Q 337.44 292.57 342.97 293.75
  L 339.24 300.24
  Q 335.86 299.30 332.82 299.54
  A 1.59 1.59 0.0 0 0 331.36 301.14
  L 331.45 310.43
  Q 331.46 310.94 331.97 310.99
  L 332.80 311.06
  L 322.54 328.39
  A 0.57 0.57 0.0 0 0 323.03 329.25
  L 424.00 329.25
  A 0.90 0.86 -19.7 0 1 424.67 329.55
  L 424.87 329.78
  L 429.15 345.97
  L 418.77 346.12
  Q 418.20 346.13 418.04 346.68
  Q 417.46 348.70 417.76 350.30
  L 279.54 350.23
  L 279.18 346.72
  A 0.72 0.71 87.4 0 0 278.47 346.07
  L 269.06 345.97
  A 1.25 1.24 68.6 0 1 268.18 345.58
  Q 267.75 345.11 267.56 344.50
  L 263.49 329.28
  L 279.00 329.23
  Q 279.54 329.23 279.81 328.77
  L 290.00 311.40
  Q 290.85 319.23 290.62 327.12
  Q 290.60 327.75 291.24 327.75
  L 317.88 327.75
  A 2.13 2.12 90.0 0 0 320.00 325.62
  L 320.00 300.00
  Q 320.00 299.48 319.47 299.48
  L 296.89 299.48
  L 300.78 292.77
  L 319.06 292.91
  Q 319.58 292.92 319.57 292.40
  Q 319.48 279.70 319.45 267.21
  Q 319.45 264.47 317.22 264.41
  L 323.21 254.10
  A 0.42 0.41 -67.5 0 0 322.96 253.49
  Q 321.00 252.96 319.41 253.46
  L 319.46 230.98
  Q 319.46 230.50 318.98 230.50
  L 291.03 230.50
  A 0.66 0.66 0.0 0 0 290.37 231.18
  Q 290.77 242.63 290.14 253.19
  L 278.93 253.23
  L 278.74 230.92
  Q 278.73 230.49 278.29 230.48
  L 249.94 230.46
  A 0.25 0.24 -90.0 0 0 249.70 230.71
  L 249.51 253.20
  L 225.97 253.44
  L 226.05 207.78
  Z
  M 360.2573 231.3345
  A 0.96 0.96 0.0 0 0 359.2957 230.3762
  L 331.9957 230.4238
  A 0.96 0.96 0.0 0 0 331.0374 231.3855
  L 331.0827 257.3255
  A 0.96 0.96 0.0 0 0 332.0443 258.2838
  L 359.3443 258.2362
  A 0.96 0.96 0.0 0 0 360.3026 257.2745
  L 360.2573 231.3345
  Z"
/>
<path fill="#273d75" d="
  M 553.09 214.99
  Q 553.92 219.27 553.65 223.51
  Q 552.78 228.45 554.31 233.47
  Q 555.64 237.83 553.14 241.33
  Q 552.84 241.74 552.36 241.88
  Q 543.30 244.55 533.62 244.40
  C 538.53 241.43 544.47 237.81 547.10 232.60
  C 549.14 228.56 549.50 225.68 550.97 222.38
  C 552.28 219.44 552.51 217.72 553.09 214.99
  Z"
/>
<path fill="#5673b7" d="
  M 514.25 221.99
  Q 514.20 222.27 514.75 222.29
  L 514.65 223.59
  Q 514.54 222.63 513.28 223.28
  L 513.24 222.82
  Q 513.20 222.26 513.74 222.12
  L 514.25 221.99
  Z"
/>
<path fill="#f9a66a" d="
  M 514.65 223.59
  Q 516.08 227.43 513.48 231.23
  Q 511.72 231.83 510.70 233.84
  Q 509.80 229.52 511.83 225.66
  Q 512.14 225.08 511.13 225.21
  Q 512.68 224.68 513.28 223.28
  Q 514.54 222.63 514.65 223.59
  Z"
/>
<path fill="#222129" d="
  M 553.65 223.51
  Q 553.96 224.40 555.28 224.65
  Q 555.09 224.71 554.92 224.75
  Q 554.56 224.83 554.53 225.20
  Q 554.28 229.14 555.24 233.00
  Q 557.03 237.83 554.31 241.49
  A 1.07 1.05 -35.5 0 0 554.15 242.40
  Q 554.90 244.91 554.32 247.43
  Q 551.99 278.41 551.69 309.47
  C 551.61 317.40 550.65 324.98 549.81 332.74
  Q 549.43 336.36 547.51 339.12
  Q 543.34 337.70 542.55 341.38
  Q 542.44 341.87 542.04 342.17
  L 540.61 343.23
  Q 542.53 339.89 540.63 337.36
  Q 540.31 336.93 540.27 336.40
  C 538.38 313.14 538.30 289.59 533.78 266.66
  A 0.60 0.60 0.0 0 0 532.77 266.35
  L 532.45 266.68
  Q 532.12 267.00 531.99 267.45
  Q 529.10 277.59 525.82 287.65
  C 522.77 297.01 523.36 306.84 523.45 317.43
  Q 523.52 326.12 521.48 337.42
  Q 521.38 337.94 521.75 338.32
  Q 524.48 341.14 524.23 345.35
  Q 523.09 345.33 519.54 348.33
  L 522.76 344.65
  A 1.37 1.33 66.5 0 0 523.10 343.75
  Q 523.12 340.96 520.72 338.80
  Q 522.01 336.20 514.52 338.21
  Q 514.86 338.16 515.20 338.11
  C 514.63 337.02 514.04 336.10 513.88 334.88
  C 510.41 307.86 509.63 285.16 513.38 258.79
  C 514.32 252.21 514.82 246.73 515.29 240.59
  C 519.99 244.06 529.23 244.12 533.62 244.40
  Q 543.30 244.55 552.36 241.88
  Q 552.84 241.74 553.14 241.33
  Q 555.64 237.83 554.31 233.47
  Q 552.78 228.45 553.65 223.51
  Z"
/>
<path fill="#222129" d="
  M 556.57 224.21
  Q 557.66 226.33 559.75 226.05
  Q 559.25 226.69 559.63 227.32
  Q 557.04 227.04 555.77 224.75
  Q 556.58 224.91 556.57 224.21
  Z"
/>
<path fill="#f9a66a" d="
  M 555.28 224.65
  Q 555.50 224.82 555.77 224.75
  Q 557.04 227.04 559.63 227.32
  L 560.44 235.82
  C 557.59 236.24 558.04 232.79 555.24 233.00
  Q 554.28 229.14 554.53 225.20
  Q 554.56 224.83 554.92 224.75
  Q 555.09 224.71 555.28 224.65
  Z"
/>
<path fill="#adc3e5" d="
  M 278.93 253.23
  L 249.51 253.20
  L 249.70 230.71
  A 0.25 0.24 -90.0 0 1 249.94 230.46
  L 278.29 230.48
  Q 278.73 230.49 278.74 230.92
  L 278.93 253.23
  Z"
/>
<rect fill="#adc3e5" x="-14.61" y="-13.93" transform="translate(345.67,244.33) rotate(-0.1)" width="29.22" height="27.86" rx="0.96"/>
<path fill="#adc3e5" d="
  M 397.74 253.49
  L 371.56 253.31
  L 371.94 231.31
  A 0.76 0.76 0.0 0 1 372.69 230.57
  L 399.50 230.32
  Q 400.94 230.31 400.95 231.75
  L 401.04 252.74
  Q 401.04 253.21 400.57 253.25
  L 397.74 253.49
  Z"
/>
<path fill="#adc3e5" d="
  M 319.41 253.46
  L 290.14 253.19
  Q 290.77 242.63 290.37 231.18
  A 0.66 0.66 0.0 0 1 291.03 230.50
  L 318.98 230.50
  Q 319.46 230.50 319.46 230.98
  L 319.41 253.46
  Z"
/>
<path fill="#eaf1fb" d="
  M 555.24 233.00
  C 558.04 232.79 557.59 236.24 560.44 235.82
  L 561.94 238.41
  A 1.45 1.45 0.0 0 0 562.75 239.06
  Q 570.57 241.52 577.10 246.46
  A 1.24 1.24 0.0 0 1 576.52 248.68
  Q 566.05 250.18 554.32 247.43
  Q 554.90 244.91 554.15 242.40
  A 1.07 1.05 -35.5 0 1 554.31 241.49
  Q 557.03 237.83 555.24 233.00
  Z"
/>
<path fill="#91bb72" d="
  M 128.62 261.65
  L 128.95 348.44
  Q 128.95 348.94 128.45 348.90
  Q 118.22 348.10 108.48 344.81
  Q 107.93 344.62 107.59 345.52
  Q 107.14 344.44 106.06 343.95
  C 70.99 328.00 55.31 294.84 53.43 257.79
  A 0.71 0.71 0.0 0 1 54.22 257.05
  Q 78.57 259.71 100.00 271.47
  A 0.47 0.47 0.0 0 0 100.69 271.11
  C 100.98 268.43 103.90 250.79 102.95 249.83
  L 104.12 249.27
  Q 104.60 249.04 104.58 248.50
  C 104.34 242.89 126.27 259.49 128.62 261.65
  Z"
/>
<path fill="#273d75" d="
  M 225.97 253.44
  L 249.51 253.20
  L 278.93 253.23
  L 290.14 253.19
  L 319.41 253.46
  Q 321.00 252.96 322.96 253.49
  A 0.42 0.41 -67.5 0 1 323.21 254.10
  L 317.22 264.41
  L 300.78 292.77
  L 296.89 299.48
  L 290.00 311.40
  L 279.81 328.77
  Q 279.54 329.23 279.00 329.23
  L 263.49 329.28
  L 249.34 329.09
  L 226.20 329.24
  L 147.58 329.25
  A 0.61 0.61 0.0 0 1 147.06 328.32
  L 191.44 253.98
  A 1.49 1.49 0.0 0 1 192.74 253.25
  L 225.97 253.44
  Z
  M 220.22 256.84
  L 194.46 256.77
  A 0.99 0.98 15.5 0 0 193.59 257.26
  L 178.35 283.12
  L 174.76 288.86
  A 0.56 0.56 0.0 0 0 175.24 289.72
  L 210.41 289.31
  A 0.71 0.70 -75.3 0 0 211.00 288.96
  L 228.95 257.44
  A 0.37 0.36 -70.8 0 0 228.69 256.90
  Q 223.80 256.13 220.22 256.84
  Z
  M 259.15 256.88
  L 234.03 256.80
  Q 233.52 256.80 233.26 257.24
  L 218.92 282.16
  L 215.12 288.84
  A 0.44 0.44 0.0 0 0 215.50 289.50
  L 255.19 289.50
  Q 255.70 289.50 255.95 289.07
  L 274.81 257.48
  Q 275.10 256.99 274.54 256.93
  Q 266.19 256.07 259.15 256.88
  Z
  M 305.14 256.99
  Q 291.69 256.40 279.76 256.88
  Q 279.22 256.91 278.95 257.37
  L 263.89 282.75
  L 260.36 288.70
  Q 259.68 289.84 261.01 289.81
  Q 279.18 289.34 295.51 289.52
  C 296.42 289.53 297.77 290.13 298.65 289.16
  Q 299.72 288.00 301.42 284.95
  Q 309.23 270.98 317.45 257.18
  Q 317.76 256.67 317.16 256.68
  L 305.14 256.99
  Z
  M 284.01 292.96
  L 258.48 292.78
  Q 257.93 292.78 257.64 293.24
  Q 249.64 305.69 242.18 319.22
  L 238.62 325.18
  Q 238.26 325.78 238.95 325.76
  Q 258.05 325.29 277.14 325.85
  Q 277.69 325.86 277.97 325.39
  L 296.19 293.63
  A 0.53 0.53 0.0 0 0 295.73 292.83
  L 284.01 292.96
  Z
  M 156.87 319.31
  L 153.04 324.96
  A 0.48 0.48 0.0 0 0 153.44 325.71
  L 189.28 325.42
  Q 189.76 325.42 190.01 325.00
  L 208.08 293.76
  Q 208.52 293.00 207.64 293.00
  L 199.00 292.99
  L 173.09 292.74
  Q 172.56 292.73 172.29 293.19
  L 156.87 319.31
  Z
  M 197.93 318.51
  L 194.22 325.04
  Q 193.95 325.50 194.49 325.50
  L 233.63 325.54
  A 0.96 0.96 0.0 0 0 234.45 325.08
  L 253.39 293.39
  Q 253.79 292.73 253.02 292.75
  L 238.47 293.02
  L 213.25 292.73
  Q 212.74 292.73 212.49 293.16
  L 197.93 318.51
  Z"
/>
<path fill="#273d75" d="
  M 371.56 253.31
  L 397.74 253.49
  L 429.36 253.24
  L 452.03 253.20
  L 465.72 253.46
  L 473.35 253.22
  L 498.35 253.32
  A 0.37 0.37 0.0 0 1 498.67 253.87
  L 474.66 295.43
  L 470.69 302.29
  L 455.44 328.43
  Q 454.96 329.26 454.00 329.26
  L 448.57 329.26
  L 438.99 329.25
  L 426.18 328.94
  Q 425.68 328.93 425.34 329.29
  L 424.87 329.78
  L 424.67 329.55
  A 0.90 0.86 -19.7 0 0 424.00 329.25
  L 323.03 329.25
  A 0.57 0.57 0.0 0 1 322.54 328.39
  L 332.80 311.06
  L 339.24 300.24
  L 342.97 293.75
  L 360.02 265.30
  L 366.68 254.05
  Q 366.95 253.59 367.48 253.56
  L 371.56 253.31
  Z
  M 480.41 256.88
  L 455.18 256.84
  Q 454.63 256.84 454.35 257.32
  L 439.36 282.64
  L 435.46 288.80
  Q 435.11 289.35 435.76 289.43
  Q 438.32 289.72 442.69 289.58
  Q 451.28 289.30 471.33 289.52
  C 473.06 289.54 473.66 289.87 474.68 288.18
  Q 483.97 272.76 492.68 257.03
  Q 492.95 256.52 492.38 256.49
  Q 485.42 256.11 480.41 256.88
  Z
  M 395.46 256.85
  L 369.79 256.79
  Q 369.27 256.79 369.01 257.24
  L 353.85 282.87
  L 350.26 288.61
  A 0.48 0.47 -69.4 0 0 350.58 289.33
  C 354.28 289.91 358.69 289.45 361.45 289.52
  Q 373.71 289.81 385.97 289.41
  Q 386.48 289.39 386.63 288.92
  Q 387.18 287.29 388.05 285.81
  Q 396.37 271.70 404.53 257.33
  A 0.29 0.29 0.0 0 0 404.33 256.90
  Q 399.66 256.01 395.46 256.85
  Z
  M 434.46 256.87
  L 409.50 256.80
  Q 408.98 256.80 408.73 257.24
  L 394.51 281.85
  L 390.64 288.89
  Q 390.27 289.57 391.04 289.57
  L 429.90 289.49
  A 2.17 2.16 -74.6 0 0 431.76 288.43
  L 450.34 257.31
  Q 450.60 256.88 450.10 256.84
  Q 441.52 256.14 434.46 256.87
  Z
  M 414.29 292.85
  Q 401.91 292.97 390.25 292.67
  Q 389.37 292.65 388.23 293.10
  A 1.49 1.44 3.4 0 0 387.51 293.72
  L 373.35 318.43
  Q 371.22 320.78 369.30 325.18
  A 0.31 0.31 0.0 0 0 369.58 325.61
  L 409.26 325.45
  Q 409.76 325.45 410.01 325.02
  L 428.07 294.57
  Q 429.19 292.68 427.00 292.71
  L 414.29 292.85
  Z
  M 459.45 292.90
  L 434.29 292.66
  A 1.85 1.84 15.4 0 0 432.68 293.57
  L 417.46 319.31
  L 413.45 325.25
  Q 413.33 325.42 413.54 325.43
  L 452.68 325.79
  A 0.75 0.73 -74.4 0 0 453.34 325.41
  L 471.66 293.72
  A 0.70 0.70 0.0 0 0 471.04 292.66
  L 459.45 292.90
  Z
  M 332.44 319.06
  L 328.72 325.31
  A 0.33 0.32 -75.7 0 0 329.01 325.80
  Q 346.80 325.31 364.61 325.55
  Q 365.22 325.56 365.52 325.03
  L 383.28 294.08
  Q 384.08 292.69 382.47 292.74
  L 374.24 293.02
  Q 361.51 292.51 349.76 292.81
  C 347.61 292.87 347.45 293.59 346.46 295.20
  Q 339.42 306.71 332.44 319.06
  Z"
/>
<path fill="#3a59a2" d="
  M 439.36 282.64
  Q 460.22 270.46 480.41 256.88
  Q 485.42 256.11 492.38 256.49
  Q 492.95 256.52 492.68 257.03
  Q 483.97 272.76 474.68 288.18
  C 473.66 289.87 473.06 289.54 471.33 289.52
  Q 451.28 289.30 442.69 289.58
  Q 438.32 289.72 435.76 289.43
  Q 435.11 289.35 435.46 288.80
  L 439.36 282.64
  Z"
/>
<path fill="#3a59a2" d="
  M 178.35 283.12
  L 220.22 256.84
  Q 223.80 256.13 228.69 256.90
  A 0.37 0.36 -70.8 0 1 228.95 257.44
  L 211.00 288.96
  A 0.71 0.70 -75.3 0 1 210.41 289.31
  L 175.24 289.72
  A 0.56 0.56 0.0 0 1 174.76 288.86
  L 178.35 283.12
  Z"
/>
<path fill="#3a59a2" d="
  M 218.92 282.16
  L 259.15 256.88
  Q 266.19 256.07 274.54 256.93
  Q 275.10 256.99 274.81 257.48
  L 255.95 289.07
  Q 255.70 289.50 255.19 289.50
  L 215.50 289.50
  A 0.44 0.44 0.0 0 1 215.12 288.84
  L 218.92 282.16
  Z"
/>
<path fill="#3a59a2" d="
  M 263.89 282.75
  Q 284.74 270.33 305.14 256.99
  L 317.16 256.68
  Q 317.76 256.67 317.45 257.18
  Q 309.23 270.98 301.42 284.95
  Q 299.72 288.00 298.65 289.16
  C 297.77 290.13 296.42 289.53 295.51 289.52
  Q 279.18 289.34 261.01 289.81
  Q 259.68 289.84 260.36 288.70
  L 263.89 282.75
  Z"
/>
<path fill="#3a59a2" d="
  M 353.85 282.87
  Q 375.08 270.25 395.46 256.85
  Q 399.66 256.01 404.33 256.90
  A 0.29 0.29 0.0 0 1 404.53 257.33
  Q 396.37 271.70 388.05 285.81
  Q 387.18 287.29 386.63 288.92
  Q 386.48 289.39 385.97 289.41
  Q 373.71 289.81 361.45 289.52
  C 358.69 289.45 354.28 289.91 350.58 289.33
  A 0.48 0.47 -69.4 0 1 350.26 288.61
  L 353.85 282.87
  Z"
/>
<path fill="#3a59a2" d="
  M 394.51 281.85
  L 434.46 256.87
  Q 441.52 256.14 450.10 256.84
  Q 450.60 256.88 450.34 257.31
  L 431.76 288.43
  A 2.17 2.16 -74.6 0 1 429.90 289.49
  L 391.04 289.57
  Q 390.27 289.57 390.64 288.89
  L 394.51 281.85
  Z"
/>
<path fill="#8da8d7" d="
  M 220.22 256.84
  L 178.35 283.12
  L 193.59 257.26
  A 0.99 0.98 15.5 0 1 194.46 256.77
  L 220.22 256.84
  Z"
/>
<path fill="#8da8d7" d="
  M 259.15 256.88
  L 218.92 282.16
  L 233.26 257.24
  Q 233.52 256.80 234.03 256.80
  L 259.15 256.88
  Z"
/>
<path fill="#8da8d7" d="
  M 305.14 256.99
  Q 284.74 270.33 263.89 282.75
  L 278.95 257.37
  Q 279.22 256.91 279.76 256.88
  Q 291.69 256.40 305.14 256.99
  Z"
/>
<path fill="#8da8d7" d="
  M 395.46 256.85
  Q 375.08 270.25 353.85 282.87
  L 369.01 257.24
  Q 369.27 256.79 369.79 256.79
  L 395.46 256.85
  Z"
/>
<path fill="#8da8d7" d="
  M 434.46 256.87
  L 394.51 281.85
  L 408.73 257.24
  Q 408.98 256.80 409.50 256.80
  L 434.46 256.87
  Z"
/>
<path fill="#8da8d7" d="
  M 480.41 256.88
  Q 460.22 270.46 439.36 282.64
  L 454.35 257.32
  Q 454.63 256.84 455.18 256.84
  L 480.41 256.88
  Z"
/>
<path fill="#adc3e5" d="
  M 317.22 264.41
  Q 319.45 264.47 319.45 267.21
  Q 319.48 279.70 319.57 292.40
  Q 319.58 292.92 319.06 292.91
  L 300.78 292.77
  L 317.22 264.41
  Z"
/>
<path fill="#adc3e5" d="
  M 360.02 265.30
  L 342.97 293.75
  Q 337.44 292.57 332.53 293.11
  A 1.32 1.32 0.0 0 1 331.07 291.80
  L 331.07 265.65
  Q 331.07 265.09 331.63 265.09
  L 360.02 265.30
  Z"
/>
<path fill="#222129" d="
  M 491.21 290.27
  Q 485.79 298.25 477.48 304.15
  Q 477.11 304.41 476.72 304.18
  L 476.42 304.01
  Q 476.71 303.55 477.33 303.33
  L 482.55 297.72
  Q 482.77 297.49 483.08 297.50
  Q 483.24 297.50 483.40 297.51
  Q 483.52 297.52 483.60 297.43
  Q 486.99 293.36 491.21 290.27
  Z"
/>
<path fill="#3a59a2" d="
  M 242.18 319.22
  L 284.01 292.96
  L 295.73 292.83
  A 0.53 0.53 0.0 0 1 296.19 293.63
  L 277.97 325.39
  Q 277.69 325.86 277.14 325.85
  Q 258.05 325.29 238.95 325.76
  Q 238.26 325.78 238.62 325.18
  L 242.18 319.22
  Z"
/>
<path fill="#3a59a2" d="
  M 373.35 318.43
  Q 394.26 305.96 414.29 292.85
  L 427.00 292.71
  Q 429.19 292.68 428.07 294.57
  L 410.01 325.02
  Q 409.76 325.45 409.26 325.45
  L 369.58 325.61
  A 0.31 0.31 0.0 0 1 369.30 325.18
  Q 371.22 320.78 373.35 318.43
  Z"
/>
<path fill="#3a59a2" d="
  M 417.46 319.31
  L 459.45 292.90
  L 471.04 292.66
  A 0.70 0.70 0.0 0 1 471.66 293.72
  L 453.34 325.41
  A 0.75 0.73 -74.4 0 1 452.68 325.79
  L 413.54 325.43
  Q 413.33 325.42 413.45 325.25
  L 417.46 319.31
  Z"
/>
<path fill="#8da8d7" d="
  M 199.00 292.99
  L 156.87 319.31
  L 172.29 293.19
  Q 172.56 292.73 173.09 292.74
  L 199.00 292.99
  Z"
/>
<path fill="#3a59a2" d="
  M 199.00 292.99
  L 207.64 293.00
  Q 208.52 293.00 208.08 293.76
  L 190.01 325.00
  Q 189.76 325.42 189.28 325.42
  L 153.44 325.71
  A 0.48 0.48 0.0 0 1 153.04 324.96
  L 156.87 319.31
  L 199.00 292.99
  Z"
/>
<path fill="#8da8d7" d="
  M 238.47 293.02
  Q 218.09 306.48 197.93 318.51
  L 212.49 293.16
  Q 212.74 292.73 213.25 292.73
  L 238.47 293.02
  Z"
/>
<path fill="#3a59a2" d="
  M 238.47 293.02
  L 253.02 292.75
  Q 253.79 292.73 253.39 293.39
  L 234.45 325.08
  A 0.96 0.96 0.0 0 1 233.63 325.54
  L 194.49 325.50
  Q 193.95 325.50 194.22 325.04
  L 197.93 318.51
  Q 218.09 306.48 238.47 293.02
  Z"
/>
<path fill="#8da8d7" d="
  M 284.01 292.96
  L 242.18 319.22
  Q 249.64 305.69 257.64 293.24
  Q 257.93 292.78 258.48 292.78
  L 284.01 292.96
  Z"
/>
<path fill="#8da8d7" d="
  M 374.24 293.02
  L 332.44 319.06
  Q 339.42 306.71 346.46 295.20
  C 347.45 293.59 347.61 292.87 349.76 292.81
  Q 361.51 292.51 374.24 293.02
  Z"
/>
<path fill="#3a59a2" d="
  M 332.44 319.06
  L 374.24 293.02
  L 382.47 292.74
  Q 384.08 292.69 383.28 294.08
  L 365.52 325.03
  Q 365.22 325.56 364.61 325.55
  Q 346.80 325.31 329.01 325.80
  A 0.33 0.32 -75.7 0 1 328.72 325.31
  L 332.44 319.06
  Z"
/>
<path fill="#8da8d7" d="
  M 414.29 292.85
  Q 394.26 305.96 373.35 318.43
  L 387.51 293.72
  A 1.49 1.44 3.4 0 1 388.23 293.10
  Q 389.37 292.65 390.25 292.67
  Q 401.91 292.97 414.29 292.85
  Z"
/>
<path fill="#8da8d7" d="
  M 459.45 292.90
  L 417.46 319.31
  L 432.68 293.57
  A 1.85 1.84 15.4 0 1 434.29 292.66
  L 459.45 292.90
  Z"
/>
<path fill="#8da8d7" d="
  M 474.66 295.43
  L 475.25 303.19
  Q 475.29 303.72 475.79 303.54
  Q 476.49 303.27 477.33 303.33
  Q 476.71 303.55 476.42 304.01
  C 473.91 305.70 475.86 325.14 476.24 328.88
  L 477.16 350.11
  Q 474.75 350.60 472.33 349.92
  Q 471.83 349.78 471.82 349.26
  C 471.59 337.28 471.73 325.26 471.09 313.31
  Q 470.80 308.04 470.69 302.29
  L 474.66 295.43
  Z"
/>
<path fill="#adc3e5" d="
  M 296.89 299.48
  L 319.47 299.48
  Q 320.00 299.48 320.00 300.00
  L 320.00 325.62
  A 2.13 2.12 90.0 0 1 317.88 327.75
  L 291.24 327.75
  Q 290.60 327.75 290.62 327.12
  Q 290.85 319.23 290.00 311.40
  L 296.89 299.48
  Z"
/>
<path fill="#adc3e5" d="
  M 339.24 300.24
  L 332.80 311.06
  L 331.97 310.99
  Q 331.46 310.94 331.45 310.43
  L 331.36 301.14
  A 1.59 1.59 0.0 0 1 332.82 299.54
  Q 335.86 299.30 339.24 300.24
  Z"
/>
<path fill="#18254b" d="
  M 263.49 329.28
  L 267.56 344.50
  C 267.07 347.07 255.68 346.10 253.75 345.92
  L 249.34 329.09
  L 263.49 329.28
  Z"
/>
<path fill="#18254b" d="
  M 438.99 329.25
  L 442.01 340.86
  L 443.32 345.42
  C 442.26 346.68 431.29 345.96 429.15 345.97
  L 424.87 329.78
  L 425.34 329.29
  Q 425.68 328.93 426.18 328.94
  L 438.99 329.25
  Z"
/>
<path fill="#91bb72" d="
  M 476.24 328.88
  C 480.96 328.07 483.18 328.97 486.27 332.74
  C 489.84 337.11 494.87 338.70 499.77 340.90
  A 1.68 1.64 -3.3 0 1 500.52 341.55
  Q 502.67 345.02 506.38 346.87
  L 504.98 347.01
  Q 504.47 347.06 504.18 347.47
  Q 502.25 350.17 498.74 350.12
  C 491.58 350.02 484.42 350.38 477.16 350.11
  L 476.24 328.88
  Z"
/>
<path fill="#8da8d7" d="
  M 226.20 329.24
  L 249.34 329.09
  L 253.75 345.92
  L 244.22 345.96
  Q 242.72 345.97 242.52 347.45
  L 242.21 349.75
  Q 234.33 350.85 226.48 349.98
  Q 225.93 349.92 225.94 349.38
  L 226.20 329.24
  Z"
/>
<path fill="#fefeff" d="
  M 448.57 329.26
  L 448.36 341.54
  A 0.67 0.67 0.0 0 1 447.88 342.17
  Q 443.86 343.34 442.01 340.86
  L 438.99 329.25
  L 448.57 329.26
  Z"
/>
<path fill="#eaf1fb" d="
  M 520.72 338.80
  Q 518.47 339.82 514.52 338.21
  Q 522.01 336.20 520.72 338.80
  Z"
/>
<path fill="#2a4996" d="
  M 515.20 338.11
  Q 514.86 338.16 514.52 338.21
  Q 518.47 339.82 520.72 338.80
  Q 523.12 340.96 523.10 343.75
  A 1.37 1.33 66.5 0 1 522.76 344.65
  L 519.54 348.33
  C 516.62 351.22 505.72 355.82 507.28 347.59
  C 511.45 345.39 512.47 341.70 515.20 338.11
  Z"
/>
<path fill="#2a4996" d="
  M 547.51 339.12
  L 547.90 341.57
  Q 548.01 345.28 549.56 348.87
  A 0.94 0.93 58.1 0 1 549.31 349.96
  Q 546.11 352.69 541.97 350.94
  Q 540.57 350.34 540.77 348.83
  Q 540.86 348.05 540.19 346.75
  L 540.61 343.23
  L 542.04 342.17
  Q 542.44 341.87 542.55 341.38
  Q 543.34 337.70 547.51 339.12
  Z"
/>
<path fill="#18254b" d="
  M 547.90 341.57
  L 551.31 349.08
  Q 550.83 349.80 551.17 350.47
  Q 546.33 354.15 539.28 351.51
  L 539.29 347.12
  Q 539.14 348.26 540.19 346.75
  Q 540.86 348.05 540.77 348.83
  Q 540.57 350.34 541.97 350.94
  Q 546.11 352.69 549.31 349.96
  A 0.94 0.93 58.1 0 0 549.56 348.87
  Q 548.01 345.28 547.90 341.57
  Z"
/>
<path fill="#273d75" d="
  M 267.56 344.50
  Q 267.75 345.11 268.18 345.58
  A 1.25 1.24 68.6 0 0 269.06 345.97
  L 278.47 346.07
  A 0.72 0.71 87.4 0 1 279.18 346.72
  L 279.54 350.23
  L 279.52 350.60
  Q 279.49 351.18 278.92 351.19
  Q 261.21 351.66 243.50 351.42
  Q 242.12 351.40 242.21 349.75
  L 242.52 347.45
  Q 242.72 345.97 244.22 345.96
  L 253.75 345.92
  C 255.68 346.10 267.07 347.07 267.56 344.50
  Z"
/>
<path fill="#273d75" d="
  M 443.32 345.42
  L 443.58 345.70
  A 0.91 0.90 68.8 0 0 444.25 346.00
  L 453.77 346.00
  Q 454.48 346.00 454.52 346.70
  L 454.78 350.85
  Q 454.82 351.48 454.19 351.48
  Q 436.94 351.54 419.76 351.49
  Q 418.04 351.48 417.76 350.30
  Q 417.46 348.70 418.04 346.68
  Q 418.20 346.13 418.77 346.12
  L 429.15 345.97
  C 431.29 345.96 442.26 346.68 443.32 345.42
  Z"
/>
<path fill="#5673b7" d="
  M 551.17 350.47
  Q 550.83 349.80 551.31 349.08
  L 555.98 348.74
  A 0.88 0.87 84.5 0 1 556.91 349.51
  C 557.04 350.62 552.29 350.28 551.17 350.47
  Z"
/>
</svg>
