<svg width="626" height="395" viewBox="0 0 626 395" fill="none" xmlns="http://www.w3.org/2000/svg">
<g clip-path="url(#clip0_1_61)">
<path d="M263.161 43.8743C263.336 50.113 262.497 56.0895 260.646 61.8036" stroke="#88B0B8" stroke-width="2"/>
<path d="M260.646 61.8036C256.426 73.561 248.919 81.9239 238.219 88.1112" stroke="#A3BDC5" stroke-width="2"/>
<path d="M238.219 88.1112C232.391 91.1611 226.101 92.9047 219.348 93.3419" stroke="#88B0B8" stroke-width="2"/>
<path d="M219.348 93.3419C215.671 93.6762 211.692 93.3959 207.413 92.501" stroke="#A3BDC5" stroke-width="2"/>
<path d="M207.413 92.501C215.972 90.0939 223.115 86.2031 228.845 80.8284C243.226 67.3429 247.839 45.6333 239.6 27.6191C233.551 14.4062 222.946 5.5161 207.784 0.948914" stroke="#7297A5" stroke-width="2"/>
<path d="M207.413 92.501C203.242 91.6986 198.971 90.2328 194.599 88.1035" stroke="#ADC7D1" stroke-width="2"/>
<path d="M239.306 46.7134C239.306 40.6201 236.886 34.7763 232.577 30.4677C228.269 26.1591 222.425 23.7386 216.332 23.7386C210.238 23.7386 204.395 26.1591 200.086 30.4677C195.777 34.7763 193.357 40.6201 193.357 46.7134C193.357 49.7305 193.951 52.718 195.106 55.5054C196.26 58.2929 197.953 60.8256 200.086 62.959C204.395 67.2676 210.238 69.6882 216.332 69.6882C219.349 69.6882 222.336 69.0939 225.124 67.9393C227.911 66.7847 230.444 65.0924 232.577 62.959C234.711 60.8256 236.403 58.2929 237.558 55.5054C238.712 52.718 239.306 49.7305 239.306 46.7134Z" stroke="#92BAC5" stroke-width="2"/>
<path d="M325.381 87.2471C319.764 89.2684 314.966 92.4984 310.985 96.937" stroke="#92BAC5" stroke-width="2"/>
<path d="M310.985 96.937L260.646 61.8036" stroke="#C3E0E5" stroke-width="2"/>
<path d="M310.985 96.937C304.592 104.246 301.596 112.696 301.997 122.288" stroke="#ADC7D1" stroke-width="2"/>
<path d="M238.736 88.3889C238.592 88.4918 238.419 88.3992 238.219 88.1112" stroke="#C3E0E5" stroke-width="2"/>
<path d="M368.669 102.955C368.432 103.032 368.365 103.173 368.468 103.379C374.249 115.039 374.172 126.611 368.237 138.096" stroke="#A3BDC5" stroke-width="2"/>
<path d="M328.49 154.721C333.782 152.458 338.054 149.876 341.304 146.975C350.886 138.42 355.021 125.86 352.36 113.269C349.623 100.334 341.438 91.3592 327.803 86.3445" stroke="#7297A5" stroke-width="2"/>
<path d="M349.829 120.521C349.829 117.2 348.51 114.016 346.162 111.667C343.814 109.319 340.629 108 337.308 108C333.987 108 330.802 109.319 328.454 111.667C326.106 114.016 324.787 117.2 324.787 120.521C324.787 123.842 326.106 127.027 328.454 129.375C330.802 131.723 333.987 133.042 337.308 133.042C340.629 133.042 343.814 131.723 346.162 129.375C348.51 127.027 349.829 123.842 349.829 120.521Z" stroke="#92BAC5" stroke-width="2"/>
<path d="M219.348 93.3419L229.401 238.435" stroke="#C3E0E5" stroke-width="2"/>
<path d="M229.401 238.435C222.133 236.383 214.784 236.092 207.352 237.563" stroke="#A6A7D4" stroke-width="2"/>
<path d="M207.351 237.563C198.464 239.389 190.464 243.635 183.351 250.3" stroke="#B1B3D9" stroke-width="2"/>
<path d="M249.467 250.27C243.506 244.643 236.817 240.698 229.401 238.435" stroke="#8B9AC7" stroke-width="2"/>
<path d="M467.805 156.38L454.944 156.287" stroke="#8B9AC7" stroke-width="2"/>
<path d="M454.944 156.287C457.006 154.914 458.534 153.366 459.527 151.643C460.267 150.352 460.668 148.315 460.73 145.533C461.023 131.97 460.992 123.317 460.638 119.572C459.519 107.846 452.468 105.146 443.325 100.578" stroke="#796DBC" stroke-width="2"/>
<path d="M454.944 156.287C454.785 156.442 454.124 156.442 452.961 156.287" stroke="#96A6CD" stroke-width="2"/>
<path d="M452.961 156.287L438.156 156.334" stroke="#B1B3D9" stroke-width="2"/>
<path d="M425.598 132.348L425.558 108.81" stroke="#96A6CD" stroke-width="2"/>
<path d="M405.978 106.727L406.086 134.269" stroke="#C3E0E5" stroke-width="2"/>
<path d="M452.961 156.287C452.92 165.741 452.977 175.091 453.131 184.338C453.208 189.153 454.607 192.912 457.328 195.618C467.98 206.223 478.598 216.859 489.182 227.526C494.899 233.289 499.428 238.435 491.975 245.725C485.644 251.918 478.472 257.118 470.459 261.325" stroke="#C3E0E5" stroke-width="2"/>
<path d="M457.567 212.521L457.791 211.973C457.888 211.721 457.819 211.531 457.582 211.402C445.03 204.358 435.935 208.71 426.769 217.682C419.96 224.353 413.22 231.08 406.549 237.864C406.51 237.903 406.479 237.95 406.458 238.001C406.438 238.053 406.427 238.107 406.428 238.163C406.429 238.218 406.441 238.273 406.463 238.323C406.485 238.374 406.517 238.42 406.556 238.458C410.733 242.341 414.819 246.366 418.815 250.532C420.937 252.746 422.056 254.891 421.323 257.93C421.112 258.805 420.97 259.684 420.898 260.569" stroke="#C3E0E5" stroke-width="2"/>
<path d="M263.145 329.995L243.75 330.195" stroke="#95A791" stroke-width="2"/>
<path d="M243.75 330.195C243.673 315.779 243.65 301.38 243.681 287C243.691 281.661 243.367 277.439 242.709 274.332C239.384 258.594 228.729 245.255 213.161 239.692C211.278 239.019 209.342 238.309 207.352 237.563" stroke="#796DBC" stroke-width="2"/>
<path d="M243.75 330.195L169.618 330.18" stroke="#9FB397" stroke-width="2"/>
<path d="M228.876 279.509C228.876 276.184 227.555 272.995 225.204 270.644C222.853 268.293 219.664 266.972 216.339 266.972C213.014 266.972 209.826 268.293 207.475 270.644C205.124 272.995 203.803 276.184 203.803 279.509C203.803 282.834 205.124 286.022 207.475 288.374C209.826 290.725 213.014 292.045 216.339 292.045C219.664 292.045 222.853 290.725 225.204 288.374C227.555 286.022 228.876 282.834 228.876 279.509Z" stroke="#B1B3D9" stroke-width="2"/>
<path d="M291.775 350.887L282.841 351.157" stroke="#B2E0A2" stroke-width="2"/>
<path d="M282.841 351.157L141.058 351.218" stroke="#CDECAF" stroke-width="2"/>
<path d="M288.643 395C292.912 393.123 295.489 390.296 296.373 386.521C296.769 384.829 296.62 382.396 295.926 379.223C294.902 374.532 293.832 369.85 292.716 365.174C291.127 358.478 290.51 353.27 282.841 351.157" stroke="#C3E0E5" stroke-width="2"/>
<path d="M211.911 0H220.968C245.054 3.71855 260.283 19.5803 263.161 43.8743C263.336 50.1131 262.497 56.0895 260.646 61.8036C256.426 73.561 248.919 81.9239 238.219 88.1112C232.391 91.1612 226.101 92.9047 219.348 93.3419C215.671 93.6762 211.692 93.3959 207.413 92.501C215.972 90.0939 223.115 86.2031 228.845 80.8284C243.226 67.3429 247.839 45.6333 239.6 27.6191C233.551 14.4062 222.946 5.51611 207.784 0.948926L211.911 0Z" fill="#678D98"/>
<path d="M207.783 0.948914C222.946 5.5161 233.551 14.4062 239.599 27.6191C247.839 45.6333 243.225 67.3429 228.845 80.8284C223.115 86.2031 215.971 90.0939 207.413 92.501C203.242 91.6986 198.971 90.2328 194.599 88.1035C165.915 71.7557 160.491 33.4747 185.827 11.3871C192.343 5.70897 199.662 2.22958 207.783 0.948914ZM239.306 46.7134C239.306 40.6201 236.886 34.7763 232.577 30.4677C228.269 26.1591 222.425 23.7386 216.332 23.7386C210.238 23.7386 204.394 26.1591 200.086 30.4677C195.777 34.7763 193.357 40.6201 193.357 46.7134C193.357 49.7305 193.951 52.718 195.106 55.5054C196.26 58.2929 197.952 60.8256 200.086 62.959C204.394 67.2676 210.238 69.6882 216.332 69.6882C219.349 69.6882 222.336 69.0939 225.124 67.9393C227.911 66.7847 230.444 65.0924 232.577 62.959C234.711 60.8256 236.403 58.2929 237.557 55.5054C238.712 52.718 239.306 49.7305 239.306 46.7134Z" fill="#7CA1B1"/>
<path d="M216.331 69.6882C229.02 69.6882 239.306 59.402 239.306 46.7134C239.306 34.0248 229.02 23.7386 216.331 23.7386C203.643 23.7386 193.357 34.0248 193.357 46.7134C193.357 59.402 203.643 69.6882 216.331 69.6882Z" fill="#A8D3D8"/>
<path d="M263.161 43.8743L325.381 87.2472C319.764 89.2685 314.966 92.4984 310.985 96.937L260.646 61.8036C262.497 56.0895 263.336 50.1131 263.161 43.8743Z" fill="#546971"/>
<path d="M260.646 61.8036L310.985 96.937C304.592 104.246 301.596 112.696 301.997 122.288L238.735 88.389C238.591 88.4918 238.419 88.3993 238.219 88.1112C248.919 81.9239 256.426 73.561 260.646 61.8036Z" fill="#7F9FAB"/>
<path d="M368.669 102.955C368.432 103.032 368.365 103.173 368.468 103.379C374.249 115.039 374.172 126.611 368.237 138.096C359.869 151.448 347.666 157.298 331.63 155.647C331.023 155.585 329.976 155.277 328.49 154.721C333.782 152.458 338.054 149.876 341.304 146.975C350.886 138.42 355.021 125.86 352.36 113.269C349.623 100.334 341.438 91.3592 327.803 86.3445C343.518 81.9239 359.133 88.6513 367.712 102.168C368.021 102.646 368.198 102.677 368.669 102.955Z" fill="#678D98"/>
<path d="M327.803 86.3445C341.438 91.3592 349.624 100.334 352.36 113.269C355.021 125.86 350.886 138.42 341.304 146.975C338.054 149.876 333.782 152.458 328.49 154.721C315.092 150.987 306.495 142.102 302.699 128.066C302.458 127.177 302.224 125.25 301.997 122.288C301.596 112.696 304.592 104.246 310.985 96.937C314.966 92.4984 319.764 89.2685 325.381 87.2472L327.803 86.3445ZM349.829 120.521C349.829 117.2 348.51 114.016 346.162 111.667C343.814 109.319 340.629 108 337.308 108C333.987 108 330.802 109.319 328.454 111.667C326.106 114.016 324.787 117.2 324.787 120.521C324.787 123.842 326.106 127.027 328.454 129.375C330.802 131.723 333.987 133.042 337.308 133.042C340.629 133.042 343.814 131.723 346.162 129.375C348.51 127.027 349.829 123.842 349.829 120.521Z" fill="#7CA1B1"/>
<path d="M194.599 88.1035C198.971 90.2328 203.242 91.6986 207.413 92.501C211.692 93.3959 215.671 93.6762 219.348 93.3419L229.4 238.435C222.133 236.383 214.783 236.092 207.351 237.563C198.464 239.389 190.464 243.635 183.351 250.3L194.599 88.1035Z" fill="#7F9FAB"/>
<path d="M238.219 88.1112C238.419 88.3993 238.591 88.4918 238.735 88.389C238.427 88.5278 238.275 88.6384 238.28 88.7207C241.978 142.473 245.707 196.322 249.467 250.27C243.506 244.643 236.817 240.698 229.4 238.435L219.348 93.3419C226.101 92.9047 232.391 91.1612 238.219 88.1112Z" fill="#546971"/>
<path d="M467.805 156.38L454.944 156.287C457.006 154.914 458.534 153.366 459.527 151.643C460.267 150.352 460.668 148.315 460.73 145.533C461.023 131.97 460.992 123.317 460.638 119.572C459.519 107.846 452.468 105.146 443.325 100.578C449.61 97.6571 455.993 97.6031 462.474 100.416C471.971 104.544 480.372 108.872 480.472 120.39C480.544 129.123 480.542 137.854 480.465 146.582C480.388 154.49 474.763 156.85 467.805 156.38Z" fill="#6E61B6"/>
<path d="M443.325 100.578C452.468 105.146 459.519 107.846 460.638 119.572C460.992 123.317 461.023 131.97 460.73 145.533C460.668 148.315 460.267 150.352 459.527 151.643C458.534 153.366 457.006 154.914 454.944 156.287C454.785 156.442 454.124 156.442 452.961 156.287L438.156 156.334C431.468 156.133 425.828 155.03 425.612 146.922C425.514 143.244 425.509 138.386 425.597 132.348L425.558 108.81L443.325 100.578Z" fill="#8379C1"/>
<path d="M368.669 102.955L405.978 106.727L406.086 134.269L368.237 138.096C374.172 126.611 374.249 115.039 368.468 103.379C368.365 103.173 368.432 103.032 368.669 102.955Z" fill="#7F9FAB"/>
<path d="M405.978 106.727L425.558 108.81L425.597 132.348L406.086 134.269L405.978 106.727Z" fill="#546971"/>
<path d="M337.308 133.042C344.223 133.042 349.829 127.437 349.829 120.521C349.829 113.606 344.223 108 337.308 108C330.393 108 324.787 113.606 324.787 120.521C324.787 127.437 330.393 133.042 337.308 133.042Z" fill="#A8D3D8"/>
<path d="M452.961 156.287C452.92 165.741 452.977 175.091 453.131 184.338C453.208 189.153 454.607 192.912 457.328 195.618C467.979 206.223 478.598 216.859 489.182 227.526C494.899 233.289 499.428 238.435 491.975 245.725C485.644 251.918 478.472 257.118 470.458 261.325C469.435 259.376 469.247 257.406 469.895 255.415C470.281 254.217 471.338 252.692 473.066 250.84C476.898 246.716 480.74 242.555 484.592 238.358C484.777 238.152 484.772 237.951 484.577 237.756C472.907 225.988 465.333 218.412 461.856 215.028C460.802 213.999 459.372 213.164 457.567 212.521L457.791 211.973C457.888 211.721 457.819 211.531 457.582 211.402C445.03 204.358 435.935 208.71 426.769 217.682C419.96 224.353 413.219 231.08 406.549 237.864C406.51 237.903 406.479 237.95 406.458 238.001C406.438 238.053 406.427 238.107 406.428 238.163C406.429 238.218 406.441 238.273 406.463 238.323C406.485 238.374 406.516 238.42 406.556 238.458C410.733 242.341 414.819 246.366 418.815 250.532C420.937 252.746 422.056 254.891 421.323 257.93C421.112 258.805 420.97 259.684 420.898 260.569C413.394 256.948 406.567 252.371 400.415 246.836C394.652 241.66 393.21 236.398 398.942 230.628C410.118 219.379 421.33 208.17 432.579 196.999C437.123 192.485 438.149 188.096 438.11 181.299C438.059 173.049 438.074 164.727 438.156 156.334L452.961 156.287Z" fill="#7F9FAB"/>
<path d="M454.944 156.287L467.805 156.38C467.784 165.062 467.789 173.692 467.82 182.271C467.835 187.918 469.139 192.323 473.213 196.412C491.157 214.434 502.511 225.806 507.274 230.527C512.497 235.704 511.617 241.151 506.749 245.995C499.281 253.425 488.002 260.615 480.141 264.411C476.371 266.226 473.143 265.198 470.459 261.325C478.472 257.118 485.644 251.918 491.975 245.725C499.428 238.435 494.899 233.289 489.182 227.526C478.598 216.859 467.979 206.223 457.328 195.618C454.607 192.912 453.208 189.153 453.131 184.338C452.977 175.091 452.92 165.741 452.961 156.287C454.124 156.442 454.785 156.442 454.944 156.287Z" fill="#546971"/>
<path d="M457.567 212.521C452.028 210.677 447.576 211.927 443.441 216.031C436.122 223.278 428.85 230.53 421.624 237.787C421.581 237.83 421.547 237.882 421.525 237.938C421.502 237.995 421.491 238.055 421.491 238.116C421.492 238.177 421.505 238.237 421.529 238.293C421.553 238.349 421.588 238.4 421.631 238.443C425.689 242.434 429.77 246.461 433.875 250.524C438.997 255.6 436.405 263.871 428.899 263.863C426.098 263.855 423.352 261.981 420.898 260.569C420.97 259.684 421.112 258.805 421.323 257.93C422.056 254.891 420.937 252.746 418.815 250.532C414.819 246.366 410.733 242.341 406.556 238.458C406.517 238.42 406.485 238.374 406.463 238.323C406.441 238.273 406.429 238.218 406.428 238.163C406.427 238.107 406.438 238.053 406.458 238.001C406.479 237.95 406.51 237.903 406.549 237.864C413.22 231.08 419.96 224.353 426.769 217.682C435.935 208.71 445.03 204.358 457.582 211.402C457.819 211.531 457.888 211.721 457.791 211.973L457.567 212.521Z" fill="#546971"/>
<path d="M229.4 238.435C236.817 240.698 243.506 244.643 249.467 250.27C255.85 256.879 260.036 264.57 262.027 273.345C262.747 276.508 263.117 281.039 263.137 286.938C263.179 301.272 263.181 315.625 263.145 329.995L243.75 330.195C243.673 315.779 243.65 301.38 243.681 287C243.691 281.661 243.367 277.439 242.709 274.332C239.383 258.594 228.729 245.255 213.161 239.692C211.278 239.019 209.342 238.309 207.351 237.563C214.783 236.092 222.133 236.383 229.4 238.435Z" fill="#6E61B6"/>
<path d="M207.351 237.563C209.342 238.309 211.278 239.019 213.161 239.692C228.729 245.255 239.383 258.594 242.709 274.332C243.367 277.439 243.691 281.661 243.681 287C243.65 301.38 243.673 315.779 243.75 330.195L169.618 330.18C169.618 316.689 169.618 303.322 169.618 290.078C169.618 282.914 169.914 277.791 170.505 274.71C172.28 265.442 176.562 257.305 183.351 250.3C190.464 243.635 198.464 239.389 207.351 237.563ZM228.876 279.509C228.876 276.184 227.555 272.995 225.204 270.644C222.853 268.293 219.664 266.972 216.339 266.972C213.014 266.972 209.826 268.293 207.475 270.644C205.123 272.995 203.803 276.184 203.803 279.509C203.803 282.834 205.123 286.022 207.475 288.374C209.826 290.725 213.014 292.045 216.339 292.045C219.664 292.045 222.853 290.725 225.204 288.374C227.555 286.022 228.876 282.834 228.876 279.509Z" fill="#8379C1"/>
<path d="M216.339 292.045C223.263 292.045 228.876 286.433 228.876 279.509C228.876 272.585 223.263 266.972 216.339 266.972C209.415 266.972 203.803 272.585 203.803 279.509C203.803 286.433 209.415 292.045 216.339 292.045Z" fill="#DEECF1"/>
<path d="M169.618 330.18L243.75 330.195L263.145 329.995C267.597 330.296 272.426 329.717 276.446 330.982C285.508 333.821 290.618 340.456 291.775 350.887L282.841 351.157L141.058 351.218C142.246 338.142 150.516 330.203 163.439 330.195C165.501 330.195 167.561 330.19 169.618 330.18Z" fill="#6C88EC"/>
<path d="M291.775 350.887C302.144 351.403 308.902 349.621 311.679 361.757C312.929 367.193 314.176 372.627 315.421 378.058C317.28 386.167 316.339 392.608 307.282 395H288.643C292.912 393.123 295.488 390.297 296.373 386.521C296.769 384.829 296.62 382.397 295.926 379.223C294.902 374.533 293.832 369.85 292.716 365.174C291.127 358.478 290.51 353.27 282.841 351.157L291.775 350.887Z" fill="#546971"/>
<path d="M282.841 351.157C290.51 353.27 291.127 358.478 292.716 365.174C293.832 369.85 294.902 374.533 295.926 379.223C296.62 382.397 296.769 384.829 296.373 386.521C295.488 390.297 292.912 393.123 288.643 395H125.991C117.119 393.033 115.406 386.737 117.204 378.853C118.505 373.128 119.816 367.407 121.138 361.687C123.869 349.891 130.905 351.149 141.058 351.218L282.841 351.157Z" fill="#7F9FAB"/>
</g>
<defs>
<clipPath id="clip0_1_61">
<rect width="395" height="395" fill="white" transform="translate(116)"/>
</clipPath>
</defs>
</svg>
