<svg width="626" height="396" viewBox="0 0 626 396" fill="none" xmlns="http://www.w3.org/2000/svg">
<path d="M316.707 1.84595C325.882 24.791 331.33 45.3232 333.051 63.4426C334.757 81.5466 334.757 102.525 333.051 126.376" stroke="#E75D23" stroke-width="2"/>
<path d="M333.051 126.376C327.734 119.43 321.51 113.797 314.379 109.479C313.672 109.064 312.98 109.071 312.304 109.502C301.315 116.341 293.016 125.331 287.407 136.473" stroke="#E09D83" stroke-width="2"/>
<path d="M287.407 136.473C275.62 135.782 264.262 135.866 253.335 136.727C252.536 136.788 252.052 137.749 251.883 139.609" stroke="#E75D23" stroke-width="2"/>
<path d="M251.883 139.609L251.675 137.511" stroke="#EA7514" stroke-width="2"/>
<path d="M251.675 137.511C252.183 137.235 251.906 136.036 251.675 137.511Z" stroke="#F08026" stroke-width="2"/>
<path d="M251.676 137.511L238.167 136.151" stroke="#EA9212" stroke-width="2"/>
<path d="M251.883 139.609L251.698 149.775" stroke="#E16F0F" stroke-width="2"/>
<path d="M251.699 149.775L238.098 149.867" stroke="#EA9212" stroke-width="2"/>
<path d="M238.097 149.867L197.018 149.798" stroke="#EC9B23" stroke-width="2"/>
<path d="M376.206 134.583L375.123 136.612" stroke="#EA8332" stroke-width="2"/>
<path d="M375.122 136.612L375.053 149.913" stroke="#E16F0F" stroke-width="2"/>
<path d="M375.053 149.913L374.961 190.624" stroke="#EA8332" stroke-width="2"/>
<path d="M374.961 190.624V204.456" stroke="#E16F0F" stroke-width="2"/>
<path d="M374.961 204.456L374.27 245.236" stroke="#EA8332" stroke-width="2"/>
<path d="M374.269 245.236L361.821 218.241" stroke="#CA8A70" stroke-width="2"/>
<path d="M361.821 218.241L347.782 185.138" stroke="#C2846E" stroke-width="2"/>
<path d="M347.782 185.138C347.521 181.096 347.375 176.846 347.344 172.39C347.252 154.985 343.471 140.485 333.051 126.376" stroke="#D7977E" stroke-width="2"/>
<path d="M282.105 149.36L251.698 149.775" stroke="#E75D23" stroke-width="2"/>
<path d="M347.782 185.138L347.413 346.898" stroke="#BBC4CE" stroke-width="2"/>
<path d="M347.413 346.898C347.198 346.944 346.975 346.975 346.745 346.99C346.422 347.006 346.199 346.867 346.076 346.575C341.589 335.111 332.998 328.633 320.303 327.142" stroke="#C2CAD0" stroke-width="2"/>
<path d="M320.303 327.142V294.546C320.303 293.685 319.873 293.262 319.012 293.278L307.878 293.647C307.186 293.662 306.833 294.023 306.818 294.73L306.61 326.865" stroke="#A7B1B9" stroke-width="2"/>
<path d="M306.61 326.865C294.961 328.387 286.554 334.204 281.391 344.316C281.28 344.536 281.099 344.711 280.876 344.814C280.652 344.917 280.401 344.941 280.162 344.882C279.924 344.823 279.712 344.685 279.563 344.49C279.413 344.295 279.334 344.055 279.339 343.809L279.108 184.469" stroke="#C2CAD0" stroke-width="2"/>
<path d="M279.108 184.469C279.339 172.666 278.74 161.278 282.105 149.36" stroke="#E09D83" stroke-width="2"/>
<path d="M282.105 149.36L287.407 136.473" stroke="#D7977E" stroke-width="2"/>
<path d="M238.167 136.151L197.802 136.658" stroke="#EC9B23" stroke-width="2"/>
<path d="M238.097 149.867L237.89 190.716" stroke="#F3A534" stroke-width="2"/>
<path d="M237.89 190.716L196.971 189.725" stroke="#EC9B23" stroke-width="2"/>
<path d="M279.108 184.469L253.335 243.415" stroke="#D39075" stroke-width="2"/>
<path d="M253.336 243.415C251.292 229.783 250.869 216.674 252.068 204.087" stroke="#F08026" stroke-width="2"/>
<path d="M252.067 204.087L251.606 190.855" stroke="#EA7514" stroke-width="2"/>
<path d="M251.606 190.854L251.698 149.775" stroke="#F08026" stroke-width="2"/>
<path d="M251.606 190.855L237.89 190.716" stroke="#EA9212" stroke-width="2"/>
<path d="M409.01 92.1892C408.318 92.6503 408.126 93.2573 408.433 94.0104C413.951 107.304 416.44 121.343 415.902 136.128" stroke="#F3A534" stroke-width="2"/>
<path d="M415.903 136.128L378.142 136.035C378.004 136.035 377.881 136.082 377.774 136.174C377.574 136.389 377.374 136.604 377.174 136.819C377.005 137.012 376.774 137.138 376.521 137.176C376.267 137.214 376.009 137.161 375.791 137.027L375.123 136.612" stroke="#EC9B23" stroke-width="2"/>
<path d="M415.972 149.982L375.053 149.913" stroke="#EC9B23" stroke-width="2"/>
<path d="M415.626 258.999L380.263 260.059" stroke="#EC9B23" stroke-width="2"/>
<path d="M380.263 260.059L374.27 245.236" stroke="#D5B684" stroke-width="2"/>
<path d="M380.263 260.059C382.922 265.253 384.297 269.533 384.39 272.899" stroke="#CCA261" stroke-width="2"/>
<path d="M384.39 272.899C392.397 282.428 403.131 290.119 416.594 295.975" stroke="#D5B684" stroke-width="2"/>
<path d="M416.594 295.975L427.245 303.26C427.482 303.425 427.754 303.536 428.041 303.584C428.328 303.632 428.623 303.615 428.904 303.536L429.803 303.283" stroke="#D3AD73" stroke-width="2"/>
<path d="M456.798 348.719L361.406 348.327" stroke="#9AA4AB" stroke-width="2"/>
<path d="M415.856 204.525L374.961 204.456" stroke="#EC9B23" stroke-width="2"/>
<path d="M361.821 218.241L361.406 348.328" stroke="#AEB7C0" stroke-width="2"/>
<path d="M361.406 348.328C360.73 348.051 360.084 348.013 359.469 348.212" stroke="#939DA9" stroke-width="2"/>
<path d="M359.47 348.212L347.598 348.166" stroke="#7F8A98" stroke-width="2"/>
<path d="M347.597 348.166C348.443 348.227 348.381 347.805 347.413 346.898" stroke="#AEB7C0" stroke-width="2"/>
<path d="M415.741 190.739L374.961 190.624" stroke="#EC9B23" stroke-width="2"/>
<path d="M347.598 348.166L347.298 369.467" stroke="#86909B" stroke-width="2"/>
<path d="M306.61 326.865L306.379 367.738C306.379 368.043 306.258 368.336 306.042 368.553C305.826 368.769 305.533 368.89 305.227 368.89H280.261C279.293 368.89 278.809 368.406 278.809 367.438V349.826C278.809 349.621 278.768 349.418 278.689 349.229C278.61 349.04 278.494 348.869 278.348 348.725C278.202 348.582 278.029 348.468 277.839 348.392C277.649 348.316 277.446 348.278 277.241 348.281L170 348.765" stroke="#9AA4AB" stroke-width="2"/>
<path d="M197.018 304.666C210.204 296.52 223.29 288.514 236.276 280.645C239.411 278.755 240.264 276.08 240.864 272.784" stroke="#D5B684" stroke-width="2"/>
<path d="M240.864 272.784L246.327 260.036" stroke="#CCA261" stroke-width="2"/>
<path d="M246.328 260.036L253.336 243.415" stroke="#D3AD73" stroke-width="2"/>
<path d="M320.303 327.142L320.349 366.608C320.349 367.248 320.598 367.863 321.042 368.32C321.486 368.777 322.09 369.04 322.724 369.052L347.298 369.467" stroke="#9AA4AB" stroke-width="2"/>
<path d="M347.298 369.467L348.059 375.276" stroke="#6B7784" stroke-width="2"/>
<path d="M319.911 395.931L320.073 370.873C320.073 369.69 319.481 369.098 318.297 369.098L308.961 368.983C308.732 368.98 308.505 369.022 308.292 369.108C308.08 369.193 307.887 369.32 307.724 369.481C307.561 369.642 307.431 369.833 307.343 370.045C307.255 370.256 307.209 370.483 307.209 370.712L307.002 395.908" stroke="#6B7784" stroke-width="2"/>
<path d="M241.671 373.201C235.816 372.971 211.149 369.767 207.161 371.841" stroke="#6B7784" stroke-width="2"/>
<path d="M252.068 204.087L237.706 204.617" stroke="#EA9212" stroke-width="2"/>
<path d="M237.706 204.617L196.995 204.64" stroke="#EC9B23" stroke-width="2"/>
<path d="M246.327 260.035L237.729 259.182" stroke="#EA9212" stroke-width="2"/>
<path d="M237.729 259.183L237.706 204.617" stroke="#F3A534" stroke-width="2"/>
<path d="M426.115 263.309C424.202 254.595 416.94 259.897 411.938 258.237" stroke="#EA9212" stroke-width="2"/>
<path d="M415.626 258.998L415.856 204.525" stroke="#F3A534" stroke-width="2"/>
<path d="M415.857 204.525C419.975 205.247 423.602 205.14 426.738 204.202C427.144 204.077 427.498 203.825 427.748 203.484C427.997 203.144 428.128 202.732 428.121 202.312L427.982 191.592C427.979 191.419 427.942 191.248 427.873 191.089C427.803 190.931 427.703 190.788 427.578 190.67C427.453 190.551 427.306 190.46 427.146 190.4C426.986 190.341 426.816 190.315 426.645 190.325L415.741 190.74" stroke="#EA9212" stroke-width="2"/>
<path d="M415.741 190.74L415.972 149.982" stroke="#F3A534" stroke-width="2"/>
<path d="M429.734 273.66L415.28 272.761" stroke="#EA9212" stroke-width="2"/>
<path d="M415.28 272.761L384.39 272.899" stroke="#EC9B23" stroke-width="2"/>
<path d="M419.107 370.988L384.943 373.892" stroke="#6B7784" stroke-width="2"/>
<path d="M415.28 272.761L416.594 295.975" stroke="#F3A534" stroke-width="2"/>
<path d="M359.469 348.212C359.7 348.504 359.984 348.696 360.322 348.788C360.83 348.942 361.091 349.288 361.106 349.826L361.198 374.193" stroke="#6B7784" stroke-width="2"/>
<path d="M240.864 272.784L196.995 273.199" stroke="#EC9B23" stroke-width="2"/>
<path d="M242.57 382.307L206.354 382.353" stroke="#6B7784" stroke-width="2"/>
<path d="M237.729 259.183L196.995 258.468" stroke="#EC9B23" stroke-width="2"/>
<path d="M420.628 382.215L384.32 381.961" stroke="#6B7784" stroke-width="2"/>
<path d="M331.829 165.52C323.092 151.665 304.074 154.777 294.853 165.474C294.315 166.119 294.392 166.672 295.084 167.133L304.282 173.312C304.958 173.757 305.572 173.688 306.126 173.104C309.338 169.831 313.18 169.124 317.652 170.983C318.3 171.254 318.858 171.693 319.266 172.251C321.732 175.571 328.925 168.908 331.461 167.226C332.137 166.78 332.26 166.211 331.829 165.52Z" stroke="#A7B1B9" stroke-width="2"/>
<path d="M316.707 1.84598C325.882 24.7911 331.33 45.3233 333.051 63.4427C334.757 81.5467 334.757 102.525 333.051 126.376C327.734 119.43 321.51 113.797 314.379 109.479C313.672 109.064 312.98 109.072 312.304 109.502C301.315 116.341 293.017 125.331 287.407 136.473C275.619 135.782 264.262 135.866 253.335 136.727C252.536 136.789 252.052 137.749 251.883 139.609L251.675 137.511C251.906 136.035 251.768 135.436 251.26 135.713C252.16 122.826 251.791 108.188 253.289 97.0073C258.745 56.7728 278.178 24.6143 311.589 0.531984C312.219 0.0709313 312.919 -0.0904373 313.687 0.0478786C315.885 0.447458 316.891 1.04683 316.707 1.84598Z" fill="#F06328"/>
<path d="M316.707 1.84595C348.12 25.1599 366.862 55.0361 372.932 91.4747C374.984 103.831 374.869 120.175 376.206 134.583L375.122 136.612L375.053 149.913L374.961 190.624V204.456L374.269 245.236L361.821 218.241L347.782 185.138C347.52 181.096 347.374 176.846 347.344 172.389C347.252 154.985 343.471 140.485 333.051 126.376C334.757 102.525 334.757 81.5466 333.051 63.4426C331.33 45.3232 325.882 24.791 316.707 1.84595Z" fill="#DE571E"/>
<path d="M229.752 88.0858C234.793 104.515 237.598 120.536 238.167 136.151L197.802 136.658C200.061 118.746 209.12 95.8085 223.459 82.876C223.728 82.6297 224.077 82.4877 224.444 82.475C224.811 82.4624 225.172 82.5799 225.465 82.8068C227.939 84.7432 229.368 86.5029 229.752 88.0858Z" fill="#F5B945"/>
<path d="M410.37 90.5297C410.078 91.2367 409.625 91.79 409.01 92.1895C408.318 92.6506 408.126 93.2576 408.434 94.0107C413.951 107.304 416.441 121.343 415.903 136.128L378.142 136.036C378.004 136.036 377.881 136.082 377.774 136.174C377.574 136.389 377.374 136.604 377.174 136.819C377.005 137.012 376.774 137.138 376.521 137.176C376.267 137.214 376.009 137.161 375.791 137.027L375.123 136.612L376.206 134.583C379.31 114.528 387.579 97.3456 401.011 83.0376C401.224 82.8097 401.484 82.63 401.773 82.5108C402.062 82.3917 402.373 82.3356 402.685 82.3466C402.997 82.3575 403.304 82.4351 403.583 82.5741C403.863 82.7132 404.11 82.9106 404.307 83.1529L410.37 90.5297Z" fill="#F5B945"/>
<path d="M229.752 88.0857C241.401 102.04 248.571 117.916 251.26 135.712C251.767 135.436 251.906 136.035 251.675 137.511L238.166 136.15C237.598 120.536 234.793 104.515 229.752 88.0857Z" fill="#F09C23"/>
<path d="M410.37 90.5295C420.866 104.638 427.137 120.252 429.181 137.373C425.877 135.882 421.45 135.467 415.902 136.128C416.44 121.343 413.951 107.304 408.433 94.0105C408.126 93.2574 408.318 92.6504 409.01 92.1893C409.624 91.7898 410.078 91.2365 410.37 90.5295Z" fill="#F09C23"/>
<path d="M333.052 126.376C343.471 140.484 347.252 154.985 347.344 172.389C347.375 176.846 347.521 181.096 347.782 185.137L347.413 346.898C347.198 346.944 346.975 346.975 346.745 346.99C346.422 347.005 346.199 346.867 346.076 346.575C341.589 335.11 332.998 328.632 320.303 327.142V294.545C320.303 293.685 319.873 293.262 319.013 293.277L307.878 293.646C307.187 293.662 306.833 294.023 306.818 294.73L306.61 326.865C294.961 328.387 286.554 334.204 281.391 344.316C281.28 344.536 281.099 344.711 280.876 344.814C280.652 344.917 280.401 344.941 280.162 344.882C279.924 344.823 279.712 344.685 279.563 344.49C279.413 344.295 279.334 344.055 279.339 343.809L279.108 184.469C279.339 172.666 278.74 161.278 282.105 149.36L287.407 136.473C293.017 125.331 301.316 116.341 312.304 109.502C312.98 109.071 313.672 109.064 314.379 109.479C321.51 113.797 327.734 119.43 333.052 126.376ZM331.83 165.52C323.093 151.665 304.074 154.777 294.853 165.474C294.315 166.119 294.392 166.672 295.084 167.133L304.282 173.311C304.958 173.757 305.573 173.688 306.126 173.104C309.338 169.83 313.18 169.124 317.652 170.983C318.3 171.254 318.858 171.693 319.266 172.251C321.733 175.571 328.925 168.908 331.461 167.226C332.137 166.78 332.26 166.211 331.83 165.52Z" fill="#CFD7DE"/>
<path d="M238.167 136.151L251.675 137.511L251.883 139.609L251.698 149.775L238.097 149.867L197.018 149.798L197.801 136.658L238.167 136.151Z" fill="#E38700"/>
<path d="M287.407 136.473L282.105 149.36L251.698 149.775L251.883 139.609C252.052 137.749 252.536 136.788 253.335 136.727C264.262 135.866 275.619 135.782 287.407 136.473Z" fill="#DE571E"/>
<path d="M415.903 136.128C421.451 135.467 425.877 135.882 429.181 137.373L429.78 147.885C426.061 149.882 421.458 150.582 415.972 149.982L375.053 149.913L375.122 136.612L375.791 137.027C376.009 137.161 376.267 137.214 376.52 137.176C376.774 137.138 377.005 137.012 377.174 136.819C377.374 136.604 377.574 136.389 377.773 136.174C377.881 136.082 378.004 136.035 378.142 136.035L415.903 136.128Z" fill="#E38700"/>
<path d="M429.78 147.884L429.803 264.07C427.89 255.356 420.628 260.658 415.625 258.998L415.856 204.525C419.975 205.247 423.602 205.139 426.737 204.202C427.143 204.077 427.498 203.825 427.747 203.484C427.996 203.143 428.127 202.732 428.12 202.312L427.982 191.592C427.979 191.419 427.941 191.247 427.872 191.089C427.802 190.93 427.702 190.788 427.578 190.669C427.453 190.551 427.306 190.459 427.145 190.4C426.985 190.341 426.815 190.315 426.645 190.324L415.741 190.739L415.971 149.982C421.458 150.581 426.061 149.882 429.78 147.884Z" fill="#F09C23"/>
<path d="M282.105 149.36C278.739 161.278 279.338 172.666 279.108 184.469L253.335 243.415C251.291 229.783 250.868 216.674 252.067 204.087L251.606 190.855L251.698 149.775L282.105 149.36Z" fill="#F06328"/>
<path d="M197.018 149.798L238.097 149.867L237.89 190.716L196.971 189.725L197.018 149.798Z" fill="#F5B945"/>
<path d="M238.097 149.867L251.698 149.775L251.606 190.854L237.89 190.716L238.097 149.867Z" fill="#F09C23"/>
<path d="M375.053 149.913L415.972 149.982L415.741 190.739L374.961 190.624L375.053 149.913Z" fill="#F5B945"/>
<path d="M294.853 165.474C304.074 154.777 323.092 151.665 331.829 165.52C332.26 166.211 332.137 166.78 331.461 167.226C328.925 168.908 321.732 175.571 319.266 172.251C318.858 171.693 318.3 171.254 317.652 170.983C313.18 169.124 309.338 169.831 306.126 173.104C305.572 173.688 304.958 173.757 304.282 173.312L295.084 167.133C294.392 166.672 294.315 166.119 294.853 165.474Z" fill="#7F8A94"/>
<path d="M279.108 184.469L279.339 343.809C279.334 344.055 279.413 344.295 279.562 344.49C279.712 344.685 279.923 344.823 280.162 344.882C280.401 344.941 280.652 344.917 280.875 344.814C281.099 344.711 281.28 344.536 281.39 344.316C286.554 334.204 294.961 328.387 306.61 326.865L306.379 367.738C306.379 368.043 306.258 368.336 306.042 368.553C305.826 368.769 305.533 368.89 305.227 368.89H280.261C279.293 368.89 278.809 368.406 278.809 367.438V349.826C278.809 349.621 278.768 349.418 278.689 349.229C278.61 349.04 278.494 348.869 278.348 348.725C278.202 348.582 278.029 348.468 277.839 348.392C277.649 348.316 277.446 348.278 277.241 348.281L170 348.765C170.2 329.585 179.206 314.886 197.018 304.666C210.204 296.52 223.29 288.513 236.276 280.645C239.412 278.754 240.264 276.08 240.864 272.784L246.327 260.036L253.335 243.415L279.108 184.469Z" fill="#B5BDC2"/>
<path d="M347.782 185.138L361.821 218.241L361.406 348.327C360.73 348.051 360.084 348.012 359.47 348.212L347.597 348.166C348.443 348.227 348.381 347.805 347.413 346.898L347.782 185.138Z" fill="#A6B0BD"/>
<path d="M196.971 189.725L237.89 190.716L251.606 190.855L252.067 204.087L237.705 204.617L196.994 204.64L196.971 189.725Z" fill="#E38700"/>
<path d="M374.961 190.624L415.741 190.74L426.645 190.325C426.815 190.315 426.986 190.341 427.146 190.4C427.306 190.46 427.453 190.551 427.578 190.67C427.703 190.788 427.803 190.931 427.872 191.089C427.942 191.248 427.979 191.419 427.982 191.592L428.12 202.312C428.128 202.732 427.997 203.144 427.747 203.484C427.498 203.825 427.143 204.077 426.737 204.202C423.602 205.14 419.975 205.247 415.856 204.525L374.961 204.456V190.624Z" fill="#E38700"/>
<path d="M252.068 204.087C250.869 216.674 251.292 229.783 253.336 243.415L246.328 260.036L237.729 259.183L237.706 204.617L252.068 204.087Z" fill="#F09C23"/>
<path d="M374.961 204.456L415.856 204.525L415.626 258.998L380.263 260.059L374.269 245.236L374.961 204.456Z" fill="#F5B945"/>
<path d="M196.995 204.64L237.706 204.617L237.729 259.183L196.995 258.468V204.64Z" fill="#F5B945"/>
<path d="M361.821 218.241L374.269 245.236L380.263 260.058C382.922 265.253 384.297 269.533 384.389 272.899C392.396 282.427 403.131 290.119 416.594 295.974L427.244 303.259C427.482 303.425 427.754 303.535 428.041 303.583C428.328 303.631 428.623 303.615 428.904 303.536L429.803 303.282C429.634 304.296 429.987 305.05 430.863 305.541C447.661 314.824 456.306 329.216 456.798 348.719L361.406 348.327L361.821 218.241Z" fill="#B5BDC2"/>
<path d="M196.995 258.468L237.729 259.183L246.327 260.036L240.864 272.784L196.995 273.199V258.468Z" fill="#E38700"/>
<path d="M415.626 258.998C420.628 260.658 427.89 255.356 429.803 264.07L429.734 273.66L415.28 272.761L384.39 272.899C384.297 269.533 382.922 265.253 380.263 260.059L415.626 258.998Z" fill="#E38700"/>
<path d="M384.39 272.899L415.28 272.761L416.594 295.975C403.131 290.119 392.397 282.427 384.39 272.899Z" fill="#F5B945"/>
<path d="M240.864 272.784C240.264 276.08 239.412 278.755 236.276 280.645C223.29 288.514 210.204 296.52 197.018 304.666L196.995 273.199L240.864 272.784Z" fill="#F5B945"/>
<path d="M415.28 272.761L429.734 273.66L429.803 303.282L428.904 303.536C428.623 303.615 428.328 303.631 428.041 303.583C427.754 303.536 427.482 303.425 427.244 303.259L416.594 295.975L415.28 272.761Z" fill="#F09C23"/>
<path d="M320.303 327.142L320.349 366.608C320.349 367.248 320.598 367.863 321.042 368.32C321.486 368.777 322.09 369.039 322.724 369.051L347.298 369.466L348.059 375.276C345.5 378.664 347.482 389.568 346.652 394.709C346.514 395.539 346.03 395.954 345.2 395.954L319.911 395.931L320.073 370.872C320.073 369.689 319.481 369.097 318.298 369.097L308.961 368.982C308.732 368.979 308.505 369.022 308.293 369.107C308.08 369.193 307.887 369.319 307.724 369.48C307.561 369.641 307.431 369.833 307.343 370.044C307.255 370.255 307.209 370.482 307.209 370.711L307.002 395.908L280.791 395.885C280.453 395.885 280.128 395.752 279.886 395.515C279.645 395.278 279.506 394.955 279.5 394.617L279.316 377.811C279.311 377.093 279.031 376.403 278.534 375.885C278.036 375.366 277.359 375.057 276.642 375.022L241.671 373.201C235.815 372.97 211.149 369.766 207.161 371.841C203.98 368.636 177.769 368.844 171.498 368.429C170.653 368.367 170.223 367.914 170.207 367.069L170 348.765L277.241 348.281C277.446 348.278 277.649 348.316 277.839 348.392C278.029 348.468 278.202 348.581 278.348 348.725C278.494 348.869 278.61 349.04 278.689 349.229C278.768 349.418 278.809 349.621 278.809 349.825V367.438C278.809 368.406 279.293 368.89 280.261 368.89H305.227C305.533 368.89 305.826 368.769 306.042 368.552C306.258 368.336 306.379 368.043 306.379 367.737L306.61 326.865L306.817 294.73C306.833 294.023 307.186 293.661 307.878 293.646L319.012 293.277C319.873 293.262 320.303 293.685 320.303 294.545V327.142Z" fill="#7F8A94"/>
<path d="M320.303 327.142C332.998 328.632 341.589 335.11 346.076 346.575C346.199 346.867 346.422 347.005 346.745 346.99C346.975 346.975 347.198 346.944 347.413 346.898C348.381 347.804 348.443 348.227 347.598 348.166L347.298 369.466L322.724 369.051C322.09 369.039 321.486 368.777 321.042 368.32C320.598 367.863 320.349 367.248 320.349 366.608L320.303 327.142Z" fill="#B5BDC2"/>
<path d="M347.598 348.166L359.47 348.212C359.7 348.504 359.984 348.696 360.323 348.788C360.83 348.942 361.091 349.288 361.106 349.826L361.199 374.192L348.059 375.276L347.298 369.467L347.598 348.166Z" fill="#576373"/>
<path d="M359.469 348.212C360.084 348.013 360.73 348.051 361.406 348.328L456.798 348.72L456.867 366.631C456.868 367.217 456.646 367.781 456.247 368.206C455.848 368.631 455.302 368.884 454.723 368.914L419.107 370.988L384.943 373.893L384.297 373.501C383.852 373.209 383.36 373.078 382.822 373.109L361.198 374.193L361.106 349.826C361.091 349.288 360.83 348.942 360.322 348.789C359.984 348.696 359.7 348.504 359.469 348.212Z" fill="#7F8A94"/>
<path d="M319.911 395.931L307.002 395.908L307.209 370.712C307.209 370.483 307.255 370.256 307.343 370.045C307.431 369.833 307.561 369.642 307.724 369.481C307.887 369.32 308.08 369.193 308.292 369.108C308.505 369.022 308.732 368.98 308.961 368.983L318.297 369.098C319.481 369.098 320.073 369.69 320.073 370.873L319.911 395.931Z" fill="#576373"/>
<path d="M241.671 373.201L242.57 382.307L206.354 382.353L207.161 371.841C211.149 369.767 235.815 372.971 241.671 373.201Z" fill="#576373"/>
<path d="M419.107 370.988L420.628 382.214L384.32 381.961L384.943 373.892L419.107 370.988Z" fill="#576373"/>
<path d="M384.32 381.961L420.628 382.215L421.896 392.588C422.173 394.817 421.189 395.931 418.945 395.931L384.712 396C384.489 396.001 384.268 395.955 384.064 395.865C383.859 395.776 383.676 395.644 383.526 395.479C383.376 395.313 383.263 395.118 383.193 394.906C383.123 394.694 383.099 394.47 383.121 394.248L384.32 381.961Z" fill="#7F8A94"/>
<path d="M206.354 382.353L242.569 382.307L243.745 394.387C243.764 394.589 243.741 394.793 243.677 394.985C243.613 395.178 243.509 395.354 243.372 395.504C243.235 395.654 243.068 395.774 242.882 395.855C242.696 395.937 242.496 395.978 242.293 395.977H206.561C205.501 395.977 205.024 395.455 205.132 394.41L206.354 382.353Z" fill="#7F8A94"/>
</svg>
