<?xml version="1.0" encoding="UTF-8" standalone="no"?>
<!DOCTYPE svg PUBLIC "-//W3C//DTD SVG 1.1//EN" "http://www.w3.org/Graphics/SVG/1.1/DTD/svg11.dtd">
<svg xmlns="http://www.w3.org/2000/svg" version="1.1" viewBox="0.00 0.00 626.00 395.00">
<g stroke-width="2.00" fill="none" stroke-linecap="butt">
<path stroke="#369aee" vector-effect="non-scaling-stroke" d="
  M 440.28 177.72
  Q 440.02 177.86 439.96 178.23
  Q 439.88 178.69 439.41 178.69
  L 406.60 178.73"
/>
<path stroke="#367bb8" vector-effect="non-scaling-stroke" d="
  M 406.60 178.73
  L 406.54 150.84
  Q 406.54 150.20 405.91 150.23
  L 403.87 150.31
  Q 403.45 150.33 403.45 150.75
  L 403.41 178.61"
/>
<path stroke="#369aee" vector-effect="non-scaling-stroke" d="
  M 403.41 178.61
  L 396.67 178.94
  Q 396.16 178.96 395.90 179.41
  Q 384.10 200.36 372.25 221.24
  Q 371.90 221.86 371.21 221.53"
/>
<path stroke="#3579e0" vector-effect="non-scaling-stroke" d="
  M 371.75 174.46
  Q 371.07 174.17 371.29 173.77
  Q 377.65 162.58 384.04 151.42
  Q 384.30 150.97 384.04 150.52
  L 381.47 145.95"
/>
<path stroke="#369aee" vector-effect="non-scaling-stroke" d="
  M 381.47 145.95
  Q 380.34 144.62 377.52 145.20"
/>
<path stroke="#0269ce" vector-effect="non-scaling-stroke" d="
  M 381.47 145.95
  L 327.93 240.04
  Q 327.69 240.47 327.18 240.47
  L 141.90 240.42"
/>
<path stroke="#4091ee" vector-effect="non-scaling-stroke" d="
  M 141.90 240.42
  Q 143.49 236.11 145.81 233.21"
/>
<path stroke="#036ba7" vector-effect="non-scaling-stroke" d="
  M 145.81 233.21
  L 149.52 225.79"
/>
<path stroke="#369aee" vector-effect="non-scaling-stroke" d="
  M 149.52 225.79
  L 173.83 183.35"
/>
<path stroke="#0269ce" vector-effect="non-scaling-stroke" d="
  M 540.30 179.85
  L 499.22 252.05"
/>
<path stroke="#369aee" vector-effect="non-scaling-stroke" d="
  M 499.22 252.05
  Q 496.37 251.52 492.91 250.86
  Q 489.24 250.15 486.54 250.27
  Q 480.26 250.55 474.74 252.66"
/>
<path stroke="#0269ce" vector-effect="non-scaling-stroke" d="
  M 474.74 252.66
  L 356.33 252.53
  Q 355.94 252.53 355.59 252.70
  Q 355.25 252.86 354.91 252.72"
/>
<path stroke="#0180ba" vector-effect="non-scaling-stroke" d="
  M 270.23 245.78
  L 244.89 245.56
  Q 244.32 245.56 244.30 246.13
  L 244.22 248.79"
/>
<path stroke="#3f71e0" vector-effect="non-scaling-stroke" d="
  M 199.96 246.25
  Q 198.63 245.75 197.19 245.73
  Q 178.10 245.55 159.38 245.98"
/>
<path stroke="#024a99" vector-effect="non-scaling-stroke" d="
  M 159.38 245.98
  L 155.88 246.09"
/>
<path stroke="#3f71e0" vector-effect="non-scaling-stroke" d="
  M 155.88 246.09
  Q 152.42 245.11 149.46 246.25"
/>
<path stroke="#024a99" vector-effect="non-scaling-stroke" d="
  M 149.46 246.25
  Q 148.55 245.18 146.69 246.13"
/>
<path stroke="#3f71e0" vector-effect="non-scaling-stroke" d="
  M 146.69 246.13
  Q 143.03 246.31 141.90 240.42"
/>
<path stroke="#036ba7" vector-effect="non-scaling-stroke" d="
  M 406.60 178.73
  Q 404.62 179.46 403.41 178.61"
/>
<path stroke="#4073b8" vector-effect="non-scaling-stroke" d="
  M 146.69 246.13
  L 146.64 271.63"
/>
<path stroke="#4073b8" vector-effect="non-scaling-stroke" d="
  M 145.81 233.21
  L 132.31 214.41"
/>
<path stroke="#367bb8" vector-effect="non-scaling-stroke" d="
  M 149.52 225.79
  L 149.49 193.56
  Q 149.48 193.00 148.92 193.00
  L 147.25 193.00
  Q 146.75 193.00 146.75 193.50
  L 146.75 228.28
  A 0.49 0.49 0.0 0 1 145.87 228.57
  L 135.03 213.60
  Q 134.62 213.03 134.02 213.39
  L 132.31 214.41"
/>
<path stroke="#73a2ff" vector-effect="non-scaling-stroke" d="
  M 132.31 214.41
  Q 123.38 211.63 113.18 212.09
  C 109.62 212.25 98.46 213.30 96.89 208.91"
/>
<path stroke="#3579e0" vector-effect="non-scaling-stroke" d="
  M 502.81 252.92
  Q 502.45 253.60 499.22 252.05"
/>
<path stroke="#73a2ff" vector-effect="non-scaling-stroke" d="
  M 526.47 271.75
  C 520.93 273.75 516.23 272.47 511.62 272.51
  Q 482.81 272.79 454.00 272.65
  C 449.05 272.62 443.65 271.77 436.70 272.67"
/>
<path stroke="#35c0dd" vector-effect="non-scaling-stroke" d="
  M 436.70 272.67
  Q 442.04 269.01 445.42 263.11"
/>
<path stroke="#35b1d9" vector-effect="non-scaling-stroke" d="
  M 445.42 263.11
  L 450.36 256.49"
/>
<path stroke="#3579e0" vector-effect="non-scaling-stroke" d="
  M 450.36 256.49
  C 453.66 253.89 455.94 254.29 460.08 255.75
  Q 467.88 258.48 474.74 252.66"
/>
<path stroke="#0180ba" vector-effect="non-scaling-stroke" d="
  M 450.36 256.49
  L 433.24 256.32
  Q 432.99 256.32 433.11 256.53
  Q 433.19 256.66 433.37 256.68"
/>
<path stroke="#3f71e0" vector-effect="non-scaling-stroke" d="
  M 431.66 256.66
  L 406.49 256.51"
/>
<path stroke="#024a99" vector-effect="non-scaling-stroke" d="
  M 406.49 256.51
  Q 404.87 255.97 403.65 256.68"
/>
<path stroke="#3f71e0" vector-effect="non-scaling-stroke" d="
  M 403.65 256.68
  L 376.10 256.80"
/>
<path stroke="#4073b8" vector-effect="non-scaling-stroke" d="
  M 149.46 246.25
  L 149.57 252.76
  Q 149.59 253.60 150.13 252.95
  L 155.88 246.09"
/>
<path stroke="#4073b8" vector-effect="non-scaling-stroke" d="
  M 159.38 245.98
  L 149.81 257.56
  Q 149.52 257.90 149.52 258.35
  L 149.49 270.01
  Q 149.49 270.47 149.95 270.51
  Q 150.09 270.53 150.24 270.52"
/>
<path stroke="#00c7b7" vector-effect="non-scaling-stroke" d="
  M 270.44 269.54
  Q 270.90 275.35 265.93 278.15
  Q 265.42 278.43 265.88 278.79
  Q 272.96 284.25 271.55 293.99"
/>
<path stroke="#00c7b7" vector-effect="non-scaling-stroke" d="
  M 270.10 258.20
  Q 257.88 253.38 245.81 248.94
  Q 244.99 248.63 244.22 248.79"
/>
<path stroke="#3fb7dd" vector-effect="non-scaling-stroke" d="
  M 436.70 272.67
  C 428.55 280.28 434.61 287.53 439.68 294.00"
/>
<path stroke="#00c7b7" vector-effect="non-scaling-stroke" d="
  M 445.42 263.11
  Q 439.96 260.32 433.99 258.94"
/>
<path stroke="#4073b8" vector-effect="non-scaling-stroke" d="
  M 406.49 256.51
  L 406.57 260.63"
/>
<path stroke="#4073b8" vector-effect="non-scaling-stroke" d="
  M 402.58 260.42
  Q 403.76 260.39 403.65 256.68"
/>
<path stroke="#78c3ed" vector-effect="non-scaling-stroke" d="
  M 153.23 234.78
  Q 238.27 234.69 323.19 234.77
  C 324.23 234.77 325.04 235.50 325.83 234.12
  Q 349.38 193.12 372.61 152.10
  A 0.40 0.40 0.0 0 0 372.26 151.50
  L 200.77 151.50
  Q 200.25 151.50 200.00 151.95
  L 153.04 234.46
  A 0.22 0.21 14.6 0 0 153.23 234.78"
/>
<path stroke="#d4f4f1" vector-effect="non-scaling-stroke" d="
  M 194.76 171.72
  A 0.35 0.35 0.0 0 0 195.24 172.19
  L 220.15 157.34
  A 0.35 0.35 0.0 0 0 219.97 156.69
  L 203.26 156.98
  A 0.35 0.35 0.0 0 0 202.96 157.16
  L 194.76 171.72"
/>
<path stroke="#d4f4f1" vector-effect="non-scaling-stroke" d="
  M 191.88 190.41
  C 195.65 191.89 201.17 190.30 204.69 188.14
  Q 224.34 176.14 244.28 164.62
  C 247.67 162.66 249.70 161.01 251.07 157.59
  A 0.57 0.57 0.0 0 0 250.61 156.81
  C 246.29 156.27 244.55 157.90 241.21 159.92
  Q 216.83 174.67 191.80 189.37
  A 0.58 0.58 0.0 0 0 191.88 190.41"
/>
<path stroke="#d4f4f1" vector-effect="non-scaling-stroke" d="
  M 294.17 156.92
  Q 281.15 156.57 269.25 156.61
  C 261.95 156.63 254.04 162.80 250.60 168.91
  Q 244.89 179.04 239.30 189.13
  A 0.23 0.23 0.0 0 0 239.62 189.44
  Q 266.80 172.91 294.19 157.01
  A 0.05 0.05 0.0 0 0 294.17 156.92"
/>
<path stroke="#d4f4f1" vector-effect="non-scaling-stroke" d="
  M 243.25 189.99
  Q 245.69 190.56 247.75 190.55
  C 256.46 190.51 265.90 191.19 274.46 190.02
  Q 274.95 189.95 275.36 189.68
  Q 282.13 185.38 288.99 181.22
  C 292.80 178.92 296.38 178.15 298.85 174.01
  Q 303.70 165.90 307.96 157.87
  Q 308.46 156.93 307.41 156.83
  C 302.89 156.40 299.18 156.60 295.09 159.09
  Q 270.33 174.16 245.27 188.75
  Q 244.22 189.37 243.24 189.73
  Q 242.81 189.89 243.25 189.99"
/>
<path stroke="#d4f4f1" vector-effect="non-scaling-stroke" d="
  M 307.47 169.67
  A 0.32 0.32 0.0 0 0 307.91 170.10
  L 329.21 157.15
  A 0.32 0.32 0.0 0 0 329.03 156.56
  L 314.78 157.10
  A 0.32 0.32 0.0 0 0 314.51 157.26
  L 307.47 169.67"
/>
<path stroke="#d4f4f1" vector-effect="non-scaling-stroke" d="
  M 304.35 177.12
  C 301.08 179.02 297.63 186.46 296.17 189.98
  Q 295.96 190.48 296.50 190.48
  L 344.23 190.55
  Q 344.83 190.55 345.13 190.02
  L 363.38 157.65
  Q 363.67 157.13 363.07 157.09
  C 357.43 156.74 340.73 155.32 336.30 158.04
  Q 320.44 167.77 304.35 177.12"
/>
<path stroke="#d4f4f1" vector-effect="non-scaling-stroke" d="
  M 210.11 189.88
  A 0.32 0.32 0.0 0 0 210.27 190.47
  L 232.09 190.52
  A 0.32 0.32 0.0 0 0 232.37 190.36
  L 243.44 170.73
  A 0.32 0.32 0.0 0 0 243.00 170.29
  L 210.11 189.88"
/>
<path stroke="#d4f4f1" vector-effect="non-scaling-stroke" d="
  M 292.51 185.35
  A 0.31 0.31 0.0 0 0 292.10 184.91
  L 283.02 189.94
  A 0.31 0.31 0.0 0 0 283.17 190.52
  L 289.08 190.47
  A 0.31 0.31 0.0 0 0 289.34 190.33
  L 292.51 185.35"
/>
<path stroke="#d4f4f1" vector-effect="non-scaling-stroke" d="
  M 176.33 203.94
  A 0.50 0.50 0.0 0 0 177.03 204.61
  L 190.35 196.57
  A 0.50 0.50 0.0 0 0 190.08 195.64
  L 181.13 195.87
  A 0.50 0.50 0.0 0 0 180.71 196.13
  L 176.33 203.94"
/>
<path stroke="#d4f4f1" vector-effect="non-scaling-stroke" d="
  M 217.24 229.76
  L 266.21 229.69
  A 1.95 1.94 14.9 0 0 267.90 228.71
  L 286.24 196.27
  Q 286.51 195.80 285.96 195.78
  C 281.81 195.65 274.29 194.87 270.69 197.07
  Q 245.25 212.63 217.06 229.10
  A 0.36 0.35 -60.4 0 0 217.24 229.76"
/>
<path stroke="#d4f4f1" vector-effect="non-scaling-stroke" d="
  M 226.89 195.91
  C 221.02 195.76 202.28 194.42 198.57 196.68
  Q 186.29 204.13 173.89 211.47
  C 169.41 214.12 164.92 223.83 162.36 228.59
  A 0.55 0.54 18.9 0 0 162.75 229.38
  C 168.20 230.33 172.50 229.52 177.49 226.46
  Q 202.46 211.14 227.15 196.92
  Q 228.81 195.96 226.89 195.91"
/>
<path stroke="#d4f4f1" vector-effect="non-scaling-stroke" d="
  M 235.25 196.04
  L 220.69 221.66
  A 0.15 0.15 0.0 0 0 220.90 221.87
  L 264.21 195.99
  Q 264.62 195.75 264.15 195.75
  L 235.74 195.75
  A 0.56 0.56 0.0 0 0 235.25 196.04"
/>
<path stroke="#d4f4f1" vector-effect="non-scaling-stroke" d="
  M 292.44 195.99
  L 273.73 228.74
  Q 273.45 229.23 273.99 229.38
  Q 278.78 230.69 282.80 228.28
  Q 309.56 212.27 336.37 196.25
  Q 337.15 195.78 336.24 195.78
  L 292.87 195.74
  A 0.50 0.49 14.4 0 0 292.44 195.99"
/>
<path stroke="#d4f4f1" vector-effect="non-scaling-stroke" d="
  M 178.02 229.39
  Q 191.52 229.68 204.81 229.67
  C 208.16 229.67 209.99 229.28 211.84 226.23
  Q 219.38 213.79 226.07 200.81
  Q 226.32 200.32 225.84 200.60
  L 177.94 229.10
  Q 177.46 229.38 178.02 229.39"
/>
<path stroke="#78c3ed" vector-effect="non-scaling-stroke" d="
  M 400.45 183.28
  A 0.34 0.34 0.0 0 0 400.15 183.45
  L 363.70 247.49
  A 0.34 0.34 0.0 0 0 363.99 248.00
  L 497.24 248.00
  A 0.34 0.34 0.0 0 0 497.54 247.83
  L 533.87 183.93
  A 0.34 0.34 0.0 0 0 533.58 183.42
  L 400.45 183.28"
/>
<path stroke="#d4f4f1" vector-effect="non-scaling-stroke" d="
  M 395.86 198.79
  A 0.38 0.38 0.0 0 0 396.38 199.31
  L 415.28 188.22
  A 0.38 0.38 0.0 0 0 415.08 187.52
  L 402.56 187.83
  A 0.38 0.38 0.0 0 0 402.24 188.02
  L 395.86 198.79"
/>
<path stroke="#d4f4f1" vector-effect="non-scaling-stroke" d="
  M 394.41 212.39
  Q 392.93 213.27 394.64 213.49
  Q 399.82 214.17 403.30 212.05
  Q 419.90 201.96 436.72 192.24
  Q 438.63 191.13 439.62 188.17
  Q 439.82 187.59 439.21 187.51
  Q 436.47 187.16 433.76 188.80
  Q 413.73 200.89 394.41 212.39"
/>
<path stroke="#d4f4f1" vector-effect="non-scaling-stroke" d="
  M 438.47 198.29
  Q 434.55 205.13 430.93 211.87
  Q 430.38 212.89 431.38 212.30
  L 471.90 188.22
  Q 472.37 187.93 471.82 187.89
  C 461.97 187.05 450.53 185.95 443.87 191.32
  Q 441.25 193.43 438.47 198.29"
/>
<path stroke="#d4f4f1" vector-effect="non-scaling-stroke" d="
  M 472.81 204.60
  C 477.27 202.11 481.18 192.96 483.86 188.41
  Q 484.21 187.82 483.53 187.69
  Q 478.18 186.67 472.57 190.08
  Q 453.53 201.62 435.44 212.28
  Q 433.25 213.57 435.79 213.52
  Q 444.82 213.37 454.27 213.75
  C 459.27 213.95 468.23 207.16 472.81 204.60"
/>
<path stroke="#d4f4f1" vector-effect="non-scaling-stroke" d="
  M 490.81 187.66
  C 487.73 187.61 484.50 195.63 483.66 197.39
  Q 483.41 197.90 483.90 197.61
  L 500.18 188.04
  Q 500.65 187.77 500.10 187.77
  Q 495.46 187.74 490.81 187.66"
/>
<path stroke="#d4f4f1" vector-effect="non-scaling-stroke" d="
  M 480.60 203.63
  C 478.64 204.80 475.64 210.77 474.76 212.74
  Q 474.46 213.42 475.20 213.43
  L 511.76 213.80
  A 0.80 0.80 0.0 0 0 512.46 213.39
  L 526.60 188.40
  A 0.60 0.59 -74.9 0 0 526.09 187.51
  C 521.02 187.48 509.06 186.29 504.87 188.87
  Q 492.77 196.32 480.60 203.63"
/>
<path stroke="#d4f4f1" vector-effect="non-scaling-stroke" d="
  M 425.31 213.31
  L 433.65 198.17
  Q 434.02 197.50 433.37 197.89
  L 408.16 212.97
  Q 407.54 213.34 408.26 213.43
  C 413.29 214.08 418.95 213.30 424.28 213.85
  A 1.06 1.04 16.9 0 0 425.31 213.31"
/>
<path stroke="#d4f4f1" vector-effect="non-scaling-stroke" d="
  M 471.31 208.60
  L 464.35 213.02
  A 0.16 0.16 0.0 0 0 464.30 213.24
  L 464.30 213.24
  A 4.18 2.38 -32.4 0 0 469.11 213.01
  L 469.27 212.90
  A 4.18 2.38 -32.4 0 0 471.53 208.65
  L 471.53 208.65
  A 0.16 0.16 0.0 0 0 471.31 208.60"
/>
<path stroke="#d4f4f1" vector-effect="non-scaling-stroke" d="
  M 389.48 217.84
  C 384.85 216.31 382.88 221.04 381.59 224.42
  Q 381.31 225.16 381.98 224.75
  L 392.98 218.14
  Q 393.40 217.88 392.92 217.79
  Q 391.71 217.56 390.44 217.88
  A 1.74 1.69 -41.8 0 1 389.48 217.84"
/>
<path stroke="#d4f4f1" vector-effect="non-scaling-stroke" d="
  M 379.17 230.49
  C 376.05 232.44 372.95 239.10 371.18 242.40
  Q 370.50 243.67 371.92 243.89
  C 376.17 244.55 379.32 243.50 383.19 241.13
  Q 402.07 229.53 421.42 218.50
  A 0.27 0.27 0.0 0 0 421.30 218.00
  C 416.45 217.78 402.11 216.50 398.28 218.79
  Q 388.66 224.54 379.17 230.49"
/>
<path stroke="#d4f4f1" vector-effect="non-scaling-stroke" d="
  M 427.05 218.29
  L 416.72 236.44
  Q 415.60 238.41 417.54 237.25
  L 449.92 217.90
  Q 450.11 217.79 449.89 217.79
  L 428.01 217.73
  A 1.11 1.10 -75.0 0 0 427.05 218.29"
/>
<path stroke="#d4f4f1" vector-effect="non-scaling-stroke" d="
  M 413.49 243.59
  A 0.32 0.32 0.0 0 0 413.79 244.01
  L 451.74 243.98
  Q 452.24 243.98 452.49 243.54
  L 466.67 218.42
  Q 466.95 217.92 466.38 217.86
  C 461.76 217.38 457.52 217.19 453.35 219.70
  Q 435.15 230.69 416.84 241.48
  A 1.86 1.82 28.7 0 1 415.95 241.73
  Q 414.06 241.78 413.49 243.59"
/>
<path stroke="#d4f4f1" vector-effect="non-scaling-stroke" d="
  M 471.60 218.13
  L 457.44 242.77
  A 0.80 0.80 0.0 0 0 458.07 243.97
  C 460.64 244.17 462.68 243.89 465.00 242.50
  Q 484.00 231.15 503.01 219.80
  Q 504.36 218.99 505.89 218.24
  Q 506.87 217.75 505.77 217.75
  L 472.25 217.75
  A 0.76 0.74 -74.6 0 0 471.60 218.13"
/>
<path stroke="#d4f4f1" vector-effect="non-scaling-stroke" d="
  M 420.01 222.02
  A 0.30 0.30 0.0 0 0 419.60 221.62
  L 383.04 243.58
  A 0.30 0.30 0.0 0 0 383.20 244.14
  L 407.87 243.80
  A 0.30 0.30 0.0 0 0 408.13 243.64
  L 420.01 222.02"
/>
</g>
<path fill="#69aaff" d="
  M 440.28 177.72
  Q 440.02 177.86 439.96 178.23
  Q 439.88 178.69 439.41 178.69
  L 406.60 178.73
  L 406.54 150.84
  Q 406.54 150.20 405.91 150.23
  L 403.87 150.31
  Q 403.45 150.33 403.45 150.75
  L 403.41 178.61
  L 396.67 178.94
  Q 396.16 178.96 395.90 179.41
  Q 384.10 200.36 372.25 221.24
  Q 371.90 221.86 371.21 221.53
  C 369.12 217.92 367.18 213.13 368.65 209.22
  C 370.57 204.09 377.91 201.48 379.09 196.23
  C 379.85 192.88 376.22 186.73 374.54 183.84
  C 372.71 180.69 372.20 177.86 371.75 174.46
  Q 371.07 174.17 371.29 173.77
  Q 377.65 162.58 384.04 151.42
  Q 384.30 150.97 384.04 150.52
  L 381.47 145.95
  Q 380.34 144.62 377.52 145.20
  C 380.81 138.80 383.77 133.73 388.96 128.11
  Q 396.01 120.49 402.21 111.28
  C 409.12 101.01 420.51 105.04 422.31 116.57
  C 423.44 123.73 423.80 131.75 426.93 138.33
  C 431.91 148.80 441.45 158.76 440.51 170.74
  Q 440.14 175.50 440.28 177.72
  Z"
/>
<path fill="#0289dc" d="
  M 377.52 145.20
  Q 380.34 144.62 381.47 145.95
  L 327.93 240.04
  Q 327.69 240.47 327.18 240.47
  L 141.90 240.42
  Q 143.49 236.11 145.81 233.21
  L 149.52 225.79
  L 173.83 183.35
  C 174.45 182.00 175.57 180.89 176.21 179.73
  Q 185.04 163.65 194.25 147.78
  C 195.86 145.00 200.74 145.55 203.58 145.57
  Q 309.05 145.98 364.75 146.03
  Q 370.64 146.04 377.52 145.20
  Z
  M 153.23 234.78
  Q 238.27 234.69 323.19 234.77
  C 324.23 234.77 325.04 235.50 325.83 234.12
  Q 349.38 193.12 372.61 152.10
  A 0.40 0.40 0.0 0 0 372.26 151.50
  L 200.77 151.50
  Q 200.25 151.50 200.00 151.95
  L 153.04 234.46
  A 0.22 0.21 14.6 0 0 153.23 234.78
  Z"
/>
<path fill="#0148c0" d="
  M 381.47 145.95
  L 384.04 150.52
  Q 384.30 150.97 384.04 151.42
  Q 377.65 162.58 371.29 173.77
  Q 371.07 174.17 371.75 174.46
  Q 370.80 174.57 370.17 175.67
  Q 350.29 210.53 330.54 245.22
  A 1.12 1.11 14.7 0 1 329.57 245.78
  L 270.23 245.78
  L 244.89 245.56
  Q 244.32 245.56 244.30 246.13
  L 244.22 248.79
  L 243.97 246.36
  Q 243.92 245.85 243.41 245.85
  Q 222.71 245.64 202.07 245.80
  Q 201.57 245.80 199.96 246.25
  Q 198.63 245.75 197.19 245.73
  Q 178.10 245.55 159.38 245.98
  L 155.88 246.09
  Q 152.42 245.11 149.46 246.25
  Q 148.55 245.18 146.69 246.13
  Q 143.03 246.31 141.90 240.42
  L 327.18 240.47
  Q 327.69 240.47 327.93 240.04
  L 381.47 145.95
  Z"
/>
<path fill="#034c71" d="
  M 406.60 178.73
  Q 404.62 179.46 403.41 178.61
  L 403.45 150.75
  Q 403.45 150.33 403.87 150.31
  L 405.91 150.23
  Q 406.54 150.20 406.54 150.84
  L 406.60 178.73
  Z"
/>
<path fill="#edfdfe" d="
  M 153.23 234.78
  A 0.22 0.21 14.6 0 1 153.04 234.46
  L 200.00 151.95
  Q 200.25 151.50 200.77 151.50
  L 372.26 151.50
  A 0.40 0.40 0.0 0 1 372.61 152.10
  Q 349.38 193.12 325.83 234.12
  C 325.04 235.50 324.23 234.77 323.19 234.77
  Q 238.27 234.69 153.23 234.78
  Z
  M 194.76 171.72
  A 0.35 0.35 0.0 0 0 195.24 172.19
  L 220.15 157.34
  A 0.35 0.35 0.0 0 0 219.97 156.69
  L 203.26 156.98
  A 0.35 0.35 0.0 0 0 202.96 157.16
  L 194.76 171.72
  Z
  M 191.88 190.41
  C 195.65 191.89 201.17 190.30 204.69 188.14
  Q 224.34 176.14 244.28 164.62
  C 247.67 162.66 249.70 161.01 251.07 157.59
  A 0.57 0.57 0.0 0 0 250.61 156.81
  C 246.29 156.27 244.55 157.90 241.21 159.92
  Q 216.83 174.67 191.80 189.37
  A 0.58 0.58 0.0 0 0 191.88 190.41
  Z
  M 294.17 156.92
  Q 281.15 156.57 269.25 156.61
  C 261.95 156.63 254.04 162.80 250.60 168.91
  Q 244.89 179.04 239.30 189.13
  A 0.23 0.23 0.0 0 0 239.62 189.44
  Q 266.80 172.91 294.19 157.01
  A 0.05 0.05 0.0 0 0 294.17 156.92
  Z
  M 243.25 189.99
  Q 245.69 190.56 247.75 190.55
  C 256.46 190.51 265.90 191.19 274.46 190.02
  Q 274.95 189.95 275.36 189.68
  Q 282.13 185.38 288.99 181.22
  C 292.80 178.92 296.38 178.15 298.85 174.01
  Q 303.70 165.90 307.96 157.87
  Q 308.46 156.93 307.41 156.83
  C 302.89 156.40 299.18 156.60 295.09 159.09
  Q 270.33 174.16 245.27 188.75
  Q 244.22 189.37 243.24 189.73
  Q 242.81 189.89 243.25 189.99
  Z
  M 307.47 169.67
  A 0.32 0.32 0.0 0 0 307.91 170.10
  L 329.21 157.15
  A 0.32 0.32 0.0 0 0 329.03 156.56
  L 314.78 157.10
  A 0.32 0.32 0.0 0 0 314.51 157.26
  L 307.47 169.67
  Z
  M 304.35 177.12
  C 301.08 179.02 297.63 186.46 296.17 189.98
  Q 295.96 190.48 296.50 190.48
  L 344.23 190.55
  Q 344.83 190.55 345.13 190.02
  L 363.38 157.65
  Q 363.67 157.13 363.07 157.09
  C 357.43 156.74 340.73 155.32 336.30 158.04
  Q 320.44 167.77 304.35 177.12
  Z
  M 210.11 189.88
  A 0.32 0.32 0.0 0 0 210.27 190.47
  L 232.09 190.52
  A 0.32 0.32 0.0 0 0 232.37 190.36
  L 243.44 170.73
  A 0.32 0.32 0.0 0 0 243.00 170.29
  L 210.11 189.88
  Z
  M 292.51 185.35
  A 0.31 0.31 0.0 0 0 292.10 184.91
  L 283.02 189.94
  A 0.31 0.31 0.0 0 0 283.17 190.52
  L 289.08 190.47
  A 0.31 0.31 0.0 0 0 289.34 190.33
  L 292.51 185.35
  Z
  M 176.33 203.94
  A 0.50 0.50 0.0 0 0 177.03 204.61
  L 190.35 196.57
  A 0.50 0.50 0.0 0 0 190.08 195.64
  L 181.13 195.87
  A 0.50 0.50 0.0 0 0 180.71 196.13
  L 176.33 203.94
  Z
  M 217.24 229.76
  L 266.21 229.69
  A 1.95 1.94 14.9 0 0 267.90 228.71
  L 286.24 196.27
  Q 286.51 195.80 285.96 195.78
  C 281.81 195.65 274.29 194.87 270.69 197.07
  Q 245.25 212.63 217.06 229.10
  A 0.36 0.35 -60.4 0 0 217.24 229.76
  Z
  M 226.89 195.91
  C 221.02 195.76 202.28 194.42 198.57 196.68
  Q 186.29 204.13 173.89 211.47
  C 169.41 214.12 164.92 223.83 162.36 228.59
  A 0.55 0.54 18.9 0 0 162.75 229.38
  C 168.20 230.33 172.50 229.52 177.49 226.46
  Q 202.46 211.14 227.15 196.92
  Q 228.81 195.96 226.89 195.91
  Z
  M 235.25 196.04
  L 220.69 221.66
  A 0.15 0.15 0.0 0 0 220.90 221.87
  L 264.21 195.99
  Q 264.62 195.75 264.15 195.75
  L 235.74 195.75
  A 0.56 0.56 0.0 0 0 235.25 196.04
  Z
  M 292.44 195.99
  L 273.73 228.74
  Q 273.45 229.23 273.99 229.38
  Q 278.78 230.69 282.80 228.28
  Q 309.56 212.27 336.37 196.25
  Q 337.15 195.78 336.24 195.78
  L 292.87 195.74
  A 0.50 0.49 14.4 0 0 292.44 195.99
  Z
  M 178.02 229.39
  Q 191.52 229.68 204.81 229.67
  C 208.16 229.67 209.99 229.28 211.84 226.23
  Q 219.38 213.79 226.07 200.81
  Q 226.32 200.32 225.84 200.60
  L 177.94 229.10
  Q 177.46 229.38 178.02 229.39
  Z"
/>
<path fill="#bbeae4" d="
  M 194.76 171.72
  L 202.96 157.16
  A 0.35 0.35 0.0 0 1 203.26 156.98
  L 219.97 156.69
  A 0.35 0.35 0.0 0 1 220.15 157.34
  L 195.24 172.19
  A 0.35 0.35 0.0 0 1 194.76 171.72
  Z"
/>
<path fill="#bbeae4" d="
  M 204.69 188.14
  C 201.17 190.30 195.65 191.89 191.88 190.41
  A 0.58 0.58 0.0 0 1 191.80 189.37
  Q 216.83 174.67 241.21 159.92
  C 244.55 157.90 246.29 156.27 250.61 156.81
  A 0.57 0.57 0.0 0 1 251.07 157.59
  C 249.70 161.01 247.67 162.66 244.28 164.62
  Q 224.34 176.14 204.69 188.14
  Z"
/>
<path fill="#bbeae4" d="
  M 294.17 156.92
  A 0.05 0.05 0.0 0 1 294.19 157.01
  Q 266.80 172.91 239.62 189.44
  A 0.23 0.23 0.0 0 1 239.30 189.13
  Q 244.89 179.04 250.60 168.91
  C 254.04 162.80 261.95 156.63 269.25 156.61
  Q 281.15 156.57 294.17 156.92
  Z"
/>
<path fill="#bbeae4" d="
  M 243.25 189.99
  Q 242.81 189.89 243.24 189.73
  Q 244.22 189.37 245.27 188.75
  Q 270.33 174.16 295.09 159.09
  C 299.18 156.60 302.89 156.40 307.41 156.83
  Q 308.46 156.93 307.96 157.87
  Q 303.70 165.90 298.85 174.01
  C 296.38 178.15 292.80 178.92 288.99 181.22
  Q 282.13 185.38 275.36 189.68
  Q 274.95 189.95 274.46 190.02
  C 265.90 191.19 256.46 190.51 247.75 190.55
  Q 245.69 190.56 243.25 189.99
  Z"
/>
<path fill="#bbeae4" d="
  M 307.47 169.67
  L 314.51 157.26
  A 0.32 0.32 0.0 0 1 314.78 157.10
  L 329.03 156.56
  A 0.32 0.32 0.0 0 1 329.21 157.15
  L 307.91 170.10
  A 0.32 0.32 0.0 0 1 307.47 169.67
  Z"
/>
<path fill="#bbeae4" d="
  M 296.17 189.98
  C 297.63 186.46 301.08 179.02 304.35 177.12
  Q 320.44 167.77 336.30 158.04
  C 340.73 155.32 357.43 156.74 363.07 157.09
  Q 363.67 157.13 363.38 157.65
  L 345.13 190.02
  Q 344.83 190.55 344.23 190.55
  L 296.50 190.48
  Q 295.96 190.48 296.17 189.98
  Z"
/>
<path fill="#bbeae4" d="
  M 210.11 189.88
  L 243.00 170.29
  A 0.32 0.32 0.0 0 1 243.44 170.73
  L 232.37 190.36
  A 0.32 0.32 0.0 0 1 232.09 190.52
  L 210.27 190.47
  A 0.32 0.32 0.0 0 1 210.11 189.88
  Z"
/>
<path fill="#69aaff" d="
  M 173.83 183.35
  L 149.52 225.79
  L 149.49 193.56
  Q 149.48 193.00 148.92 193.00
  L 147.25 193.00
  Q 146.75 193.00 146.75 193.50
  L 146.75 228.28
  A 0.49 0.49 0.0 0 1 145.87 228.57
  L 135.03 213.60
  Q 134.62 213.03 134.02 213.39
  L 132.31 214.41
  Q 123.38 211.63 113.18 212.09
  C 109.62 212.25 98.46 213.30 96.89 208.91
  C 108.64 202.06 112.25 191.55 118.56 183.56
  C 131.09 167.67 154.75 176.07 169.80 182.12
  Q 171.62 182.85 173.83 183.35
  Z"
/>
<path fill="#0289dc" d="
  M 440.28 177.72
  Q 440.19 178.03 440.23 178.33
  Q 440.30 178.81 440.79 178.82
  Q 500.80 179.59 531.50 179.22
  Q 537.57 179.15 540.30 179.85
  L 499.22 252.05
  Q 496.37 251.52 492.91 250.86
  Q 489.24 250.15 486.54 250.27
  Q 480.26 250.55 474.74 252.66
  L 356.33 252.53
  Q 355.94 252.53 355.59 252.70
  Q 355.25 252.86 354.91 252.72
  C 353.45 251.22 371.74 225.68 371.21 221.53
  Q 371.90 221.86 372.25 221.24
  Q 384.10 200.36 395.90 179.41
  Q 396.16 178.96 396.67 178.94
  L 403.41 178.61
  Q 404.62 179.46 406.60 178.73
  L 439.41 178.69
  Q 439.88 178.69 439.96 178.23
  Q 440.02 177.86 440.28 177.72
  Z
  M 400.45 183.28
  A 0.34 0.34 0.0 0 0 400.15 183.45
  L 363.70 247.49
  A 0.34 0.34 0.0 0 0 363.99 248.00
  L 497.24 248.00
  A 0.34 0.34 0.0 0 0 497.54 247.83
  L 533.87 183.93
  A 0.34 0.34 0.0 0 0 533.58 183.42
  L 400.45 183.28
  Z"
/>
<path fill="#0148c0" d="
  M 540.30 179.85
  C 542.90 180.99 542.22 183.90 541.02 186.00
  Q 522.07 219.29 502.81 252.92
  Q 502.45 253.60 499.22 252.05
  L 540.30 179.85
  Z"
/>
<path fill="#edfdfe" d="
  M 400.45 183.28
  L 533.58 183.42
  A 0.34 0.34 0.0 0 1 533.87 183.93
  L 497.54 247.83
  A 0.34 0.34 0.0 0 1 497.24 248.00
  L 363.99 248.00
  A 0.34 0.34 0.0 0 1 363.70 247.49
  L 400.15 183.45
  A 0.34 0.34 0.0 0 1 400.45 183.28
  Z
  M 395.86 198.79
  A 0.38 0.38 0.0 0 0 396.38 199.31
  L 415.28 188.22
  A 0.38 0.38 0.0 0 0 415.08 187.52
  L 402.56 187.83
  A 0.38 0.38 0.0 0 0 402.24 188.02
  L 395.86 198.79
  Z
  M 394.41 212.39
  Q 392.93 213.27 394.64 213.49
  Q 399.82 214.17 403.30 212.05
  Q 419.90 201.96 436.72 192.24
  Q 438.63 191.13 439.62 188.17
  Q 439.82 187.59 439.21 187.51
  Q 436.47 187.16 433.76 188.80
  Q 413.73 200.89 394.41 212.39
  Z
  M 438.47 198.29
  Q 434.55 205.13 430.93 211.87
  Q 430.38 212.89 431.38 212.30
  L 471.90 188.22
  Q 472.37 187.93 471.82 187.89
  C 461.97 187.05 450.53 185.95 443.87 191.32
  Q 441.25 193.43 438.47 198.29
  Z
  M 472.81 204.60
  C 477.27 202.11 481.18 192.96 483.86 188.41
  Q 484.21 187.82 483.53 187.69
  Q 478.18 186.67 472.57 190.08
  Q 453.53 201.62 435.44 212.28
  Q 433.25 213.57 435.79 213.52
  Q 444.82 213.37 454.27 213.75
  C 459.27 213.95 468.23 207.16 472.81 204.60
  Z
  M 490.81 187.66
  C 487.73 187.61 484.50 195.63 483.66 197.39
  Q 483.41 197.90 483.90 197.61
  L 500.18 188.04
  Q 500.65 187.77 500.10 187.77
  Q 495.46 187.74 490.81 187.66
  Z
  M 480.60 203.63
  C 478.64 204.80 475.64 210.77 474.76 212.74
  Q 474.46 213.42 475.20 213.43
  L 511.76 213.80
  A 0.80 0.80 0.0 0 0 512.46 213.39
  L 526.60 188.40
  A 0.60 0.59 -74.9 0 0 526.09 187.51
  C 521.02 187.48 509.06 186.29 504.87 188.87
  Q 492.77 196.32 480.60 203.63
  Z
  M 425.31 213.31
  L 433.65 198.17
  Q 434.02 197.50 433.37 197.89
  L 408.16 212.97
  Q 407.54 213.34 408.26 213.43
  C 413.29 214.08 418.95 213.30 424.28 213.85
  A 1.06 1.04 16.9 0 0 425.31 213.31
  Z
  M 471.31 208.60
  L 464.35 213.02
  A 0.16 0.16 0.0 0 0 464.30 213.24
  L 464.30 213.24
  A 4.18 2.38 -32.4 0 0 469.11 213.01
  L 469.27 212.90
  A 4.18 2.38 -32.4 0 0 471.53 208.65
  L 471.53 208.65
  A 0.16 0.16 0.0 0 0 471.31 208.60
  Z
  M 389.48 217.84
  C 384.85 216.31 382.88 221.04 381.59 224.42
  Q 381.31 225.16 381.98 224.75
  L 392.98 218.14
  Q 393.40 217.88 392.92 217.79
  Q 391.71 217.56 390.44 217.88
  A 1.74 1.69 -41.8 0 1 389.48 217.84
  Z
  M 379.17 230.49
  C 376.05 232.44 372.95 239.10 371.18 242.40
  Q 370.50 243.67 371.92 243.89
  C 376.17 244.55 379.32 243.50 383.19 241.13
  Q 402.07 229.53 421.42 218.50
  A 0.27 0.27 0.0 0 0 421.30 218.00
  C 416.45 217.78 402.11 216.50 398.28 218.79
  Q 388.66 224.54 379.17 230.49
  Z
  M 427.05 218.29
  L 416.72 236.44
  Q 415.60 238.41 417.54 237.25
  L 449.92 217.90
  Q 450.11 217.79 449.89 217.79
  L 428.01 217.73
  A 1.11 1.10 -75.0 0 0 427.05 218.29
  Z
  M 413.49 243.59
  A 0.32 0.32 0.0 0 0 413.79 244.01
  L 451.74 243.98
  Q 452.24 243.98 452.49 243.54
  L 466.67 218.42
  Q 466.95 217.92 466.38 217.86
  C 461.76 217.38 457.52 217.19 453.35 219.70
  Q 435.15 230.69 416.84 241.48
  A 1.86 1.82 28.7 0 1 415.95 241.73
  Q 414.06 241.78 413.49 243.59
  Z
  M 471.60 218.13
  L 457.44 242.77
  A 0.80 0.80 0.0 0 0 458.07 243.97
  C 460.64 244.17 462.68 243.89 465.00 242.50
  Q 484.00 231.15 503.01 219.80
  Q 504.36 218.99 505.89 218.24
  Q 506.87 217.75 505.77 217.75
  L 472.25 217.75
  A 0.76 0.74 -74.6 0 0 471.60 218.13
  Z
  M 420.01 222.02
  A 0.30 0.30 0.0 0 0 419.60 221.62
  L 383.04 243.58
  A 0.30 0.30 0.0 0 0 383.20 244.14
  L 407.87 243.80
  A 0.30 0.30 0.0 0 0 408.13 243.64
  L 420.01 222.02
  Z"
/>
<path fill="#bbeae4" d="
  M 292.51 185.35
  L 289.34 190.33
  A 0.31 0.31 0.0 0 1 289.08 190.47
  L 283.17 190.52
  A 0.31 0.31 0.0 0 1 283.02 189.94
  L 292.10 184.91
  A 0.31 0.31 0.0 0 1 292.51 185.35
  Z"
/>
<path fill="#bbeae4" d="
  M 395.86 198.79
  L 402.24 188.02
  A 0.38 0.38 0.0 0 1 402.56 187.83
  L 415.08 187.52
  A 0.38 0.38 0.0 0 1 415.28 188.22
  L 396.38 199.31
  A 0.38 0.38 0.0 0 1 395.86 198.79
  Z"
/>
<path fill="#bbeae4" d="
  M 394.41 212.39
  Q 413.73 200.89 433.76 188.80
  Q 436.47 187.16 439.21 187.51
  Q 439.82 187.59 439.62 188.17
  Q 438.63 191.13 436.72 192.24
  Q 419.90 201.96 403.30 212.05
  Q 399.82 214.17 394.64 213.49
  Q 392.93 213.27 394.41 212.39
  Z"
/>
<path fill="#bbeae4" d="
  M 443.87 191.32
  C 450.53 185.95 461.97 187.05 471.82 187.89
  Q 472.37 187.93 471.90 188.22
  L 431.38 212.30
  Q 430.38 212.89 430.93 211.87
  Q 434.55 205.13 438.47 198.29
  Q 441.25 193.43 443.87 191.32
  Z"
/>
<path fill="#bbeae4" d="
  M 483.86 188.41
  C 481.18 192.96 477.27 202.11 472.81 204.60
  C 468.23 207.16 459.27 213.95 454.27 213.75
  Q 444.82 213.37 435.79 213.52
  Q 433.25 213.57 435.44 212.28
  Q 453.53 201.62 472.57 190.08
  Q 478.18 186.67 483.53 187.69
  Q 484.21 187.82 483.86 188.41
  Z"
/>
<path fill="#bbeae4" d="
  M 483.66 197.39
  C 484.50 195.63 487.73 187.61 490.81 187.66
  Q 495.46 187.74 500.10 187.77
  Q 500.65 187.77 500.18 188.04
  L 483.90 197.61
  Q 483.41 197.90 483.66 197.39
  Z"
/>
<path fill="#bbeae4" d="
  M 474.76 212.74
  C 475.64 210.77 478.64 204.80 480.60 203.63
  Q 492.77 196.32 504.87 188.87
  C 509.06 186.29 521.02 187.48 526.09 187.51
  A 0.60 0.59 -74.9 0 1 526.60 188.40
  L 512.46 213.39
  A 0.80 0.80 0.0 0 1 511.76 213.80
  L 475.20 213.43
  Q 474.46 213.42 474.76 212.74
  Z"
/>
<path fill="#034c71" d="
  M 149.52 225.79
  L 145.81 233.21
  L 132.31 214.41
  L 134.02 213.39
  Q 134.62 213.03 135.03 213.60
  L 145.87 228.57
  A 0.49 0.49 0.0 0 0 146.75 228.28
  L 146.75 193.50
  Q 146.75 193.00 147.25 193.00
  L 148.92 193.00
  Q 149.48 193.00 149.49 193.56
  L 149.52 225.79
  Z"
/>
<path fill="#bbeae4" d="
  M 176.33 203.94
  L 180.71 196.13
  A 0.50 0.50 0.0 0 1 181.13 195.87
  L 190.08 195.64
  A 0.50 0.50 0.0 0 1 190.35 196.57
  L 177.03 204.61
  A 0.50 0.50 0.0 0 1 176.33 203.94
  Z"
/>
<path fill="#bbeae4" d="
  M 217.24 229.76
  A 0.36 0.35 -60.4 0 1 217.06 229.10
  Q 245.25 212.63 270.69 197.07
  C 274.29 194.87 281.81 195.65 285.96 195.78
  Q 286.51 195.80 286.24 196.27
  L 267.90 228.71
  A 1.95 1.94 14.9 0 1 266.21 229.69
  L 217.24 229.76
  Z"
/>
<path fill="#bbeae4" d="
  M 226.89 195.91
  Q 228.81 195.96 227.15 196.92
  Q 202.46 211.14 177.49 226.46
  C 172.50 229.52 168.20 230.33 162.75 229.38
  A 0.55 0.54 18.9 0 1 162.36 228.59
  C 164.92 223.83 169.41 214.12 173.89 211.47
  Q 186.29 204.13 198.57 196.68
  C 202.28 194.42 221.02 195.76 226.89 195.91
  Z"
/>
<path fill="#bbeae4" d="
  M 235.25 196.04
  A 0.56 0.56 0.0 0 1 235.74 195.75
  L 264.15 195.75
  Q 264.62 195.75 264.21 195.99
  L 220.90 221.87
  A 0.15 0.15 0.0 0 1 220.69 221.66
  L 235.25 196.04
  Z"
/>
<path fill="#bbeae4" d="
  M 292.44 195.99
  A 0.50 0.49 14.4 0 1 292.87 195.74
  L 336.24 195.78
  Q 337.15 195.78 336.37 196.25
  Q 309.56 212.27 282.80 228.28
  Q 278.78 230.69 273.99 229.38
  Q 273.45 229.23 273.73 228.74
  L 292.44 195.99
  Z"
/>
<path fill="#bbeae4" d="
  M 425.31 213.31
  A 1.06 1.04 16.9 0 1 424.28 213.85
  C 418.95 213.30 413.29 214.08 408.26 213.43
  Q 407.54 213.34 408.16 212.97
  L 433.37 197.89
  Q 434.02 197.50 433.65 198.17
  L 425.31 213.31
  Z"
/>
<path fill="#bbeae4" d="
  M 178.02 229.39
  Q 177.46 229.38 177.94 229.10
  L 225.84 200.60
  Q 226.32 200.32 226.07 200.81
  Q 219.38 213.79 211.84 226.23
  C 209.99 229.28 208.16 229.67 204.81 229.67
  Q 191.52 229.68 178.02 229.39
  Z"
/>
<path fill="#bbeae4" d="
  M 471.31 208.60
  A 0.16 0.16 0.0 0 1 471.53 208.65
  L 471.53 208.65
  A 4.18 2.38 -32.4 0 1 469.27 212.90
  L 469.11 213.01
  A 4.18 2.38 -32.4 0 1 464.30 213.24
  L 464.30 213.24
  A 0.16 0.16 0.0 0 1 464.35 213.02
  L 471.31 208.60
  Z"
/>
<path fill="#7d99ff" d="
  M 96.89 208.91
  C 98.46 213.30 109.62 212.25 113.18 212.09
  Q 123.38 211.63 132.31 214.41
  L 145.81 233.21
  Q 143.49 236.11 141.90 240.42
  Q 143.03 246.31 146.69 246.13
  L 146.64 271.63
  C 136.54 274.07 122.04 275.52 115.50 264.98
  C 111.73 258.91 111.64 251.22 107.06 245.80
  C 103.03 241.02 96.34 238.46 91.21 235.47
  C 76.30 226.78 85.92 214.08 96.89 208.91
  Z"
/>
<path fill="#bbeae4" d="
  M 390.44 217.88
  Q 391.71 217.56 392.92 217.79
  Q 393.40 217.88 392.98 218.14
  L 381.98 224.75
  Q 381.31 225.16 381.59 224.42
  C 382.88 221.04 384.85 216.31 389.48 217.84
  A 1.74 1.69 -41.8 0 0 390.44 217.88
  Z"
/>
<path fill="#bbeae4" d="
  M 371.18 242.40
  C 372.95 239.10 376.05 232.44 379.17 230.49
  Q 388.66 224.54 398.28 218.79
  C 402.11 216.50 416.45 217.78 421.30 218.00
  A 0.27 0.27 0.0 0 1 421.42 218.50
  Q 402.07 229.53 383.19 241.13
  C 379.32 243.50 376.17 244.55 371.92 243.89
  Q 370.50 243.67 371.18 242.40
  Z"
/>
<path fill="#bbeae4" d="
  M 427.05 218.29
  A 1.11 1.10 -75.0 0 1 428.01 217.73
  L 449.89 217.79
  Q 450.11 217.79 449.92 217.90
  L 417.54 237.25
  Q 415.60 238.41 416.72 236.44
  L 427.05 218.29
  Z"
/>
<path fill="#bbeae4" d="
  M 413.49 243.59
  Q 414.06 241.78 415.95 241.73
  A 1.86 1.82 28.7 0 0 416.84 241.48
  Q 435.15 230.69 453.35 219.70
  C 457.52 217.19 461.76 217.38 466.38 217.86
  Q 466.95 217.92 466.67 218.42
  L 452.49 243.54
  Q 452.24 243.98 451.74 243.98
  L 413.79 244.01
  A 0.32 0.32 0.0 0 1 413.49 243.59
  Z"
/>
<path fill="#bbeae4" d="
  M 471.60 218.13
  A 0.76 0.74 -74.6 0 1 472.25 217.75
  L 505.77 217.75
  Q 506.87 217.75 505.89 218.24
  Q 504.36 218.99 503.01 219.80
  Q 484.00 231.15 465.00 242.50
  C 462.68 243.89 460.64 244.17 458.07 243.97
  A 0.80 0.80 0.0 0 1 457.44 242.77
  L 471.60 218.13
  Z"
/>
<path fill="#bbeae4" d="
  M 420.01 222.02
  L 408.13 243.64
  A 0.30 0.30 0.0 0 1 407.87 243.80
  L 383.20 244.14
  A 0.30 0.30 0.0 0 1 383.04 243.58
  L 419.60 221.62
  A 0.30 0.30 0.0 0 1 420.01 222.02
  Z"
/>
<path fill="#00b8b3" d="
  M 270.23 245.78
  L 270.10 258.20
  Q 257.88 253.38 245.81 248.94
  Q 244.99 248.63 244.22 248.79
  L 244.30 246.13
  Q 244.32 245.56 244.89 245.56
  L 270.23 245.78
  Z"
/>
<path fill="#034c71" d="
  M 149.46 246.25
  L 149.57 252.76
  Q 149.59 253.60 150.13 252.95
  L 155.88 246.09
  L 159.38 245.98
  L 149.81 257.56
  Q 149.52 257.90 149.52 258.35
  L 149.49 270.01
  Q 149.49 270.47 149.95 270.51
  Q 150.09 270.53 150.24 270.52
  C 148.29 273.02 149.24 288.54 149.26 292.44
  A 1.34 1.33 19.6 0 1 147.08 293.47
  C 146.82 293.26 146.60 273.73 146.64 271.63
  L 146.69 246.13
  Q 148.55 245.18 149.46 246.25
  Z"
/>
<path fill="#7d99ff" d="
  M 155.88 246.09
  L 150.13 252.95
  Q 149.59 253.60 149.57 252.76
  L 149.46 246.25
  Q 152.42 245.11 155.88 246.09
  Z"
/>
<path fill="#7d99ff" d="
  M 199.96 246.25
  Q 197.93 260.64 186.04 266.53
  C 175.36 271.83 161.73 268.18 150.24 270.52
  Q 150.09 270.53 149.95 270.51
  Q 149.49 270.47 149.49 270.01
  L 149.52 258.35
  Q 149.52 257.90 149.81 257.56
  L 159.38 245.98
  Q 178.10 245.55 197.19 245.73
  Q 198.63 245.75 199.96 246.25
  Z"
/>
<path fill="#00d5bb" d="
  M 244.22 248.79
  Q 244.99 248.63 245.81 248.94
  Q 257.88 253.38 270.10 258.20
  L 270.44 269.54
  Q 270.90 275.35 265.93 278.15
  Q 265.42 278.43 265.88 278.79
  Q 272.96 284.25 271.55 293.99
  Q 247.65 294.03 223.25 293.85
  Q 218.48 293.82 218.79 289.00
  C 219.45 278.59 233.32 272.99 242.35 270.01
  C 243.81 269.53 244.21 268.62 244.22 267.19
  Q 244.31 257.94 244.22 248.79
  Z"
/>
<path fill="#69aaff" d="
  M 499.22 252.05
  Q 502.45 253.60 502.81 252.92
  Q 504.88 254.23 512.19 257.81
  Q 520.65 261.96 526.47 271.75
  C 520.93 273.75 516.23 272.47 511.62 272.51
  Q 482.81 272.79 454.00 272.65
  C 449.05 272.62 443.65 271.77 436.70 272.67
  Q 442.04 269.01 445.42 263.11
  L 450.36 256.49
  C 453.66 253.89 455.94 254.29 460.08 255.75
  Q 467.88 258.48 474.74 252.66
  Q 480.26 250.55 486.54 250.27
  Q 489.24 250.15 492.91 250.86
  Q 496.37 251.52 499.22 252.05
  Z"
/>
<path fill="#0148c0" d="
  M 474.74 252.66
  Q 467.88 258.48 460.08 255.75
  C 455.94 254.29 453.66 253.89 450.36 256.49
  L 433.24 256.32
  Q 432.99 256.32 433.11 256.53
  Q 433.19 256.66 433.37 256.68
  Q 432.53 256.87 431.66 256.66
  L 406.49 256.51
  Q 404.87 255.97 403.65 256.68
  L 376.10 256.80
  Q 368.19 256.71 360.50 256.75
  Q 355.63 256.77 354.91 252.72
  Q 355.25 252.86 355.59 252.70
  Q 355.94 252.53 356.33 252.53
  L 474.74 252.66
  Z"
/>
<path fill="#034c71" d="
  M 406.49 256.51
  L 406.57 260.63
  L 406.69 291.81
  A 2.02 2.01 65.7 0 1 406.19 293.14
  C 404.84 294.67 403.51 293.43 403.51 291.85
  Q 403.50 276.64 403.49 261.43
  C 403.49 260.89 403.14 260.41 402.58 260.42
  Q 403.76 260.39 403.65 256.68
  Q 404.87 255.97 406.49 256.51
  Z"
/>
<path fill="#00b8b3" d="
  M 450.36 256.49
  L 445.42 263.11
  Q 439.96 260.32 433.99 258.94
  Q 434.27 257.29 433.37 256.68
  Q 433.19 256.66 433.11 256.53
  Q 432.99 256.32 433.24 256.32
  L 450.36 256.49
  Z"
/>
<path fill="#7d99ff" d="
  M 403.65 256.68
  Q 403.76 260.39 402.58 260.42
  C 393.14 262.02 383.83 264.08 376.10 256.80
  L 403.65 256.68
  Z"
/>
<path fill="#7d99ff" d="
  M 431.66 256.66
  C 426.14 266.73 416.00 263.56 406.57 260.63
  L 406.49 256.51
  L 431.66 256.66
  Z"
/>
<path fill="#00d5bb" d="
  M 445.42 263.11
  Q 442.04 269.01 436.70 272.67
  C 428.55 280.28 434.61 287.53 439.68 294.00
  Q 429.21 294.04 419.61 293.96
  C 414.88 293.93 412.55 292.04 414.91 287.32
  C 418.30 280.57 426.17 277.29 433.04 275.24
  Q 434.40 274.84 434.21 273.43
  Q 433.34 266.93 433.99 258.94
  Q 439.96 260.32 445.42 263.11
  Z"
/>
<path fill="#00b8b3" d="
  M 270.44 269.54
  C 278.09 271.94 291.93 276.91 295.22 285.36
  C 296.50 288.65 296.16 294.04 291.32 294.05
  Q 281.68 294.07 271.55 293.99
  Q 272.96 284.25 265.88 278.79
  Q 265.42 278.43 265.93 278.15
  Q 270.90 275.35 270.44 269.54
  Z"
/>
<path fill="#7d99ff" d="
  M 526.47 271.75
  Q 529.47 279.26 527.17 288.24
  C 526.13 292.33 524.84 293.77 520.33 293.76
  Q 479.49 293.63 439.68 294.00
  C 434.61 287.53 428.55 280.28 436.70 272.67
  C 443.65 271.77 449.05 272.62 454.00 272.65
  Q 482.81 272.79 511.62 272.51
  C 516.23 272.47 520.93 273.75 526.47 271.75
  Z"
/>
</svg>
